G04 #@! TF.GenerationSoftware,KiCad,Pcbnew,7.0.10-7.0.10~ubuntu22.04.1*
G04 #@! TF.CreationDate,2024-02-08T17:20:11-05:00*
G04 #@! TF.ProjectId,daughterBoard,64617567-6874-4657-9242-6f6172642e6b,rev?*
G04 #@! TF.SameCoordinates,Original*
G04 #@! TF.FileFunction,Legend,Bot*
G04 #@! TF.FilePolarity,Positive*
%FSLAX46Y46*%
G04 Gerber Fmt 4.6, Leading zero omitted, Abs format (unit mm)*
G04 Created by KiCad (PCBNEW 7.0.10-7.0.10~ubuntu22.04.1) date 2024-02-08 17:20:11*
%MOMM*%
%LPD*%
G01*
G04 APERTURE LIST*
%ADD10C,0.150000*%
%ADD11C,0.160000*%
%ADD12C,0.300000*%
%ADD13C,0.120000*%
%ADD14C,3.500000*%
%ADD15R,1.000000X1.000000*%
%ADD16O,1.000000X1.000000*%
%ADD17C,0.900000*%
%ADD18C,0.950000*%
%ADD19C,2.374900*%
%ADD20C,0.990600*%
%ADD21O,0.900000X1.600000*%
%ADD22R,0.200000X0.700000*%
%ADD23R,0.700000X0.200000*%
G04 APERTURE END LIST*
D10*
X151800000Y-87900000D02*
X152000000Y-87900000D01*
X151700000Y-88300000D01*
X151400000Y-87900000D01*
X151600000Y-87900000D01*
X151600000Y-87400000D01*
X151800000Y-87400000D01*
X151800000Y-87900000D01*
G36*
X151800000Y-87900000D02*
G01*
X152000000Y-87900000D01*
X151700000Y-88300000D01*
X151400000Y-87900000D01*
X151600000Y-87900000D01*
X151600000Y-87400000D01*
X151800000Y-87400000D01*
X151800000Y-87900000D01*
G37*
X159600000Y-86900000D02*
X159400000Y-86900000D01*
X159400000Y-87400000D01*
X159200000Y-87400000D01*
X159200000Y-86900000D01*
X159000000Y-86900000D01*
X159300000Y-86500000D01*
X159600000Y-86900000D01*
G36*
X159600000Y-86900000D02*
G01*
X159400000Y-86900000D01*
X159400000Y-87400000D01*
X159200000Y-87400000D01*
X159200000Y-86900000D01*
X159000000Y-86900000D01*
X159300000Y-86500000D01*
X159600000Y-86900000D01*
G37*
X197100000Y-79100000D02*
X196900000Y-79100000D01*
X196900000Y-79600000D01*
X196700000Y-79600000D01*
X196700000Y-79100000D01*
X196500000Y-79100000D01*
X196800000Y-78700000D01*
X197100000Y-79100000D01*
G36*
X197100000Y-79100000D02*
G01*
X196900000Y-79100000D01*
X196900000Y-79600000D01*
X196700000Y-79600000D01*
X196700000Y-79100000D01*
X196500000Y-79100000D01*
X196800000Y-78700000D01*
X197100000Y-79100000D01*
G37*
X216650000Y-91000000D02*
X216850000Y-91000000D01*
X216550000Y-91400000D01*
X216250000Y-91000000D01*
X216450000Y-91000000D01*
X216450000Y-90500000D01*
X216650000Y-90500000D01*
X216650000Y-91000000D01*
G36*
X216650000Y-91000000D02*
G01*
X216850000Y-91000000D01*
X216550000Y-91400000D01*
X216250000Y-91000000D01*
X216450000Y-91000000D01*
X216450000Y-90500000D01*
X216650000Y-90500000D01*
X216650000Y-91000000D01*
G37*
D11*
X209085213Y-103859299D02*
X209418546Y-103383108D01*
X209656641Y-103859299D02*
X209656641Y-102859299D01*
X209656641Y-102859299D02*
X209275689Y-102859299D01*
X209275689Y-102859299D02*
X209180451Y-102906918D01*
X209180451Y-102906918D02*
X209132832Y-102954537D01*
X209132832Y-102954537D02*
X209085213Y-103049775D01*
X209085213Y-103049775D02*
X209085213Y-103192632D01*
X209085213Y-103192632D02*
X209132832Y-103287870D01*
X209132832Y-103287870D02*
X209180451Y-103335489D01*
X209180451Y-103335489D02*
X209275689Y-103383108D01*
X209275689Y-103383108D02*
X209656641Y-103383108D01*
X208656641Y-103335489D02*
X208323308Y-103335489D01*
X208180451Y-103859299D02*
X208656641Y-103859299D01*
X208656641Y-103859299D02*
X208656641Y-102859299D01*
X208656641Y-102859299D02*
X208180451Y-102859299D01*
X207894736Y-102859299D02*
X207561403Y-103859299D01*
X207561403Y-103859299D02*
X207228070Y-102859299D01*
X205609022Y-103859299D02*
X206180450Y-103859299D01*
X205894736Y-103859299D02*
X205894736Y-102859299D01*
X205894736Y-102859299D02*
X205989974Y-103002156D01*
X205989974Y-103002156D02*
X206085212Y-103097394D01*
X206085212Y-103097394D02*
X206180450Y-103145013D01*
X205180450Y-103764060D02*
X205132831Y-103811680D01*
X205132831Y-103811680D02*
X205180450Y-103859299D01*
X205180450Y-103859299D02*
X205228069Y-103811680D01*
X205228069Y-103811680D02*
X205180450Y-103764060D01*
X205180450Y-103764060D02*
X205180450Y-103859299D01*
X204513784Y-102859299D02*
X204418546Y-102859299D01*
X204418546Y-102859299D02*
X204323308Y-102906918D01*
X204323308Y-102906918D02*
X204275689Y-102954537D01*
X204275689Y-102954537D02*
X204228070Y-103049775D01*
X204228070Y-103049775D02*
X204180451Y-103240251D01*
X204180451Y-103240251D02*
X204180451Y-103478346D01*
X204180451Y-103478346D02*
X204228070Y-103668822D01*
X204228070Y-103668822D02*
X204275689Y-103764060D01*
X204275689Y-103764060D02*
X204323308Y-103811680D01*
X204323308Y-103811680D02*
X204418546Y-103859299D01*
X204418546Y-103859299D02*
X204513784Y-103859299D01*
X204513784Y-103859299D02*
X204609022Y-103811680D01*
X204609022Y-103811680D02*
X204656641Y-103764060D01*
X204656641Y-103764060D02*
X204704260Y-103668822D01*
X204704260Y-103668822D02*
X204751879Y-103478346D01*
X204751879Y-103478346D02*
X204751879Y-103240251D01*
X204751879Y-103240251D02*
X204704260Y-103049775D01*
X204704260Y-103049775D02*
X204656641Y-102954537D01*
X204656641Y-102954537D02*
X204609022Y-102906918D01*
X204609022Y-102906918D02*
X204513784Y-102859299D01*
X209132832Y-105469299D02*
X209704260Y-105469299D01*
X209418546Y-105469299D02*
X209418546Y-104469299D01*
X209418546Y-104469299D02*
X209513784Y-104612156D01*
X209513784Y-104612156D02*
X209609022Y-104707394D01*
X209609022Y-104707394D02*
X209704260Y-104755013D01*
X208751879Y-104564537D02*
X208704260Y-104516918D01*
X208704260Y-104516918D02*
X208609022Y-104469299D01*
X208609022Y-104469299D02*
X208370927Y-104469299D01*
X208370927Y-104469299D02*
X208275689Y-104516918D01*
X208275689Y-104516918D02*
X208228070Y-104564537D01*
X208228070Y-104564537D02*
X208180451Y-104659775D01*
X208180451Y-104659775D02*
X208180451Y-104755013D01*
X208180451Y-104755013D02*
X208228070Y-104897870D01*
X208228070Y-104897870D02*
X208799498Y-105469299D01*
X208799498Y-105469299D02*
X208180451Y-105469299D01*
X207037594Y-104421680D02*
X207894736Y-105707394D01*
X206751879Y-104564537D02*
X206704260Y-104516918D01*
X206704260Y-104516918D02*
X206609022Y-104469299D01*
X206609022Y-104469299D02*
X206370927Y-104469299D01*
X206370927Y-104469299D02*
X206275689Y-104516918D01*
X206275689Y-104516918D02*
X206228070Y-104564537D01*
X206228070Y-104564537D02*
X206180451Y-104659775D01*
X206180451Y-104659775D02*
X206180451Y-104755013D01*
X206180451Y-104755013D02*
X206228070Y-104897870D01*
X206228070Y-104897870D02*
X206799498Y-105469299D01*
X206799498Y-105469299D02*
X206180451Y-105469299D01*
X205847117Y-104469299D02*
X205228070Y-104469299D01*
X205228070Y-104469299D02*
X205561403Y-104850251D01*
X205561403Y-104850251D02*
X205418546Y-104850251D01*
X205418546Y-104850251D02*
X205323308Y-104897870D01*
X205323308Y-104897870D02*
X205275689Y-104945489D01*
X205275689Y-104945489D02*
X205228070Y-105040727D01*
X205228070Y-105040727D02*
X205228070Y-105278822D01*
X205228070Y-105278822D02*
X205275689Y-105374060D01*
X205275689Y-105374060D02*
X205323308Y-105421680D01*
X205323308Y-105421680D02*
X205418546Y-105469299D01*
X205418546Y-105469299D02*
X205704260Y-105469299D01*
X205704260Y-105469299D02*
X205799498Y-105421680D01*
X205799498Y-105421680D02*
X205847117Y-105374060D01*
D12*
X144526441Y-82539638D02*
X144526441Y-80539638D01*
X144526441Y-80539638D02*
X144050251Y-80539638D01*
X144050251Y-80539638D02*
X143764536Y-80634876D01*
X143764536Y-80634876D02*
X143574060Y-80825352D01*
X143574060Y-80825352D02*
X143478822Y-81015828D01*
X143478822Y-81015828D02*
X143383584Y-81396780D01*
X143383584Y-81396780D02*
X143383584Y-81682495D01*
X143383584Y-81682495D02*
X143478822Y-82063447D01*
X143478822Y-82063447D02*
X143574060Y-82253923D01*
X143574060Y-82253923D02*
X143764536Y-82444400D01*
X143764536Y-82444400D02*
X144050251Y-82539638D01*
X144050251Y-82539638D02*
X144526441Y-82539638D01*
X141669298Y-82539638D02*
X141669298Y-81492019D01*
X141669298Y-81492019D02*
X141764536Y-81301542D01*
X141764536Y-81301542D02*
X141955012Y-81206304D01*
X141955012Y-81206304D02*
X142335965Y-81206304D01*
X142335965Y-81206304D02*
X142526441Y-81301542D01*
X141669298Y-82444400D02*
X141859774Y-82539638D01*
X141859774Y-82539638D02*
X142335965Y-82539638D01*
X142335965Y-82539638D02*
X142526441Y-82444400D01*
X142526441Y-82444400D02*
X142621679Y-82253923D01*
X142621679Y-82253923D02*
X142621679Y-82063447D01*
X142621679Y-82063447D02*
X142526441Y-81872971D01*
X142526441Y-81872971D02*
X142335965Y-81777733D01*
X142335965Y-81777733D02*
X141859774Y-81777733D01*
X141859774Y-81777733D02*
X141669298Y-81682495D01*
X139859774Y-81206304D02*
X139859774Y-82539638D01*
X140716917Y-81206304D02*
X140716917Y-82253923D01*
X140716917Y-82253923D02*
X140621679Y-82444400D01*
X140621679Y-82444400D02*
X140431203Y-82539638D01*
X140431203Y-82539638D02*
X140145488Y-82539638D01*
X140145488Y-82539638D02*
X139955012Y-82444400D01*
X139955012Y-82444400D02*
X139859774Y-82349161D01*
X138050250Y-81206304D02*
X138050250Y-82825352D01*
X138050250Y-82825352D02*
X138145488Y-83015828D01*
X138145488Y-83015828D02*
X138240726Y-83111066D01*
X138240726Y-83111066D02*
X138431203Y-83206304D01*
X138431203Y-83206304D02*
X138716917Y-83206304D01*
X138716917Y-83206304D02*
X138907393Y-83111066D01*
X138050250Y-82444400D02*
X138240726Y-82539638D01*
X138240726Y-82539638D02*
X138621679Y-82539638D01*
X138621679Y-82539638D02*
X138812155Y-82444400D01*
X138812155Y-82444400D02*
X138907393Y-82349161D01*
X138907393Y-82349161D02*
X139002631Y-82158685D01*
X139002631Y-82158685D02*
X139002631Y-81587257D01*
X139002631Y-81587257D02*
X138907393Y-81396780D01*
X138907393Y-81396780D02*
X138812155Y-81301542D01*
X138812155Y-81301542D02*
X138621679Y-81206304D01*
X138621679Y-81206304D02*
X138240726Y-81206304D01*
X138240726Y-81206304D02*
X138050250Y-81301542D01*
X137097869Y-82539638D02*
X137097869Y-80539638D01*
X136240726Y-82539638D02*
X136240726Y-81492019D01*
X136240726Y-81492019D02*
X136335964Y-81301542D01*
X136335964Y-81301542D02*
X136526440Y-81206304D01*
X136526440Y-81206304D02*
X136812155Y-81206304D01*
X136812155Y-81206304D02*
X137002631Y-81301542D01*
X137002631Y-81301542D02*
X137097869Y-81396780D01*
X135574059Y-81206304D02*
X134812155Y-81206304D01*
X135288345Y-80539638D02*
X135288345Y-82253923D01*
X135288345Y-82253923D02*
X135193107Y-82444400D01*
X135193107Y-82444400D02*
X135002631Y-82539638D01*
X135002631Y-82539638D02*
X134812155Y-82539638D01*
X133383583Y-82444400D02*
X133574059Y-82539638D01*
X133574059Y-82539638D02*
X133955012Y-82539638D01*
X133955012Y-82539638D02*
X134145488Y-82444400D01*
X134145488Y-82444400D02*
X134240726Y-82253923D01*
X134240726Y-82253923D02*
X134240726Y-81492019D01*
X134240726Y-81492019D02*
X134145488Y-81301542D01*
X134145488Y-81301542D02*
X133955012Y-81206304D01*
X133955012Y-81206304D02*
X133574059Y-81206304D01*
X133574059Y-81206304D02*
X133383583Y-81301542D01*
X133383583Y-81301542D02*
X133288345Y-81492019D01*
X133288345Y-81492019D02*
X133288345Y-81682495D01*
X133288345Y-81682495D02*
X134240726Y-81872971D01*
X132431202Y-82539638D02*
X132431202Y-81206304D01*
X132431202Y-81587257D02*
X132335964Y-81396780D01*
X132335964Y-81396780D02*
X132240726Y-81301542D01*
X132240726Y-81301542D02*
X132050250Y-81206304D01*
X132050250Y-81206304D02*
X131859773Y-81206304D01*
X129002630Y-81492019D02*
X128716916Y-81587257D01*
X128716916Y-81587257D02*
X128621678Y-81682495D01*
X128621678Y-81682495D02*
X128526440Y-81872971D01*
X128526440Y-81872971D02*
X128526440Y-82158685D01*
X128526440Y-82158685D02*
X128621678Y-82349161D01*
X128621678Y-82349161D02*
X128716916Y-82444400D01*
X128716916Y-82444400D02*
X128907392Y-82539638D01*
X128907392Y-82539638D02*
X129669297Y-82539638D01*
X129669297Y-82539638D02*
X129669297Y-80539638D01*
X129669297Y-80539638D02*
X129002630Y-80539638D01*
X129002630Y-80539638D02*
X128812154Y-80634876D01*
X128812154Y-80634876D02*
X128716916Y-80730114D01*
X128716916Y-80730114D02*
X128621678Y-80920590D01*
X128621678Y-80920590D02*
X128621678Y-81111066D01*
X128621678Y-81111066D02*
X128716916Y-81301542D01*
X128716916Y-81301542D02*
X128812154Y-81396780D01*
X128812154Y-81396780D02*
X129002630Y-81492019D01*
X129002630Y-81492019D02*
X129669297Y-81492019D01*
X127383583Y-82539638D02*
X127574059Y-82444400D01*
X127574059Y-82444400D02*
X127669297Y-82349161D01*
X127669297Y-82349161D02*
X127764535Y-82158685D01*
X127764535Y-82158685D02*
X127764535Y-81587257D01*
X127764535Y-81587257D02*
X127669297Y-81396780D01*
X127669297Y-81396780D02*
X127574059Y-81301542D01*
X127574059Y-81301542D02*
X127383583Y-81206304D01*
X127383583Y-81206304D02*
X127097868Y-81206304D01*
X127097868Y-81206304D02*
X126907392Y-81301542D01*
X126907392Y-81301542D02*
X126812154Y-81396780D01*
X126812154Y-81396780D02*
X126716916Y-81587257D01*
X126716916Y-81587257D02*
X126716916Y-82158685D01*
X126716916Y-82158685D02*
X126812154Y-82349161D01*
X126812154Y-82349161D02*
X126907392Y-82444400D01*
X126907392Y-82444400D02*
X127097868Y-82539638D01*
X127097868Y-82539638D02*
X127383583Y-82539638D01*
X125002630Y-82539638D02*
X125002630Y-81492019D01*
X125002630Y-81492019D02*
X125097868Y-81301542D01*
X125097868Y-81301542D02*
X125288344Y-81206304D01*
X125288344Y-81206304D02*
X125669297Y-81206304D01*
X125669297Y-81206304D02*
X125859773Y-81301542D01*
X125002630Y-82444400D02*
X125193106Y-82539638D01*
X125193106Y-82539638D02*
X125669297Y-82539638D01*
X125669297Y-82539638D02*
X125859773Y-82444400D01*
X125859773Y-82444400D02*
X125955011Y-82253923D01*
X125955011Y-82253923D02*
X125955011Y-82063447D01*
X125955011Y-82063447D02*
X125859773Y-81872971D01*
X125859773Y-81872971D02*
X125669297Y-81777733D01*
X125669297Y-81777733D02*
X125193106Y-81777733D01*
X125193106Y-81777733D02*
X125002630Y-81682495D01*
X124050249Y-82539638D02*
X124050249Y-81206304D01*
X124050249Y-81587257D02*
X123955011Y-81396780D01*
X123955011Y-81396780D02*
X123859773Y-81301542D01*
X123859773Y-81301542D02*
X123669297Y-81206304D01*
X123669297Y-81206304D02*
X123478820Y-81206304D01*
X121955011Y-82539638D02*
X121955011Y-80539638D01*
X121955011Y-82444400D02*
X122145487Y-82539638D01*
X122145487Y-82539638D02*
X122526440Y-82539638D01*
X122526440Y-82539638D02*
X122716916Y-82444400D01*
X122716916Y-82444400D02*
X122812154Y-82349161D01*
X122812154Y-82349161D02*
X122907392Y-82158685D01*
X122907392Y-82158685D02*
X122907392Y-81587257D01*
X122907392Y-81587257D02*
X122812154Y-81396780D01*
X122812154Y-81396780D02*
X122716916Y-81301542D01*
X122716916Y-81301542D02*
X122526440Y-81206304D01*
X122526440Y-81206304D02*
X122145487Y-81206304D01*
X122145487Y-81206304D02*
X121955011Y-81301542D01*
D11*
X144456641Y-87419299D02*
X144456641Y-86419299D01*
X144456641Y-86419299D02*
X144123308Y-87133584D01*
X144123308Y-87133584D02*
X143789975Y-86419299D01*
X143789975Y-86419299D02*
X143789975Y-87419299D01*
X142885213Y-87419299D02*
X142885213Y-86895489D01*
X142885213Y-86895489D02*
X142932832Y-86800251D01*
X142932832Y-86800251D02*
X143028070Y-86752632D01*
X143028070Y-86752632D02*
X143218546Y-86752632D01*
X143218546Y-86752632D02*
X143313784Y-86800251D01*
X142885213Y-87371680D02*
X142980451Y-87419299D01*
X142980451Y-87419299D02*
X143218546Y-87419299D01*
X143218546Y-87419299D02*
X143313784Y-87371680D01*
X143313784Y-87371680D02*
X143361403Y-87276441D01*
X143361403Y-87276441D02*
X143361403Y-87181203D01*
X143361403Y-87181203D02*
X143313784Y-87085965D01*
X143313784Y-87085965D02*
X143218546Y-87038346D01*
X143218546Y-87038346D02*
X142980451Y-87038346D01*
X142980451Y-87038346D02*
X142885213Y-86990727D01*
X142504260Y-87419299D02*
X141980451Y-86752632D01*
X142504260Y-86752632D02*
X141980451Y-87419299D01*
X140837593Y-87419299D02*
X140837593Y-86419299D01*
X140361403Y-86752632D02*
X140361403Y-87419299D01*
X140361403Y-86847870D02*
X140313784Y-86800251D01*
X140313784Y-86800251D02*
X140218546Y-86752632D01*
X140218546Y-86752632D02*
X140075689Y-86752632D01*
X140075689Y-86752632D02*
X139980451Y-86800251D01*
X139980451Y-86800251D02*
X139932832Y-86895489D01*
X139932832Y-86895489D02*
X139932832Y-87419299D01*
X139456641Y-86752632D02*
X139456641Y-87752632D01*
X139456641Y-86800251D02*
X139361403Y-86752632D01*
X139361403Y-86752632D02*
X139170927Y-86752632D01*
X139170927Y-86752632D02*
X139075689Y-86800251D01*
X139075689Y-86800251D02*
X139028070Y-86847870D01*
X139028070Y-86847870D02*
X138980451Y-86943108D01*
X138980451Y-86943108D02*
X138980451Y-87228822D01*
X138980451Y-87228822D02*
X139028070Y-87324060D01*
X139028070Y-87324060D02*
X139075689Y-87371680D01*
X139075689Y-87371680D02*
X139170927Y-87419299D01*
X139170927Y-87419299D02*
X139361403Y-87419299D01*
X139361403Y-87419299D02*
X139456641Y-87371680D01*
X138123308Y-86752632D02*
X138123308Y-87419299D01*
X138551879Y-86752632D02*
X138551879Y-87276441D01*
X138551879Y-87276441D02*
X138504260Y-87371680D01*
X138504260Y-87371680D02*
X138409022Y-87419299D01*
X138409022Y-87419299D02*
X138266165Y-87419299D01*
X138266165Y-87419299D02*
X138170927Y-87371680D01*
X138170927Y-87371680D02*
X138123308Y-87324060D01*
X137789974Y-86752632D02*
X137409022Y-86752632D01*
X137647117Y-86419299D02*
X137647117Y-87276441D01*
X137647117Y-87276441D02*
X137599498Y-87371680D01*
X137599498Y-87371680D02*
X137504260Y-87419299D01*
X137504260Y-87419299D02*
X137409022Y-87419299D01*
X136456640Y-86419299D02*
X136123307Y-87419299D01*
X136123307Y-87419299D02*
X135789974Y-86419299D01*
X135313783Y-87419299D02*
X135409021Y-87371680D01*
X135409021Y-87371680D02*
X135456640Y-87324060D01*
X135456640Y-87324060D02*
X135504259Y-87228822D01*
X135504259Y-87228822D02*
X135504259Y-86943108D01*
X135504259Y-86943108D02*
X135456640Y-86847870D01*
X135456640Y-86847870D02*
X135409021Y-86800251D01*
X135409021Y-86800251D02*
X135313783Y-86752632D01*
X135313783Y-86752632D02*
X135170926Y-86752632D01*
X135170926Y-86752632D02*
X135075688Y-86800251D01*
X135075688Y-86800251D02*
X135028069Y-86847870D01*
X135028069Y-86847870D02*
X134980450Y-86943108D01*
X134980450Y-86943108D02*
X134980450Y-87228822D01*
X134980450Y-87228822D02*
X135028069Y-87324060D01*
X135028069Y-87324060D02*
X135075688Y-87371680D01*
X135075688Y-87371680D02*
X135170926Y-87419299D01*
X135170926Y-87419299D02*
X135313783Y-87419299D01*
X134409021Y-87419299D02*
X134504259Y-87371680D01*
X134504259Y-87371680D02*
X134551878Y-87276441D01*
X134551878Y-87276441D02*
X134551878Y-86419299D01*
X134170925Y-86752632D02*
X133789973Y-86752632D01*
X134028068Y-86419299D02*
X134028068Y-87276441D01*
X134028068Y-87276441D02*
X133980449Y-87371680D01*
X133980449Y-87371680D02*
X133885211Y-87419299D01*
X133885211Y-87419299D02*
X133789973Y-87419299D01*
X133028068Y-87419299D02*
X133028068Y-86895489D01*
X133028068Y-86895489D02*
X133075687Y-86800251D01*
X133075687Y-86800251D02*
X133170925Y-86752632D01*
X133170925Y-86752632D02*
X133361401Y-86752632D01*
X133361401Y-86752632D02*
X133456639Y-86800251D01*
X133028068Y-87371680D02*
X133123306Y-87419299D01*
X133123306Y-87419299D02*
X133361401Y-87419299D01*
X133361401Y-87419299D02*
X133456639Y-87371680D01*
X133456639Y-87371680D02*
X133504258Y-87276441D01*
X133504258Y-87276441D02*
X133504258Y-87181203D01*
X133504258Y-87181203D02*
X133456639Y-87085965D01*
X133456639Y-87085965D02*
X133361401Y-87038346D01*
X133361401Y-87038346D02*
X133123306Y-87038346D01*
X133123306Y-87038346D02*
X133028068Y-86990727D01*
X132123306Y-86752632D02*
X132123306Y-87562156D01*
X132123306Y-87562156D02*
X132170925Y-87657394D01*
X132170925Y-87657394D02*
X132218544Y-87705013D01*
X132218544Y-87705013D02*
X132313782Y-87752632D01*
X132313782Y-87752632D02*
X132456639Y-87752632D01*
X132456639Y-87752632D02*
X132551877Y-87705013D01*
X132123306Y-87371680D02*
X132218544Y-87419299D01*
X132218544Y-87419299D02*
X132409020Y-87419299D01*
X132409020Y-87419299D02*
X132504258Y-87371680D01*
X132504258Y-87371680D02*
X132551877Y-87324060D01*
X132551877Y-87324060D02*
X132599496Y-87228822D01*
X132599496Y-87228822D02*
X132599496Y-86943108D01*
X132599496Y-86943108D02*
X132551877Y-86847870D01*
X132551877Y-86847870D02*
X132504258Y-86800251D01*
X132504258Y-86800251D02*
X132409020Y-86752632D01*
X132409020Y-86752632D02*
X132218544Y-86752632D01*
X132218544Y-86752632D02*
X132123306Y-86800251D01*
X131266163Y-87371680D02*
X131361401Y-87419299D01*
X131361401Y-87419299D02*
X131551877Y-87419299D01*
X131551877Y-87419299D02*
X131647115Y-87371680D01*
X131647115Y-87371680D02*
X131694734Y-87276441D01*
X131694734Y-87276441D02*
X131694734Y-86895489D01*
X131694734Y-86895489D02*
X131647115Y-86800251D01*
X131647115Y-86800251D02*
X131551877Y-86752632D01*
X131551877Y-86752632D02*
X131361401Y-86752632D01*
X131361401Y-86752632D02*
X131266163Y-86800251D01*
X131266163Y-86800251D02*
X131218544Y-86895489D01*
X131218544Y-86895489D02*
X131218544Y-86990727D01*
X131218544Y-86990727D02*
X131694734Y-87085965D01*
X130789972Y-87324060D02*
X130742353Y-87371680D01*
X130742353Y-87371680D02*
X130789972Y-87419299D01*
X130789972Y-87419299D02*
X130837591Y-87371680D01*
X130837591Y-87371680D02*
X130789972Y-87324060D01*
X130789972Y-87324060D02*
X130789972Y-87419299D01*
X130789972Y-86800251D02*
X130742353Y-86847870D01*
X130742353Y-86847870D02*
X130789972Y-86895489D01*
X130789972Y-86895489D02*
X130837591Y-86847870D01*
X130837591Y-86847870D02*
X130789972Y-86800251D01*
X130789972Y-86800251D02*
X130789972Y-86895489D01*
X129647115Y-86419299D02*
X129028068Y-86419299D01*
X129028068Y-86419299D02*
X129361401Y-86800251D01*
X129361401Y-86800251D02*
X129218544Y-86800251D01*
X129218544Y-86800251D02*
X129123306Y-86847870D01*
X129123306Y-86847870D02*
X129075687Y-86895489D01*
X129075687Y-86895489D02*
X129028068Y-86990727D01*
X129028068Y-86990727D02*
X129028068Y-87228822D01*
X129028068Y-87228822D02*
X129075687Y-87324060D01*
X129075687Y-87324060D02*
X129123306Y-87371680D01*
X129123306Y-87371680D02*
X129218544Y-87419299D01*
X129218544Y-87419299D02*
X129504258Y-87419299D01*
X129504258Y-87419299D02*
X129599496Y-87371680D01*
X129599496Y-87371680D02*
X129647115Y-87324060D01*
X128170925Y-86419299D02*
X128361401Y-86419299D01*
X128361401Y-86419299D02*
X128456639Y-86466918D01*
X128456639Y-86466918D02*
X128504258Y-86514537D01*
X128504258Y-86514537D02*
X128599496Y-86657394D01*
X128599496Y-86657394D02*
X128647115Y-86847870D01*
X128647115Y-86847870D02*
X128647115Y-87228822D01*
X128647115Y-87228822D02*
X128599496Y-87324060D01*
X128599496Y-87324060D02*
X128551877Y-87371680D01*
X128551877Y-87371680D02*
X128456639Y-87419299D01*
X128456639Y-87419299D02*
X128266163Y-87419299D01*
X128266163Y-87419299D02*
X128170925Y-87371680D01*
X128170925Y-87371680D02*
X128123306Y-87324060D01*
X128123306Y-87324060D02*
X128075687Y-87228822D01*
X128075687Y-87228822D02*
X128075687Y-86990727D01*
X128075687Y-86990727D02*
X128123306Y-86895489D01*
X128123306Y-86895489D02*
X128170925Y-86847870D01*
X128170925Y-86847870D02*
X128266163Y-86800251D01*
X128266163Y-86800251D02*
X128456639Y-86800251D01*
X128456639Y-86800251D02*
X128551877Y-86847870D01*
X128551877Y-86847870D02*
X128599496Y-86895489D01*
X128599496Y-86895489D02*
X128647115Y-86990727D01*
X127789972Y-86419299D02*
X127456639Y-87419299D01*
X127456639Y-87419299D02*
X127123306Y-86419299D01*
X144456641Y-89029299D02*
X144456641Y-88029299D01*
X144456641Y-88029299D02*
X144123308Y-88743584D01*
X144123308Y-88743584D02*
X143789975Y-88029299D01*
X143789975Y-88029299D02*
X143789975Y-89029299D01*
X142885213Y-89029299D02*
X142885213Y-88505489D01*
X142885213Y-88505489D02*
X142932832Y-88410251D01*
X142932832Y-88410251D02*
X143028070Y-88362632D01*
X143028070Y-88362632D02*
X143218546Y-88362632D01*
X143218546Y-88362632D02*
X143313784Y-88410251D01*
X142885213Y-88981680D02*
X142980451Y-89029299D01*
X142980451Y-89029299D02*
X143218546Y-89029299D01*
X143218546Y-89029299D02*
X143313784Y-88981680D01*
X143313784Y-88981680D02*
X143361403Y-88886441D01*
X143361403Y-88886441D02*
X143361403Y-88791203D01*
X143361403Y-88791203D02*
X143313784Y-88695965D01*
X143313784Y-88695965D02*
X143218546Y-88648346D01*
X143218546Y-88648346D02*
X142980451Y-88648346D01*
X142980451Y-88648346D02*
X142885213Y-88600727D01*
X142504260Y-89029299D02*
X141980451Y-88362632D01*
X142504260Y-88362632D02*
X141980451Y-89029299D01*
X140647117Y-88029299D02*
X140456641Y-88029299D01*
X140456641Y-88029299D02*
X140361403Y-88076918D01*
X140361403Y-88076918D02*
X140266165Y-88172156D01*
X140266165Y-88172156D02*
X140218546Y-88362632D01*
X140218546Y-88362632D02*
X140218546Y-88695965D01*
X140218546Y-88695965D02*
X140266165Y-88886441D01*
X140266165Y-88886441D02*
X140361403Y-88981680D01*
X140361403Y-88981680D02*
X140456641Y-89029299D01*
X140456641Y-89029299D02*
X140647117Y-89029299D01*
X140647117Y-89029299D02*
X140742355Y-88981680D01*
X140742355Y-88981680D02*
X140837593Y-88886441D01*
X140837593Y-88886441D02*
X140885212Y-88695965D01*
X140885212Y-88695965D02*
X140885212Y-88362632D01*
X140885212Y-88362632D02*
X140837593Y-88172156D01*
X140837593Y-88172156D02*
X140742355Y-88076918D01*
X140742355Y-88076918D02*
X140647117Y-88029299D01*
X139361403Y-88362632D02*
X139361403Y-89029299D01*
X139789974Y-88362632D02*
X139789974Y-88886441D01*
X139789974Y-88886441D02*
X139742355Y-88981680D01*
X139742355Y-88981680D02*
X139647117Y-89029299D01*
X139647117Y-89029299D02*
X139504260Y-89029299D01*
X139504260Y-89029299D02*
X139409022Y-88981680D01*
X139409022Y-88981680D02*
X139361403Y-88934060D01*
X139028069Y-88362632D02*
X138647117Y-88362632D01*
X138885212Y-88029299D02*
X138885212Y-88886441D01*
X138885212Y-88886441D02*
X138837593Y-88981680D01*
X138837593Y-88981680D02*
X138742355Y-89029299D01*
X138742355Y-89029299D02*
X138647117Y-89029299D01*
X138313783Y-88362632D02*
X138313783Y-89362632D01*
X138313783Y-88410251D02*
X138218545Y-88362632D01*
X138218545Y-88362632D02*
X138028069Y-88362632D01*
X138028069Y-88362632D02*
X137932831Y-88410251D01*
X137932831Y-88410251D02*
X137885212Y-88457870D01*
X137885212Y-88457870D02*
X137837593Y-88553108D01*
X137837593Y-88553108D02*
X137837593Y-88838822D01*
X137837593Y-88838822D02*
X137885212Y-88934060D01*
X137885212Y-88934060D02*
X137932831Y-88981680D01*
X137932831Y-88981680D02*
X138028069Y-89029299D01*
X138028069Y-89029299D02*
X138218545Y-89029299D01*
X138218545Y-89029299D02*
X138313783Y-88981680D01*
X136980450Y-88362632D02*
X136980450Y-89029299D01*
X137409021Y-88362632D02*
X137409021Y-88886441D01*
X137409021Y-88886441D02*
X137361402Y-88981680D01*
X137361402Y-88981680D02*
X137266164Y-89029299D01*
X137266164Y-89029299D02*
X137123307Y-89029299D01*
X137123307Y-89029299D02*
X137028069Y-88981680D01*
X137028069Y-88981680D02*
X136980450Y-88934060D01*
X136647116Y-88362632D02*
X136266164Y-88362632D01*
X136504259Y-88029299D02*
X136504259Y-88886441D01*
X136504259Y-88886441D02*
X136456640Y-88981680D01*
X136456640Y-88981680D02*
X136361402Y-89029299D01*
X136361402Y-89029299D02*
X136266164Y-89029299D01*
X134599497Y-88934060D02*
X134647116Y-88981680D01*
X134647116Y-88981680D02*
X134789973Y-89029299D01*
X134789973Y-89029299D02*
X134885211Y-89029299D01*
X134885211Y-89029299D02*
X135028068Y-88981680D01*
X135028068Y-88981680D02*
X135123306Y-88886441D01*
X135123306Y-88886441D02*
X135170925Y-88791203D01*
X135170925Y-88791203D02*
X135218544Y-88600727D01*
X135218544Y-88600727D02*
X135218544Y-88457870D01*
X135218544Y-88457870D02*
X135170925Y-88267394D01*
X135170925Y-88267394D02*
X135123306Y-88172156D01*
X135123306Y-88172156D02*
X135028068Y-88076918D01*
X135028068Y-88076918D02*
X134885211Y-88029299D01*
X134885211Y-88029299D02*
X134789973Y-88029299D01*
X134789973Y-88029299D02*
X134647116Y-88076918D01*
X134647116Y-88076918D02*
X134599497Y-88124537D01*
X133742354Y-88362632D02*
X133742354Y-89029299D01*
X134170925Y-88362632D02*
X134170925Y-88886441D01*
X134170925Y-88886441D02*
X134123306Y-88981680D01*
X134123306Y-88981680D02*
X134028068Y-89029299D01*
X134028068Y-89029299D02*
X133885211Y-89029299D01*
X133885211Y-89029299D02*
X133789973Y-88981680D01*
X133789973Y-88981680D02*
X133742354Y-88934060D01*
X133266163Y-89029299D02*
X133266163Y-88362632D01*
X133266163Y-88553108D02*
X133218544Y-88457870D01*
X133218544Y-88457870D02*
X133170925Y-88410251D01*
X133170925Y-88410251D02*
X133075687Y-88362632D01*
X133075687Y-88362632D02*
X132980449Y-88362632D01*
X132647115Y-89029299D02*
X132647115Y-88362632D01*
X132647115Y-88553108D02*
X132599496Y-88457870D01*
X132599496Y-88457870D02*
X132551877Y-88410251D01*
X132551877Y-88410251D02*
X132456639Y-88362632D01*
X132456639Y-88362632D02*
X132361401Y-88362632D01*
X131647115Y-88981680D02*
X131742353Y-89029299D01*
X131742353Y-89029299D02*
X131932829Y-89029299D01*
X131932829Y-89029299D02*
X132028067Y-88981680D01*
X132028067Y-88981680D02*
X132075686Y-88886441D01*
X132075686Y-88886441D02*
X132075686Y-88505489D01*
X132075686Y-88505489D02*
X132028067Y-88410251D01*
X132028067Y-88410251D02*
X131932829Y-88362632D01*
X131932829Y-88362632D02*
X131742353Y-88362632D01*
X131742353Y-88362632D02*
X131647115Y-88410251D01*
X131647115Y-88410251D02*
X131599496Y-88505489D01*
X131599496Y-88505489D02*
X131599496Y-88600727D01*
X131599496Y-88600727D02*
X132075686Y-88695965D01*
X131170924Y-88362632D02*
X131170924Y-89029299D01*
X131170924Y-88457870D02*
X131123305Y-88410251D01*
X131123305Y-88410251D02*
X131028067Y-88362632D01*
X131028067Y-88362632D02*
X130885210Y-88362632D01*
X130885210Y-88362632D02*
X130789972Y-88410251D01*
X130789972Y-88410251D02*
X130742353Y-88505489D01*
X130742353Y-88505489D02*
X130742353Y-89029299D01*
X130409019Y-88362632D02*
X130028067Y-88362632D01*
X130266162Y-88029299D02*
X130266162Y-88886441D01*
X130266162Y-88886441D02*
X130218543Y-88981680D01*
X130218543Y-88981680D02*
X130123305Y-89029299D01*
X130123305Y-89029299D02*
X130028067Y-89029299D01*
X129694733Y-88934060D02*
X129647114Y-88981680D01*
X129647114Y-88981680D02*
X129694733Y-89029299D01*
X129694733Y-89029299D02*
X129742352Y-88981680D01*
X129742352Y-88981680D02*
X129694733Y-88934060D01*
X129694733Y-88934060D02*
X129694733Y-89029299D01*
X129694733Y-88410251D02*
X129647114Y-88457870D01*
X129647114Y-88457870D02*
X129694733Y-88505489D01*
X129694733Y-88505489D02*
X129742352Y-88457870D01*
X129742352Y-88457870D02*
X129694733Y-88410251D01*
X129694733Y-88410251D02*
X129694733Y-88505489D01*
X128551876Y-88029299D02*
X127932829Y-88029299D01*
X127932829Y-88029299D02*
X128266162Y-88410251D01*
X128266162Y-88410251D02*
X128123305Y-88410251D01*
X128123305Y-88410251D02*
X128028067Y-88457870D01*
X128028067Y-88457870D02*
X127980448Y-88505489D01*
X127980448Y-88505489D02*
X127932829Y-88600727D01*
X127932829Y-88600727D02*
X127932829Y-88838822D01*
X127932829Y-88838822D02*
X127980448Y-88934060D01*
X127980448Y-88934060D02*
X128028067Y-88981680D01*
X128028067Y-88981680D02*
X128123305Y-89029299D01*
X128123305Y-89029299D02*
X128409019Y-89029299D01*
X128409019Y-89029299D02*
X128504257Y-88981680D01*
X128504257Y-88981680D02*
X128551876Y-88934060D01*
X127551876Y-88743584D02*
X127075686Y-88743584D01*
X127647114Y-89029299D02*
X127313781Y-88029299D01*
X127313781Y-88029299D02*
X126980448Y-89029299D01*
X144456641Y-92249299D02*
X144456641Y-91249299D01*
X144456641Y-91249299D02*
X144075689Y-91249299D01*
X144075689Y-91249299D02*
X143980451Y-91296918D01*
X143980451Y-91296918D02*
X143932832Y-91344537D01*
X143932832Y-91344537D02*
X143885213Y-91439775D01*
X143885213Y-91439775D02*
X143885213Y-91582632D01*
X143885213Y-91582632D02*
X143932832Y-91677870D01*
X143932832Y-91677870D02*
X143980451Y-91725489D01*
X143980451Y-91725489D02*
X144075689Y-91773108D01*
X144075689Y-91773108D02*
X144456641Y-91773108D01*
X143313784Y-92249299D02*
X143409022Y-92201680D01*
X143409022Y-92201680D02*
X143456641Y-92154060D01*
X143456641Y-92154060D02*
X143504260Y-92058822D01*
X143504260Y-92058822D02*
X143504260Y-91773108D01*
X143504260Y-91773108D02*
X143456641Y-91677870D01*
X143456641Y-91677870D02*
X143409022Y-91630251D01*
X143409022Y-91630251D02*
X143313784Y-91582632D01*
X143313784Y-91582632D02*
X143170927Y-91582632D01*
X143170927Y-91582632D02*
X143075689Y-91630251D01*
X143075689Y-91630251D02*
X143028070Y-91677870D01*
X143028070Y-91677870D02*
X142980451Y-91773108D01*
X142980451Y-91773108D02*
X142980451Y-92058822D01*
X142980451Y-92058822D02*
X143028070Y-92154060D01*
X143028070Y-92154060D02*
X143075689Y-92201680D01*
X143075689Y-92201680D02*
X143170927Y-92249299D01*
X143170927Y-92249299D02*
X143313784Y-92249299D01*
X142599498Y-92201680D02*
X142504260Y-92249299D01*
X142504260Y-92249299D02*
X142313784Y-92249299D01*
X142313784Y-92249299D02*
X142218546Y-92201680D01*
X142218546Y-92201680D02*
X142170927Y-92106441D01*
X142170927Y-92106441D02*
X142170927Y-92058822D01*
X142170927Y-92058822D02*
X142218546Y-91963584D01*
X142218546Y-91963584D02*
X142313784Y-91915965D01*
X142313784Y-91915965D02*
X142456641Y-91915965D01*
X142456641Y-91915965D02*
X142551879Y-91868346D01*
X142551879Y-91868346D02*
X142599498Y-91773108D01*
X142599498Y-91773108D02*
X142599498Y-91725489D01*
X142599498Y-91725489D02*
X142551879Y-91630251D01*
X142551879Y-91630251D02*
X142456641Y-91582632D01*
X142456641Y-91582632D02*
X142313784Y-91582632D01*
X142313784Y-91582632D02*
X142218546Y-91630251D01*
X141789974Y-92201680D02*
X141694736Y-92249299D01*
X141694736Y-92249299D02*
X141504260Y-92249299D01*
X141504260Y-92249299D02*
X141409022Y-92201680D01*
X141409022Y-92201680D02*
X141361403Y-92106441D01*
X141361403Y-92106441D02*
X141361403Y-92058822D01*
X141361403Y-92058822D02*
X141409022Y-91963584D01*
X141409022Y-91963584D02*
X141504260Y-91915965D01*
X141504260Y-91915965D02*
X141647117Y-91915965D01*
X141647117Y-91915965D02*
X141742355Y-91868346D01*
X141742355Y-91868346D02*
X141789974Y-91773108D01*
X141789974Y-91773108D02*
X141789974Y-91725489D01*
X141789974Y-91725489D02*
X141742355Y-91630251D01*
X141742355Y-91630251D02*
X141647117Y-91582632D01*
X141647117Y-91582632D02*
X141504260Y-91582632D01*
X141504260Y-91582632D02*
X141409022Y-91630251D01*
X140932831Y-92249299D02*
X140932831Y-91582632D01*
X140932831Y-91249299D02*
X140980450Y-91296918D01*
X140980450Y-91296918D02*
X140932831Y-91344537D01*
X140932831Y-91344537D02*
X140885212Y-91296918D01*
X140885212Y-91296918D02*
X140932831Y-91249299D01*
X140932831Y-91249299D02*
X140932831Y-91344537D01*
X140456641Y-92249299D02*
X140456641Y-91249299D01*
X140456641Y-91630251D02*
X140361403Y-91582632D01*
X140361403Y-91582632D02*
X140170927Y-91582632D01*
X140170927Y-91582632D02*
X140075689Y-91630251D01*
X140075689Y-91630251D02*
X140028070Y-91677870D01*
X140028070Y-91677870D02*
X139980451Y-91773108D01*
X139980451Y-91773108D02*
X139980451Y-92058822D01*
X139980451Y-92058822D02*
X140028070Y-92154060D01*
X140028070Y-92154060D02*
X140075689Y-92201680D01*
X140075689Y-92201680D02*
X140170927Y-92249299D01*
X140170927Y-92249299D02*
X140361403Y-92249299D01*
X140361403Y-92249299D02*
X140456641Y-92201680D01*
X139409022Y-92249299D02*
X139504260Y-92201680D01*
X139504260Y-92201680D02*
X139551879Y-92106441D01*
X139551879Y-92106441D02*
X139551879Y-91249299D01*
X138647117Y-92201680D02*
X138742355Y-92249299D01*
X138742355Y-92249299D02*
X138932831Y-92249299D01*
X138932831Y-92249299D02*
X139028069Y-92201680D01*
X139028069Y-92201680D02*
X139075688Y-92106441D01*
X139075688Y-92106441D02*
X139075688Y-91725489D01*
X139075688Y-91725489D02*
X139028069Y-91630251D01*
X139028069Y-91630251D02*
X138932831Y-91582632D01*
X138932831Y-91582632D02*
X138742355Y-91582632D01*
X138742355Y-91582632D02*
X138647117Y-91630251D01*
X138647117Y-91630251D02*
X138599498Y-91725489D01*
X138599498Y-91725489D02*
X138599498Y-91820727D01*
X138599498Y-91820727D02*
X139075688Y-91915965D01*
X136980450Y-92201680D02*
X137075688Y-92249299D01*
X137075688Y-92249299D02*
X137266164Y-92249299D01*
X137266164Y-92249299D02*
X137361402Y-92201680D01*
X137361402Y-92201680D02*
X137409021Y-92154060D01*
X137409021Y-92154060D02*
X137456640Y-92058822D01*
X137456640Y-92058822D02*
X137456640Y-91773108D01*
X137456640Y-91773108D02*
X137409021Y-91677870D01*
X137409021Y-91677870D02*
X137361402Y-91630251D01*
X137361402Y-91630251D02*
X137266164Y-91582632D01*
X137266164Y-91582632D02*
X137075688Y-91582632D01*
X137075688Y-91582632D02*
X136980450Y-91630251D01*
X136551878Y-92249299D02*
X136551878Y-91582632D01*
X136551878Y-91773108D02*
X136504259Y-91677870D01*
X136504259Y-91677870D02*
X136456640Y-91630251D01*
X136456640Y-91630251D02*
X136361402Y-91582632D01*
X136361402Y-91582632D02*
X136266164Y-91582632D01*
X135789973Y-92249299D02*
X135885211Y-92201680D01*
X135885211Y-92201680D02*
X135932830Y-92154060D01*
X135932830Y-92154060D02*
X135980449Y-92058822D01*
X135980449Y-92058822D02*
X135980449Y-91773108D01*
X135980449Y-91773108D02*
X135932830Y-91677870D01*
X135932830Y-91677870D02*
X135885211Y-91630251D01*
X135885211Y-91630251D02*
X135789973Y-91582632D01*
X135789973Y-91582632D02*
X135647116Y-91582632D01*
X135647116Y-91582632D02*
X135551878Y-91630251D01*
X135551878Y-91630251D02*
X135504259Y-91677870D01*
X135504259Y-91677870D02*
X135456640Y-91773108D01*
X135456640Y-91773108D02*
X135456640Y-92058822D01*
X135456640Y-92058822D02*
X135504259Y-92154060D01*
X135504259Y-92154060D02*
X135551878Y-92201680D01*
X135551878Y-92201680D02*
X135647116Y-92249299D01*
X135647116Y-92249299D02*
X135789973Y-92249299D01*
X135075687Y-92201680D02*
X134980449Y-92249299D01*
X134980449Y-92249299D02*
X134789973Y-92249299D01*
X134789973Y-92249299D02*
X134694735Y-92201680D01*
X134694735Y-92201680D02*
X134647116Y-92106441D01*
X134647116Y-92106441D02*
X134647116Y-92058822D01*
X134647116Y-92058822D02*
X134694735Y-91963584D01*
X134694735Y-91963584D02*
X134789973Y-91915965D01*
X134789973Y-91915965D02*
X134932830Y-91915965D01*
X134932830Y-91915965D02*
X135028068Y-91868346D01*
X135028068Y-91868346D02*
X135075687Y-91773108D01*
X135075687Y-91773108D02*
X135075687Y-91725489D01*
X135075687Y-91725489D02*
X135028068Y-91630251D01*
X135028068Y-91630251D02*
X134932830Y-91582632D01*
X134932830Y-91582632D02*
X134789973Y-91582632D01*
X134789973Y-91582632D02*
X134694735Y-91630251D01*
X134266163Y-92201680D02*
X134170925Y-92249299D01*
X134170925Y-92249299D02*
X133980449Y-92249299D01*
X133980449Y-92249299D02*
X133885211Y-92201680D01*
X133885211Y-92201680D02*
X133837592Y-92106441D01*
X133837592Y-92106441D02*
X133837592Y-92058822D01*
X133837592Y-92058822D02*
X133885211Y-91963584D01*
X133885211Y-91963584D02*
X133980449Y-91915965D01*
X133980449Y-91915965D02*
X134123306Y-91915965D01*
X134123306Y-91915965D02*
X134218544Y-91868346D01*
X134218544Y-91868346D02*
X134266163Y-91773108D01*
X134266163Y-91773108D02*
X134266163Y-91725489D01*
X134266163Y-91725489D02*
X134218544Y-91630251D01*
X134218544Y-91630251D02*
X134123306Y-91582632D01*
X134123306Y-91582632D02*
X133980449Y-91582632D01*
X133980449Y-91582632D02*
X133885211Y-91630251D01*
X133551877Y-91582632D02*
X133170925Y-91582632D01*
X133409020Y-91249299D02*
X133409020Y-92106441D01*
X133409020Y-92106441D02*
X133361401Y-92201680D01*
X133361401Y-92201680D02*
X133266163Y-92249299D01*
X133266163Y-92249299D02*
X133170925Y-92249299D01*
X132409020Y-92249299D02*
X132409020Y-91725489D01*
X132409020Y-91725489D02*
X132456639Y-91630251D01*
X132456639Y-91630251D02*
X132551877Y-91582632D01*
X132551877Y-91582632D02*
X132742353Y-91582632D01*
X132742353Y-91582632D02*
X132837591Y-91630251D01*
X132409020Y-92201680D02*
X132504258Y-92249299D01*
X132504258Y-92249299D02*
X132742353Y-92249299D01*
X132742353Y-92249299D02*
X132837591Y-92201680D01*
X132837591Y-92201680D02*
X132885210Y-92106441D01*
X132885210Y-92106441D02*
X132885210Y-92011203D01*
X132885210Y-92011203D02*
X132837591Y-91915965D01*
X132837591Y-91915965D02*
X132742353Y-91868346D01*
X132742353Y-91868346D02*
X132504258Y-91868346D01*
X132504258Y-91868346D02*
X132409020Y-91820727D01*
X131789972Y-92249299D02*
X131885210Y-92201680D01*
X131885210Y-92201680D02*
X131932829Y-92106441D01*
X131932829Y-92106441D02*
X131932829Y-91249299D01*
X131409019Y-92249299D02*
X131409019Y-91249299D01*
X131313781Y-91868346D02*
X131028067Y-92249299D01*
X131028067Y-91582632D02*
X131409019Y-91963584D01*
X129837590Y-92249299D02*
X129837590Y-91249299D01*
X129837590Y-91630251D02*
X129742352Y-91582632D01*
X129742352Y-91582632D02*
X129551876Y-91582632D01*
X129551876Y-91582632D02*
X129456638Y-91630251D01*
X129456638Y-91630251D02*
X129409019Y-91677870D01*
X129409019Y-91677870D02*
X129361400Y-91773108D01*
X129361400Y-91773108D02*
X129361400Y-92058822D01*
X129361400Y-92058822D02*
X129409019Y-92154060D01*
X129409019Y-92154060D02*
X129456638Y-92201680D01*
X129456638Y-92201680D02*
X129551876Y-92249299D01*
X129551876Y-92249299D02*
X129742352Y-92249299D01*
X129742352Y-92249299D02*
X129837590Y-92201680D01*
X128551876Y-92201680D02*
X128647114Y-92249299D01*
X128647114Y-92249299D02*
X128837590Y-92249299D01*
X128837590Y-92249299D02*
X128932828Y-92201680D01*
X128932828Y-92201680D02*
X128980447Y-92106441D01*
X128980447Y-92106441D02*
X128980447Y-91725489D01*
X128980447Y-91725489D02*
X128932828Y-91630251D01*
X128932828Y-91630251D02*
X128837590Y-91582632D01*
X128837590Y-91582632D02*
X128647114Y-91582632D01*
X128647114Y-91582632D02*
X128551876Y-91630251D01*
X128551876Y-91630251D02*
X128504257Y-91725489D01*
X128504257Y-91725489D02*
X128504257Y-91820727D01*
X128504257Y-91820727D02*
X128980447Y-91915965D01*
X128218542Y-91582632D02*
X127837590Y-91582632D01*
X128075685Y-91249299D02*
X128075685Y-92106441D01*
X128075685Y-92106441D02*
X128028066Y-92201680D01*
X128028066Y-92201680D02*
X127932828Y-92249299D01*
X127932828Y-92249299D02*
X127837590Y-92249299D01*
X127599494Y-91582632D02*
X127409018Y-92249299D01*
X127409018Y-92249299D02*
X127218542Y-91773108D01*
X127218542Y-91773108D02*
X127028066Y-92249299D01*
X127028066Y-92249299D02*
X126837590Y-91582632D01*
X126075685Y-92201680D02*
X126170923Y-92249299D01*
X126170923Y-92249299D02*
X126361399Y-92249299D01*
X126361399Y-92249299D02*
X126456637Y-92201680D01*
X126456637Y-92201680D02*
X126504256Y-92106441D01*
X126504256Y-92106441D02*
X126504256Y-91725489D01*
X126504256Y-91725489D02*
X126456637Y-91630251D01*
X126456637Y-91630251D02*
X126361399Y-91582632D01*
X126361399Y-91582632D02*
X126170923Y-91582632D01*
X126170923Y-91582632D02*
X126075685Y-91630251D01*
X126075685Y-91630251D02*
X126028066Y-91725489D01*
X126028066Y-91725489D02*
X126028066Y-91820727D01*
X126028066Y-91820727D02*
X126504256Y-91915965D01*
X125218542Y-92201680D02*
X125313780Y-92249299D01*
X125313780Y-92249299D02*
X125504256Y-92249299D01*
X125504256Y-92249299D02*
X125599494Y-92201680D01*
X125599494Y-92201680D02*
X125647113Y-92106441D01*
X125647113Y-92106441D02*
X125647113Y-91725489D01*
X125647113Y-91725489D02*
X125599494Y-91630251D01*
X125599494Y-91630251D02*
X125504256Y-91582632D01*
X125504256Y-91582632D02*
X125313780Y-91582632D01*
X125313780Y-91582632D02*
X125218542Y-91630251D01*
X125218542Y-91630251D02*
X125170923Y-91725489D01*
X125170923Y-91725489D02*
X125170923Y-91820727D01*
X125170923Y-91820727D02*
X125647113Y-91915965D01*
X124742351Y-91582632D02*
X124742351Y-92249299D01*
X124742351Y-91677870D02*
X124694732Y-91630251D01*
X124694732Y-91630251D02*
X124599494Y-91582632D01*
X124599494Y-91582632D02*
X124456637Y-91582632D01*
X124456637Y-91582632D02*
X124361399Y-91630251D01*
X124361399Y-91630251D02*
X124313780Y-91725489D01*
X124313780Y-91725489D02*
X124313780Y-92249299D01*
X123075684Y-92249299D02*
X123075684Y-91249299D01*
X122409018Y-91249299D02*
X122218542Y-91249299D01*
X122218542Y-91249299D02*
X122123304Y-91296918D01*
X122123304Y-91296918D02*
X122028066Y-91392156D01*
X122028066Y-91392156D02*
X121980447Y-91582632D01*
X121980447Y-91582632D02*
X121980447Y-91915965D01*
X121980447Y-91915965D02*
X122028066Y-92106441D01*
X122028066Y-92106441D02*
X122123304Y-92201680D01*
X122123304Y-92201680D02*
X122218542Y-92249299D01*
X122218542Y-92249299D02*
X122409018Y-92249299D01*
X122409018Y-92249299D02*
X122504256Y-92201680D01*
X122504256Y-92201680D02*
X122599494Y-92106441D01*
X122599494Y-92106441D02*
X122647113Y-91915965D01*
X122647113Y-91915965D02*
X122647113Y-91582632D01*
X122647113Y-91582632D02*
X122599494Y-91392156D01*
X122599494Y-91392156D02*
X122504256Y-91296918D01*
X122504256Y-91296918D02*
X122409018Y-91249299D01*
X144456641Y-93859299D02*
X144456641Y-92859299D01*
X144456641Y-92859299D02*
X143885213Y-93859299D01*
X143885213Y-93859299D02*
X143885213Y-92859299D01*
X143266165Y-93859299D02*
X143361403Y-93811680D01*
X143361403Y-93811680D02*
X143409022Y-93764060D01*
X143409022Y-93764060D02*
X143456641Y-93668822D01*
X143456641Y-93668822D02*
X143456641Y-93383108D01*
X143456641Y-93383108D02*
X143409022Y-93287870D01*
X143409022Y-93287870D02*
X143361403Y-93240251D01*
X143361403Y-93240251D02*
X143266165Y-93192632D01*
X143266165Y-93192632D02*
X143123308Y-93192632D01*
X143123308Y-93192632D02*
X143028070Y-93240251D01*
X143028070Y-93240251D02*
X142980451Y-93287870D01*
X142980451Y-93287870D02*
X142932832Y-93383108D01*
X142932832Y-93383108D02*
X142932832Y-93668822D01*
X142932832Y-93668822D02*
X142980451Y-93764060D01*
X142980451Y-93764060D02*
X143028070Y-93811680D01*
X143028070Y-93811680D02*
X143123308Y-93859299D01*
X143123308Y-93859299D02*
X143266165Y-93859299D01*
X142647117Y-93192632D02*
X142266165Y-93192632D01*
X142504260Y-92859299D02*
X142504260Y-93716441D01*
X142504260Y-93716441D02*
X142456641Y-93811680D01*
X142456641Y-93811680D02*
X142361403Y-93859299D01*
X142361403Y-93859299D02*
X142266165Y-93859299D01*
X141170926Y-93859299D02*
X141170926Y-93192632D01*
X141170926Y-93383108D02*
X141123307Y-93287870D01*
X141123307Y-93287870D02*
X141075688Y-93240251D01*
X141075688Y-93240251D02*
X140980450Y-93192632D01*
X140980450Y-93192632D02*
X140885212Y-93192632D01*
X140170926Y-93811680D02*
X140266164Y-93859299D01*
X140266164Y-93859299D02*
X140456640Y-93859299D01*
X140456640Y-93859299D02*
X140551878Y-93811680D01*
X140551878Y-93811680D02*
X140599497Y-93716441D01*
X140599497Y-93716441D02*
X140599497Y-93335489D01*
X140599497Y-93335489D02*
X140551878Y-93240251D01*
X140551878Y-93240251D02*
X140456640Y-93192632D01*
X140456640Y-93192632D02*
X140266164Y-93192632D01*
X140266164Y-93192632D02*
X140170926Y-93240251D01*
X140170926Y-93240251D02*
X140123307Y-93335489D01*
X140123307Y-93335489D02*
X140123307Y-93430727D01*
X140123307Y-93430727D02*
X140599497Y-93525965D01*
X139266164Y-93811680D02*
X139361402Y-93859299D01*
X139361402Y-93859299D02*
X139551878Y-93859299D01*
X139551878Y-93859299D02*
X139647116Y-93811680D01*
X139647116Y-93811680D02*
X139694735Y-93764060D01*
X139694735Y-93764060D02*
X139742354Y-93668822D01*
X139742354Y-93668822D02*
X139742354Y-93383108D01*
X139742354Y-93383108D02*
X139694735Y-93287870D01*
X139694735Y-93287870D02*
X139647116Y-93240251D01*
X139647116Y-93240251D02*
X139551878Y-93192632D01*
X139551878Y-93192632D02*
X139361402Y-93192632D01*
X139361402Y-93192632D02*
X139266164Y-93240251D01*
X138694735Y-93859299D02*
X138789973Y-93811680D01*
X138789973Y-93811680D02*
X138837592Y-93764060D01*
X138837592Y-93764060D02*
X138885211Y-93668822D01*
X138885211Y-93668822D02*
X138885211Y-93383108D01*
X138885211Y-93383108D02*
X138837592Y-93287870D01*
X138837592Y-93287870D02*
X138789973Y-93240251D01*
X138789973Y-93240251D02*
X138694735Y-93192632D01*
X138694735Y-93192632D02*
X138551878Y-93192632D01*
X138551878Y-93192632D02*
X138456640Y-93240251D01*
X138456640Y-93240251D02*
X138409021Y-93287870D01*
X138409021Y-93287870D02*
X138361402Y-93383108D01*
X138361402Y-93383108D02*
X138361402Y-93668822D01*
X138361402Y-93668822D02*
X138409021Y-93764060D01*
X138409021Y-93764060D02*
X138456640Y-93811680D01*
X138456640Y-93811680D02*
X138551878Y-93859299D01*
X138551878Y-93859299D02*
X138694735Y-93859299D01*
X137932830Y-93859299D02*
X137932830Y-93192632D01*
X137932830Y-93287870D02*
X137885211Y-93240251D01*
X137885211Y-93240251D02*
X137789973Y-93192632D01*
X137789973Y-93192632D02*
X137647116Y-93192632D01*
X137647116Y-93192632D02*
X137551878Y-93240251D01*
X137551878Y-93240251D02*
X137504259Y-93335489D01*
X137504259Y-93335489D02*
X137504259Y-93859299D01*
X137504259Y-93335489D02*
X137456640Y-93240251D01*
X137456640Y-93240251D02*
X137361402Y-93192632D01*
X137361402Y-93192632D02*
X137218545Y-93192632D01*
X137218545Y-93192632D02*
X137123306Y-93240251D01*
X137123306Y-93240251D02*
X137075687Y-93335489D01*
X137075687Y-93335489D02*
X137075687Y-93859299D01*
X136599497Y-93859299D02*
X136599497Y-93192632D01*
X136599497Y-93287870D02*
X136551878Y-93240251D01*
X136551878Y-93240251D02*
X136456640Y-93192632D01*
X136456640Y-93192632D02*
X136313783Y-93192632D01*
X136313783Y-93192632D02*
X136218545Y-93240251D01*
X136218545Y-93240251D02*
X136170926Y-93335489D01*
X136170926Y-93335489D02*
X136170926Y-93859299D01*
X136170926Y-93335489D02*
X136123307Y-93240251D01*
X136123307Y-93240251D02*
X136028069Y-93192632D01*
X136028069Y-93192632D02*
X135885212Y-93192632D01*
X135885212Y-93192632D02*
X135789973Y-93240251D01*
X135789973Y-93240251D02*
X135742354Y-93335489D01*
X135742354Y-93335489D02*
X135742354Y-93859299D01*
X134885212Y-93811680D02*
X134980450Y-93859299D01*
X134980450Y-93859299D02*
X135170926Y-93859299D01*
X135170926Y-93859299D02*
X135266164Y-93811680D01*
X135266164Y-93811680D02*
X135313783Y-93716441D01*
X135313783Y-93716441D02*
X135313783Y-93335489D01*
X135313783Y-93335489D02*
X135266164Y-93240251D01*
X135266164Y-93240251D02*
X135170926Y-93192632D01*
X135170926Y-93192632D02*
X134980450Y-93192632D01*
X134980450Y-93192632D02*
X134885212Y-93240251D01*
X134885212Y-93240251D02*
X134837593Y-93335489D01*
X134837593Y-93335489D02*
X134837593Y-93430727D01*
X134837593Y-93430727D02*
X135313783Y-93525965D01*
X134409021Y-93192632D02*
X134409021Y-93859299D01*
X134409021Y-93287870D02*
X134361402Y-93240251D01*
X134361402Y-93240251D02*
X134266164Y-93192632D01*
X134266164Y-93192632D02*
X134123307Y-93192632D01*
X134123307Y-93192632D02*
X134028069Y-93240251D01*
X134028069Y-93240251D02*
X133980450Y-93335489D01*
X133980450Y-93335489D02*
X133980450Y-93859299D01*
X133075688Y-93859299D02*
X133075688Y-92859299D01*
X133075688Y-93811680D02*
X133170926Y-93859299D01*
X133170926Y-93859299D02*
X133361402Y-93859299D01*
X133361402Y-93859299D02*
X133456640Y-93811680D01*
X133456640Y-93811680D02*
X133504259Y-93764060D01*
X133504259Y-93764060D02*
X133551878Y-93668822D01*
X133551878Y-93668822D02*
X133551878Y-93383108D01*
X133551878Y-93383108D02*
X133504259Y-93287870D01*
X133504259Y-93287870D02*
X133456640Y-93240251D01*
X133456640Y-93240251D02*
X133361402Y-93192632D01*
X133361402Y-93192632D02*
X133170926Y-93192632D01*
X133170926Y-93192632D02*
X133075688Y-93240251D01*
X132218545Y-93811680D02*
X132313783Y-93859299D01*
X132313783Y-93859299D02*
X132504259Y-93859299D01*
X132504259Y-93859299D02*
X132599497Y-93811680D01*
X132599497Y-93811680D02*
X132647116Y-93716441D01*
X132647116Y-93716441D02*
X132647116Y-93335489D01*
X132647116Y-93335489D02*
X132599497Y-93240251D01*
X132599497Y-93240251D02*
X132504259Y-93192632D01*
X132504259Y-93192632D02*
X132313783Y-93192632D01*
X132313783Y-93192632D02*
X132218545Y-93240251D01*
X132218545Y-93240251D02*
X132170926Y-93335489D01*
X132170926Y-93335489D02*
X132170926Y-93430727D01*
X132170926Y-93430727D02*
X132647116Y-93525965D01*
X131313783Y-93859299D02*
X131313783Y-92859299D01*
X131313783Y-93811680D02*
X131409021Y-93859299D01*
X131409021Y-93859299D02*
X131599497Y-93859299D01*
X131599497Y-93859299D02*
X131694735Y-93811680D01*
X131694735Y-93811680D02*
X131742354Y-93764060D01*
X131742354Y-93764060D02*
X131789973Y-93668822D01*
X131789973Y-93668822D02*
X131789973Y-93383108D01*
X131789973Y-93383108D02*
X131742354Y-93287870D01*
X131742354Y-93287870D02*
X131694735Y-93240251D01*
X131694735Y-93240251D02*
X131599497Y-93192632D01*
X131599497Y-93192632D02*
X131409021Y-93192632D01*
X131409021Y-93192632D02*
X131313783Y-93240251D01*
X130218544Y-93192632D02*
X129837592Y-93192632D01*
X130075687Y-93859299D02*
X130075687Y-93002156D01*
X130075687Y-93002156D02*
X130028068Y-92906918D01*
X130028068Y-92906918D02*
X129932830Y-92859299D01*
X129932830Y-92859299D02*
X129837592Y-92859299D01*
X129361401Y-93859299D02*
X129456639Y-93811680D01*
X129456639Y-93811680D02*
X129504258Y-93764060D01*
X129504258Y-93764060D02*
X129551877Y-93668822D01*
X129551877Y-93668822D02*
X129551877Y-93383108D01*
X129551877Y-93383108D02*
X129504258Y-93287870D01*
X129504258Y-93287870D02*
X129456639Y-93240251D01*
X129456639Y-93240251D02*
X129361401Y-93192632D01*
X129361401Y-93192632D02*
X129218544Y-93192632D01*
X129218544Y-93192632D02*
X129123306Y-93240251D01*
X129123306Y-93240251D02*
X129075687Y-93287870D01*
X129075687Y-93287870D02*
X129028068Y-93383108D01*
X129028068Y-93383108D02*
X129028068Y-93668822D01*
X129028068Y-93668822D02*
X129075687Y-93764060D01*
X129075687Y-93764060D02*
X129123306Y-93811680D01*
X129123306Y-93811680D02*
X129218544Y-93859299D01*
X129218544Y-93859299D02*
X129361401Y-93859299D01*
X128599496Y-93859299D02*
X128599496Y-93192632D01*
X128599496Y-93383108D02*
X128551877Y-93287870D01*
X128551877Y-93287870D02*
X128504258Y-93240251D01*
X128504258Y-93240251D02*
X128409020Y-93192632D01*
X128409020Y-93192632D02*
X128313782Y-93192632D01*
X144456641Y-95469299D02*
X144456641Y-94469299D01*
X144456641Y-94945489D02*
X143885213Y-94945489D01*
X143885213Y-95469299D02*
X143885213Y-94469299D01*
X143409022Y-95469299D02*
X143409022Y-94802632D01*
X143409022Y-94469299D02*
X143456641Y-94516918D01*
X143456641Y-94516918D02*
X143409022Y-94564537D01*
X143409022Y-94564537D02*
X143361403Y-94516918D01*
X143361403Y-94516918D02*
X143409022Y-94469299D01*
X143409022Y-94469299D02*
X143409022Y-94564537D01*
X142504261Y-94802632D02*
X142504261Y-95612156D01*
X142504261Y-95612156D02*
X142551880Y-95707394D01*
X142551880Y-95707394D02*
X142599499Y-95755013D01*
X142599499Y-95755013D02*
X142694737Y-95802632D01*
X142694737Y-95802632D02*
X142837594Y-95802632D01*
X142837594Y-95802632D02*
X142932832Y-95755013D01*
X142504261Y-95421680D02*
X142599499Y-95469299D01*
X142599499Y-95469299D02*
X142789975Y-95469299D01*
X142789975Y-95469299D02*
X142885213Y-95421680D01*
X142885213Y-95421680D02*
X142932832Y-95374060D01*
X142932832Y-95374060D02*
X142980451Y-95278822D01*
X142980451Y-95278822D02*
X142980451Y-94993108D01*
X142980451Y-94993108D02*
X142932832Y-94897870D01*
X142932832Y-94897870D02*
X142885213Y-94850251D01*
X142885213Y-94850251D02*
X142789975Y-94802632D01*
X142789975Y-94802632D02*
X142599499Y-94802632D01*
X142599499Y-94802632D02*
X142504261Y-94850251D01*
X142028070Y-95469299D02*
X142028070Y-94469299D01*
X141599499Y-95469299D02*
X141599499Y-94945489D01*
X141599499Y-94945489D02*
X141647118Y-94850251D01*
X141647118Y-94850251D02*
X141742356Y-94802632D01*
X141742356Y-94802632D02*
X141885213Y-94802632D01*
X141885213Y-94802632D02*
X141980451Y-94850251D01*
X141980451Y-94850251D02*
X142028070Y-94897870D01*
X141123308Y-95088346D02*
X140361404Y-95088346D01*
X139932832Y-95421680D02*
X139837594Y-95469299D01*
X139837594Y-95469299D02*
X139647118Y-95469299D01*
X139647118Y-95469299D02*
X139551880Y-95421680D01*
X139551880Y-95421680D02*
X139504261Y-95326441D01*
X139504261Y-95326441D02*
X139504261Y-95278822D01*
X139504261Y-95278822D02*
X139551880Y-95183584D01*
X139551880Y-95183584D02*
X139647118Y-95135965D01*
X139647118Y-95135965D02*
X139789975Y-95135965D01*
X139789975Y-95135965D02*
X139885213Y-95088346D01*
X139885213Y-95088346D02*
X139932832Y-94993108D01*
X139932832Y-94993108D02*
X139932832Y-94945489D01*
X139932832Y-94945489D02*
X139885213Y-94850251D01*
X139885213Y-94850251D02*
X139789975Y-94802632D01*
X139789975Y-94802632D02*
X139647118Y-94802632D01*
X139647118Y-94802632D02*
X139551880Y-94850251D01*
X139075689Y-94802632D02*
X139075689Y-95802632D01*
X139075689Y-94850251D02*
X138980451Y-94802632D01*
X138980451Y-94802632D02*
X138789975Y-94802632D01*
X138789975Y-94802632D02*
X138694737Y-94850251D01*
X138694737Y-94850251D02*
X138647118Y-94897870D01*
X138647118Y-94897870D02*
X138599499Y-94993108D01*
X138599499Y-94993108D02*
X138599499Y-95278822D01*
X138599499Y-95278822D02*
X138647118Y-95374060D01*
X138647118Y-95374060D02*
X138694737Y-95421680D01*
X138694737Y-95421680D02*
X138789975Y-95469299D01*
X138789975Y-95469299D02*
X138980451Y-95469299D01*
X138980451Y-95469299D02*
X139075689Y-95421680D01*
X137789975Y-95421680D02*
X137885213Y-95469299D01*
X137885213Y-95469299D02*
X138075689Y-95469299D01*
X138075689Y-95469299D02*
X138170927Y-95421680D01*
X138170927Y-95421680D02*
X138218546Y-95326441D01*
X138218546Y-95326441D02*
X138218546Y-94945489D01*
X138218546Y-94945489D02*
X138170927Y-94850251D01*
X138170927Y-94850251D02*
X138075689Y-94802632D01*
X138075689Y-94802632D02*
X137885213Y-94802632D01*
X137885213Y-94802632D02*
X137789975Y-94850251D01*
X137789975Y-94850251D02*
X137742356Y-94945489D01*
X137742356Y-94945489D02*
X137742356Y-95040727D01*
X137742356Y-95040727D02*
X138218546Y-95135965D01*
X136932832Y-95421680D02*
X137028070Y-95469299D01*
X137028070Y-95469299D02*
X137218546Y-95469299D01*
X137218546Y-95469299D02*
X137313784Y-95421680D01*
X137313784Y-95421680D02*
X137361403Y-95326441D01*
X137361403Y-95326441D02*
X137361403Y-94945489D01*
X137361403Y-94945489D02*
X137313784Y-94850251D01*
X137313784Y-94850251D02*
X137218546Y-94802632D01*
X137218546Y-94802632D02*
X137028070Y-94802632D01*
X137028070Y-94802632D02*
X136932832Y-94850251D01*
X136932832Y-94850251D02*
X136885213Y-94945489D01*
X136885213Y-94945489D02*
X136885213Y-95040727D01*
X136885213Y-95040727D02*
X137361403Y-95135965D01*
X136028070Y-95469299D02*
X136028070Y-94469299D01*
X136028070Y-95421680D02*
X136123308Y-95469299D01*
X136123308Y-95469299D02*
X136313784Y-95469299D01*
X136313784Y-95469299D02*
X136409022Y-95421680D01*
X136409022Y-95421680D02*
X136456641Y-95374060D01*
X136456641Y-95374060D02*
X136504260Y-95278822D01*
X136504260Y-95278822D02*
X136504260Y-94993108D01*
X136504260Y-94993108D02*
X136456641Y-94897870D01*
X136456641Y-94897870D02*
X136409022Y-94850251D01*
X136409022Y-94850251D02*
X136313784Y-94802632D01*
X136313784Y-94802632D02*
X136123308Y-94802632D01*
X136123308Y-94802632D02*
X136028070Y-94850251D01*
X134361403Y-95421680D02*
X134456641Y-95469299D01*
X134456641Y-95469299D02*
X134647117Y-95469299D01*
X134647117Y-95469299D02*
X134742355Y-95421680D01*
X134742355Y-95421680D02*
X134789974Y-95374060D01*
X134789974Y-95374060D02*
X134837593Y-95278822D01*
X134837593Y-95278822D02*
X134837593Y-94993108D01*
X134837593Y-94993108D02*
X134789974Y-94897870D01*
X134789974Y-94897870D02*
X134742355Y-94850251D01*
X134742355Y-94850251D02*
X134647117Y-94802632D01*
X134647117Y-94802632D02*
X134456641Y-94802632D01*
X134456641Y-94802632D02*
X134361403Y-94850251D01*
X133789974Y-95469299D02*
X133885212Y-95421680D01*
X133885212Y-95421680D02*
X133932831Y-95374060D01*
X133932831Y-95374060D02*
X133980450Y-95278822D01*
X133980450Y-95278822D02*
X133980450Y-94993108D01*
X133980450Y-94993108D02*
X133932831Y-94897870D01*
X133932831Y-94897870D02*
X133885212Y-94850251D01*
X133885212Y-94850251D02*
X133789974Y-94802632D01*
X133789974Y-94802632D02*
X133647117Y-94802632D01*
X133647117Y-94802632D02*
X133551879Y-94850251D01*
X133551879Y-94850251D02*
X133504260Y-94897870D01*
X133504260Y-94897870D02*
X133456641Y-94993108D01*
X133456641Y-94993108D02*
X133456641Y-95278822D01*
X133456641Y-95278822D02*
X133504260Y-95374060D01*
X133504260Y-95374060D02*
X133551879Y-95421680D01*
X133551879Y-95421680D02*
X133647117Y-95469299D01*
X133647117Y-95469299D02*
X133789974Y-95469299D01*
X133028069Y-95469299D02*
X133028069Y-94802632D01*
X133028069Y-94897870D02*
X132980450Y-94850251D01*
X132980450Y-94850251D02*
X132885212Y-94802632D01*
X132885212Y-94802632D02*
X132742355Y-94802632D01*
X132742355Y-94802632D02*
X132647117Y-94850251D01*
X132647117Y-94850251D02*
X132599498Y-94945489D01*
X132599498Y-94945489D02*
X132599498Y-95469299D01*
X132599498Y-94945489D02*
X132551879Y-94850251D01*
X132551879Y-94850251D02*
X132456641Y-94802632D01*
X132456641Y-94802632D02*
X132313784Y-94802632D01*
X132313784Y-94802632D02*
X132218545Y-94850251D01*
X132218545Y-94850251D02*
X132170926Y-94945489D01*
X132170926Y-94945489D02*
X132170926Y-95469299D01*
X131742355Y-95421680D02*
X131647117Y-95469299D01*
X131647117Y-95469299D02*
X131456641Y-95469299D01*
X131456641Y-95469299D02*
X131361403Y-95421680D01*
X131361403Y-95421680D02*
X131313784Y-95326441D01*
X131313784Y-95326441D02*
X131313784Y-95278822D01*
X131313784Y-95278822D02*
X131361403Y-95183584D01*
X131361403Y-95183584D02*
X131456641Y-95135965D01*
X131456641Y-95135965D02*
X131599498Y-95135965D01*
X131599498Y-95135965D02*
X131694736Y-95088346D01*
X131694736Y-95088346D02*
X131742355Y-94993108D01*
X131742355Y-94993108D02*
X131742355Y-94945489D01*
X131742355Y-94945489D02*
X131694736Y-94850251D01*
X131694736Y-94850251D02*
X131599498Y-94802632D01*
X131599498Y-94802632D02*
X131456641Y-94802632D01*
X131456641Y-94802632D02*
X131361403Y-94850251D01*
X199833333Y-70954299D02*
X199833333Y-71668584D01*
X199833333Y-71668584D02*
X199880952Y-71811441D01*
X199880952Y-71811441D02*
X199976190Y-71906680D01*
X199976190Y-71906680D02*
X200119047Y-71954299D01*
X200119047Y-71954299D02*
X200214285Y-71954299D01*
X198928571Y-70954299D02*
X199119047Y-70954299D01*
X199119047Y-70954299D02*
X199214285Y-71001918D01*
X199214285Y-71001918D02*
X199261904Y-71049537D01*
X199261904Y-71049537D02*
X199357142Y-71192394D01*
X199357142Y-71192394D02*
X199404761Y-71382870D01*
X199404761Y-71382870D02*
X199404761Y-71763822D01*
X199404761Y-71763822D02*
X199357142Y-71859060D01*
X199357142Y-71859060D02*
X199309523Y-71906680D01*
X199309523Y-71906680D02*
X199214285Y-71954299D01*
X199214285Y-71954299D02*
X199023809Y-71954299D01*
X199023809Y-71954299D02*
X198928571Y-71906680D01*
X198928571Y-71906680D02*
X198880952Y-71859060D01*
X198880952Y-71859060D02*
X198833333Y-71763822D01*
X198833333Y-71763822D02*
X198833333Y-71525727D01*
X198833333Y-71525727D02*
X198880952Y-71430489D01*
X198880952Y-71430489D02*
X198928571Y-71382870D01*
X198928571Y-71382870D02*
X199023809Y-71335251D01*
X199023809Y-71335251D02*
X199214285Y-71335251D01*
X199214285Y-71335251D02*
X199309523Y-71382870D01*
X199309523Y-71382870D02*
X199357142Y-71430489D01*
X199357142Y-71430489D02*
X199404761Y-71525727D01*
X214383333Y-88704299D02*
X214383333Y-89418584D01*
X214383333Y-89418584D02*
X214430952Y-89561441D01*
X214430952Y-89561441D02*
X214526190Y-89656680D01*
X214526190Y-89656680D02*
X214669047Y-89704299D01*
X214669047Y-89704299D02*
X214764285Y-89704299D01*
X213764285Y-89132870D02*
X213859523Y-89085251D01*
X213859523Y-89085251D02*
X213907142Y-89037632D01*
X213907142Y-89037632D02*
X213954761Y-88942394D01*
X213954761Y-88942394D02*
X213954761Y-88894775D01*
X213954761Y-88894775D02*
X213907142Y-88799537D01*
X213907142Y-88799537D02*
X213859523Y-88751918D01*
X213859523Y-88751918D02*
X213764285Y-88704299D01*
X213764285Y-88704299D02*
X213573809Y-88704299D01*
X213573809Y-88704299D02*
X213478571Y-88751918D01*
X213478571Y-88751918D02*
X213430952Y-88799537D01*
X213430952Y-88799537D02*
X213383333Y-88894775D01*
X213383333Y-88894775D02*
X213383333Y-88942394D01*
X213383333Y-88942394D02*
X213430952Y-89037632D01*
X213430952Y-89037632D02*
X213478571Y-89085251D01*
X213478571Y-89085251D02*
X213573809Y-89132870D01*
X213573809Y-89132870D02*
X213764285Y-89132870D01*
X213764285Y-89132870D02*
X213859523Y-89180489D01*
X213859523Y-89180489D02*
X213907142Y-89228108D01*
X213907142Y-89228108D02*
X213954761Y-89323346D01*
X213954761Y-89323346D02*
X213954761Y-89513822D01*
X213954761Y-89513822D02*
X213907142Y-89609060D01*
X213907142Y-89609060D02*
X213859523Y-89656680D01*
X213859523Y-89656680D02*
X213764285Y-89704299D01*
X213764285Y-89704299D02*
X213573809Y-89704299D01*
X213573809Y-89704299D02*
X213478571Y-89656680D01*
X213478571Y-89656680D02*
X213430952Y-89609060D01*
X213430952Y-89609060D02*
X213383333Y-89513822D01*
X213383333Y-89513822D02*
X213383333Y-89323346D01*
X213383333Y-89323346D02*
X213430952Y-89228108D01*
X213430952Y-89228108D02*
X213478571Y-89180489D01*
X213478571Y-89180489D02*
X213573809Y-89132870D01*
G36*
X112643072Y-94398497D02*
G01*
X112852171Y-94398872D01*
X113003127Y-94400771D01*
X113105894Y-94405439D01*
X113170429Y-94414119D01*
X113206686Y-94428056D01*
X113224620Y-94448494D01*
X113234187Y-94476676D01*
X113237329Y-94488508D01*
X113257517Y-94590529D01*
X113242591Y-94647069D01*
X113181174Y-94671319D01*
X113061890Y-94676471D01*
X112867693Y-94676471D01*
X112886792Y-94813016D01*
X112888062Y-94821711D01*
X112907662Y-94928796D01*
X112938230Y-95071452D01*
X112973722Y-95221292D01*
X112977263Y-95235550D01*
X113013382Y-95388440D01*
X113044779Y-95533366D01*
X113065007Y-95640698D01*
X113088461Y-95788373D01*
X112913247Y-95788373D01*
X112738032Y-95788373D01*
X112716155Y-95658072D01*
X112714180Y-95646671D01*
X112693461Y-95541274D01*
X112663048Y-95399887D01*
X112628781Y-95249795D01*
X112624643Y-95232159D01*
X112589176Y-95075855D01*
X112557201Y-94926932D01*
X112535196Y-94815459D01*
X112507108Y-94659098D01*
X112299587Y-94648503D01*
X112248250Y-94645709D01*
X112141556Y-94635113D01*
X112080693Y-94612907D01*
X112048145Y-94569187D01*
X112026396Y-94494050D01*
X112003874Y-94398496D01*
X112608554Y-94398496D01*
X112643072Y-94398497D01*
G37*
G36*
X112034003Y-95260502D02*
G01*
X112011552Y-95446793D01*
X111937211Y-95602001D01*
X111813035Y-95719042D01*
X111641082Y-95790832D01*
X111441611Y-95817068D01*
X111211123Y-95790584D01*
X111003571Y-95704080D01*
X110826761Y-95562467D01*
X110688502Y-95370660D01*
X110596601Y-95133572D01*
X110569424Y-95018785D01*
X110565366Y-94984880D01*
X110949009Y-94984880D01*
X110963674Y-95138123D01*
X111026458Y-95318262D01*
X111141910Y-95462533D01*
X111217942Y-95516149D01*
X111360702Y-95554734D01*
X111510607Y-95526255D01*
X111537818Y-95513811D01*
X111610899Y-95457918D01*
X111647602Y-95372347D01*
X111657535Y-95238267D01*
X111642153Y-95078836D01*
X111582982Y-94902397D01*
X111486334Y-94764155D01*
X111359606Y-94673976D01*
X111210195Y-94641724D01*
X111098825Y-94656298D01*
X111010068Y-94713984D01*
X110961713Y-94821430D01*
X110949009Y-94984880D01*
X110565366Y-94984880D01*
X110558553Y-94927949D01*
X110568117Y-94846693D01*
X110598244Y-94745074D01*
X110626408Y-94671340D01*
X110707770Y-94543337D01*
X110826540Y-94456757D01*
X110997940Y-94398399D01*
X111196664Y-94377653D01*
X111416904Y-94413483D01*
X111620163Y-94505562D01*
X111792365Y-94647267D01*
X111919433Y-94831975D01*
X112002507Y-95050213D01*
X112030673Y-95238267D01*
X112034003Y-95260502D01*
G37*
G36*
X106161773Y-95260502D02*
G01*
X106139323Y-95446793D01*
X106064981Y-95602001D01*
X105940806Y-95719042D01*
X105768852Y-95790832D01*
X105569381Y-95817068D01*
X105338893Y-95790584D01*
X105131341Y-95704080D01*
X104954531Y-95562467D01*
X104816272Y-95370660D01*
X104724371Y-95133572D01*
X104697195Y-95018785D01*
X104692722Y-94981415D01*
X105068668Y-94981415D01*
X105103269Y-95169397D01*
X105128654Y-95242441D01*
X105184399Y-95357606D01*
X105242476Y-95436727D01*
X105295380Y-95477475D01*
X105413780Y-95532205D01*
X105535498Y-95554072D01*
X105633181Y-95536118D01*
X105636811Y-95534192D01*
X105725018Y-95465105D01*
X105771780Y-95365993D01*
X105785499Y-95219378D01*
X105773134Y-95078532D01*
X105715104Y-94901255D01*
X105616195Y-94763216D01*
X105483754Y-94673633D01*
X105325126Y-94641724D01*
X105238002Y-94654138D01*
X105138711Y-94717418D01*
X105081374Y-94828633D01*
X105068668Y-94981415D01*
X104692722Y-94981415D01*
X104686323Y-94927949D01*
X104695887Y-94846693D01*
X104726014Y-94745074D01*
X104754179Y-94671340D01*
X104835540Y-94543337D01*
X104954310Y-94456757D01*
X105125710Y-94398399D01*
X105324434Y-94377653D01*
X105544674Y-94413483D01*
X105747933Y-94505562D01*
X105920136Y-94647267D01*
X106047203Y-94831975D01*
X106130277Y-95050213D01*
X106155614Y-95219378D01*
X106161773Y-95260502D01*
G37*
G36*
X113494459Y-91915471D02*
G01*
X113543826Y-91949697D01*
X113607099Y-92021160D01*
X113696905Y-92139946D01*
X113771912Y-92237988D01*
X113850474Y-92333042D01*
X113906974Y-92393020D01*
X113923815Y-92407721D01*
X113956496Y-92426949D01*
X113982460Y-92411813D01*
X114011487Y-92351866D01*
X114053359Y-92236659D01*
X114081319Y-92157464D01*
X114125914Y-92039742D01*
X114163884Y-91969078D01*
X114206678Y-91933246D01*
X114265744Y-91920020D01*
X114352531Y-91917174D01*
X114366481Y-91916918D01*
X114436933Y-91916677D01*
X114483368Y-91925475D01*
X114505926Y-91952726D01*
X114504745Y-92007840D01*
X114479965Y-92100231D01*
X114431723Y-92239310D01*
X114360160Y-92434489D01*
X114220011Y-92815900D01*
X114277072Y-93059934D01*
X114279587Y-93070723D01*
X114307096Y-93192850D01*
X114326482Y-93286387D01*
X114333687Y-93331844D01*
X114319718Y-93341704D01*
X114254056Y-93350280D01*
X114152826Y-93349217D01*
X113972411Y-93338715D01*
X113907018Y-93078113D01*
X113901066Y-93054589D01*
X113873381Y-92954770D01*
X113842033Y-92868423D01*
X113800077Y-92784522D01*
X113740571Y-92692041D01*
X113656572Y-92579957D01*
X113541135Y-92437242D01*
X113387319Y-92252873D01*
X113117537Y-91931464D01*
X113230246Y-91928882D01*
X113327455Y-91923402D01*
X113412807Y-91912998D01*
X113446372Y-91908394D01*
X113494459Y-91915471D01*
G37*
G36*
X107451881Y-95058809D02*
G01*
X107484679Y-95198795D01*
X107507243Y-95319289D01*
X107513596Y-95357723D01*
X107541643Y-95491638D01*
X107576031Y-95625094D01*
X107624391Y-95791911D01*
X107443345Y-95781455D01*
X107262300Y-95770999D01*
X107207307Y-95562518D01*
X107152314Y-95354036D01*
X106964050Y-95332593D01*
X106771452Y-95304205D01*
X106603385Y-95259620D01*
X106477960Y-95197025D01*
X106381084Y-95111066D01*
X106372380Y-95100933D01*
X106280486Y-94950073D01*
X106248413Y-94804754D01*
X106626994Y-94804754D01*
X106645114Y-94903490D01*
X106726332Y-95003478D01*
X106807472Y-95053253D01*
X106914093Y-95088478D01*
X107012958Y-95097295D01*
X107078453Y-95074534D01*
X107081272Y-95042584D01*
X107069773Y-94960249D01*
X107045221Y-94848679D01*
X107041939Y-94835681D01*
X107011787Y-94727153D01*
X106983549Y-94669172D01*
X106944892Y-94645956D01*
X106883482Y-94641724D01*
X106758180Y-94661375D01*
X106666505Y-94719855D01*
X106626994Y-94804754D01*
X106248413Y-94804754D01*
X106245579Y-94791913D01*
X106271494Y-94642839D01*
X106290145Y-94602340D01*
X106342548Y-94528178D01*
X106418048Y-94475836D01*
X106528209Y-94440948D01*
X106684596Y-94419149D01*
X106898775Y-94406072D01*
X107303533Y-94389402D01*
X107346222Y-94611117D01*
X107367181Y-94713338D01*
X107403510Y-94872787D01*
X107437863Y-95006567D01*
X107447527Y-95042584D01*
X107451881Y-95058809D01*
G37*
G36*
X102324241Y-94363751D02*
G01*
X102532995Y-94364133D01*
X102683698Y-94366046D01*
X102786289Y-94370728D01*
X102850710Y-94379419D01*
X102886900Y-94393357D01*
X102904800Y-94413781D01*
X102914351Y-94441929D01*
X102917479Y-94453709D01*
X102937679Y-94555756D01*
X102922765Y-94612312D01*
X102861360Y-94636570D01*
X102742089Y-94641724D01*
X102547927Y-94641724D01*
X102571381Y-94789399D01*
X102572685Y-94797402D01*
X102594289Y-94909715D01*
X102626432Y-95056725D01*
X102662666Y-95208804D01*
X102666777Y-95225381D01*
X102702012Y-95375837D01*
X102731633Y-95515866D01*
X102749595Y-95617081D01*
X102768694Y-95753626D01*
X102591871Y-95753626D01*
X102546403Y-95753253D01*
X102462109Y-95746322D01*
X102423983Y-95725459D01*
X102415047Y-95683976D01*
X102412791Y-95659082D01*
X102396701Y-95569148D01*
X102368527Y-95440807D01*
X102332293Y-95293073D01*
X102316302Y-95230305D01*
X102276268Y-95067625D01*
X102241924Y-94920789D01*
X102219338Y-94815459D01*
X102189137Y-94659098D01*
X101973827Y-94648800D01*
X101892542Y-94644907D01*
X101808896Y-94634297D01*
X101761342Y-94604438D01*
X101730663Y-94539726D01*
X101697637Y-94424556D01*
X101695193Y-94408978D01*
X101704417Y-94391205D01*
X101737145Y-94378790D01*
X101802573Y-94370786D01*
X101909900Y-94366244D01*
X102068323Y-94364214D01*
X102287039Y-94363749D01*
X102324241Y-94363751D01*
G37*
G36*
X114944528Y-95406583D02*
G01*
X114873157Y-95575951D01*
X114751664Y-95705701D01*
X114582767Y-95789030D01*
X114505058Y-95807074D01*
X114396700Y-95820133D01*
X114332225Y-95819852D01*
X114101992Y-95778684D01*
X113897486Y-95680763D01*
X113727169Y-95534859D01*
X113599500Y-95349740D01*
X113522938Y-95134174D01*
X113511207Y-94970397D01*
X113869047Y-94970397D01*
X113887004Y-95121790D01*
X113934221Y-95270700D01*
X114008320Y-95400838D01*
X114106921Y-95495914D01*
X114121387Y-95504999D01*
X114261222Y-95556260D01*
X114393812Y-95547772D01*
X114505467Y-95486626D01*
X114582498Y-95379910D01*
X114611217Y-95234716D01*
X114597683Y-95120438D01*
X114546331Y-94961048D01*
X114468412Y-94815033D01*
X114376486Y-94710444D01*
X114364278Y-94701530D01*
X114245581Y-94653642D01*
X114107818Y-94643970D01*
X113987143Y-94675738D01*
X113930431Y-94725327D01*
X113882730Y-94832813D01*
X113869047Y-94970397D01*
X113511207Y-94970397D01*
X113505945Y-94896928D01*
X113512888Y-94811045D01*
X113531862Y-94710028D01*
X113569342Y-94634594D01*
X113635752Y-94557489D01*
X113732863Y-94478973D01*
X113910068Y-94403108D01*
X114113095Y-94377972D01*
X114327784Y-94404707D01*
X114539972Y-94484457D01*
X114635581Y-94551344D01*
X114754018Y-94672715D01*
X114855202Y-94813953D01*
X114918360Y-94949528D01*
X114926026Y-94976203D01*
X114963058Y-95204399D01*
X114960279Y-95234716D01*
X114944528Y-95406583D01*
G37*
G36*
X112873229Y-91923384D02*
G01*
X112925259Y-91952396D01*
X112962844Y-92014576D01*
X112995018Y-92121647D01*
X113030814Y-92285328D01*
X113060575Y-92424955D01*
X113101547Y-92609482D01*
X113138908Y-92770581D01*
X113164927Y-92908777D01*
X113165559Y-93079251D01*
X113116407Y-93207126D01*
X113014408Y-93298804D01*
X112856498Y-93360685D01*
X112750772Y-93375849D01*
X112597908Y-93377372D01*
X112434327Y-93364655D01*
X112286623Y-93339883D01*
X112181391Y-93305239D01*
X112161543Y-93294611D01*
X112096398Y-93251702D01*
X112040390Y-93196360D01*
X111990283Y-93120622D01*
X111942844Y-93016526D01*
X111894837Y-92876110D01*
X111843029Y-92691411D01*
X111784185Y-92454469D01*
X111715070Y-92157319D01*
X111709164Y-92131375D01*
X111687539Y-92027304D01*
X111684468Y-91970243D01*
X111702002Y-91942837D01*
X111742191Y-91927728D01*
X111815231Y-91916141D01*
X111921322Y-91922893D01*
X112009259Y-91951374D01*
X112053782Y-91996047D01*
X112064714Y-92041311D01*
X112085866Y-92140352D01*
X112109983Y-92261560D01*
X112142701Y-92422774D01*
X112205329Y-92682789D01*
X112267947Y-92880492D01*
X112329741Y-93013502D01*
X112389895Y-93079441D01*
X112473868Y-93107815D01*
X112588171Y-93111317D01*
X112694821Y-93084949D01*
X112773622Y-93034291D01*
X112804377Y-92964923D01*
X112804053Y-92957056D01*
X112799755Y-92925084D01*
X112788961Y-92868760D01*
X112769776Y-92779427D01*
X112740307Y-92648430D01*
X112698661Y-92467111D01*
X112642945Y-92226813D01*
X112640801Y-92217579D01*
X112612728Y-92094655D01*
X112591821Y-91999532D01*
X112582465Y-91952130D01*
X112591388Y-91941065D01*
X112650207Y-91924713D01*
X112746504Y-91916464D01*
X112797719Y-91915820D01*
X112873229Y-91923384D01*
G37*
G36*
X116016990Y-91924901D02*
G01*
X116068818Y-91946887D01*
X116070407Y-91948983D01*
X116096216Y-92007462D01*
X116130062Y-92113254D01*
X116166657Y-92247125D01*
X116200716Y-92389839D01*
X116226949Y-92522162D01*
X116238742Y-92583641D01*
X116266752Y-92710835D01*
X116299415Y-92844929D01*
X116319778Y-92926876D01*
X116354194Y-93076005D01*
X116380127Y-93201085D01*
X116409085Y-93356088D01*
X116245189Y-93356088D01*
X116081292Y-93356088D01*
X115968881Y-92887005D01*
X115955005Y-92829827D01*
X115913663Y-92667947D01*
X115877237Y-92537306D01*
X115849251Y-92450072D01*
X115833228Y-92418416D01*
X115827298Y-92424178D01*
X115797355Y-92478763D01*
X115749174Y-92581740D01*
X115687949Y-92721743D01*
X115618878Y-92887401D01*
X115427770Y-93355892D01*
X115268362Y-93355990D01*
X115108954Y-93356088D01*
X115016585Y-92965185D01*
X115010502Y-92939437D01*
X114943193Y-92653647D01*
X114890568Y-92427833D01*
X114851146Y-92254974D01*
X114823447Y-92128051D01*
X114805991Y-92040042D01*
X114797297Y-91983929D01*
X114795885Y-91952690D01*
X114800276Y-91939305D01*
X114810875Y-91933374D01*
X114875442Y-91924597D01*
X114965915Y-91926777D01*
X115050896Y-91938086D01*
X115098984Y-91956696D01*
X115116348Y-91996158D01*
X115144633Y-92087906D01*
X115178052Y-92212122D01*
X115212021Y-92350119D01*
X115241959Y-92483206D01*
X115263282Y-92592693D01*
X115271409Y-92659892D01*
X115271449Y-92666171D01*
X115280737Y-92722688D01*
X115307014Y-92718918D01*
X115351304Y-92653378D01*
X115414628Y-92524584D01*
X115498008Y-92331054D01*
X115544692Y-92221132D01*
X115620751Y-92058985D01*
X115678762Y-91961936D01*
X115719358Y-91928835D01*
X115726763Y-91928474D01*
X115804872Y-91924205D01*
X115906876Y-91918198D01*
X115927662Y-91917399D01*
X116016990Y-91924901D01*
G37*
G36*
X104404662Y-94941627D02*
G01*
X104468698Y-95215239D01*
X104549121Y-95553831D01*
X104596829Y-95753626D01*
X104415326Y-95753626D01*
X104233823Y-95753626D01*
X104193108Y-95577240D01*
X104179440Y-95514128D01*
X104160021Y-95405887D01*
X104152394Y-95334012D01*
X104148940Y-95306294D01*
X104115310Y-95275314D01*
X104031216Y-95267169D01*
X103992056Y-95268163D01*
X103940342Y-95279944D01*
X103897670Y-95315609D01*
X103851065Y-95388109D01*
X103787551Y-95510397D01*
X103665063Y-95753626D01*
X103474392Y-95753626D01*
X103396198Y-95751698D01*
X103315148Y-95743786D01*
X103283721Y-95731843D01*
X103285402Y-95725419D01*
X103310280Y-95670961D01*
X103358712Y-95576672D01*
X103422708Y-95458277D01*
X103444326Y-95418860D01*
X103504210Y-95306637D01*
X103545994Y-95223664D01*
X103561696Y-95185603D01*
X103561455Y-95184037D01*
X103529517Y-95153738D01*
X103460195Y-95112224D01*
X103445238Y-95104081D01*
X103323163Y-95002306D01*
X103238780Y-94867942D01*
X103214610Y-94757724D01*
X103602525Y-94757724D01*
X103606583Y-94829707D01*
X103651344Y-94922772D01*
X103669227Y-94939889D01*
X103750865Y-94977786D01*
X103879804Y-94989193D01*
X103913371Y-94989036D01*
X104000246Y-94981794D01*
X104039552Y-94952825D01*
X104040199Y-94887274D01*
X104011098Y-94770283D01*
X103974430Y-94638239D01*
X103794123Y-94648668D01*
X103714670Y-94654413D01*
X103645646Y-94668702D01*
X103614499Y-94699590D01*
X103602525Y-94757724D01*
X103214610Y-94757724D01*
X103207277Y-94724286D01*
X103211640Y-94666763D01*
X103256976Y-94553397D01*
X103354365Y-94468018D01*
X103507310Y-94409020D01*
X103719312Y-94374799D01*
X103993876Y-94363749D01*
X104283647Y-94363749D01*
X104306658Y-94494050D01*
X104323542Y-94579675D01*
X104356461Y-94730578D01*
X104392248Y-94887274D01*
X104404662Y-94941627D01*
G37*
G36*
X101115764Y-94363266D02*
G01*
X101307753Y-94403480D01*
X101470403Y-94469620D01*
X101585039Y-94558499D01*
X101644374Y-94664266D01*
X101662760Y-94810632D01*
X101622667Y-94958038D01*
X101610570Y-94980930D01*
X101570193Y-95036037D01*
X101510160Y-95081100D01*
X101414790Y-95125966D01*
X101268399Y-95180483D01*
X101123371Y-95234779D01*
X101030257Y-95278832D01*
X100980524Y-95318466D01*
X100962235Y-95360709D01*
X100961682Y-95365028D01*
X100981326Y-95446971D01*
X101053163Y-95503432D01*
X101164676Y-95532828D01*
X101303349Y-95533580D01*
X101456665Y-95504105D01*
X101612108Y-95442822D01*
X101653230Y-95422186D01*
X101730134Y-95385811D01*
X101767791Y-95371409D01*
X101786900Y-95400395D01*
X101802277Y-95473085D01*
X101810916Y-95563117D01*
X101810313Y-95644105D01*
X101797968Y-95689665D01*
X101777662Y-95702299D01*
X101700271Y-95729449D01*
X101594556Y-95753546D01*
X101446514Y-95768738D01*
X101274040Y-95769357D01*
X101101287Y-95756889D01*
X100951355Y-95733008D01*
X100847346Y-95699390D01*
X100846971Y-95699196D01*
X100713785Y-95600622D01*
X100624478Y-95473649D01*
X100586665Y-95334218D01*
X100607961Y-95198270D01*
X100640738Y-95149417D01*
X100729616Y-95070475D01*
X100845694Y-94996292D01*
X100965385Y-94941243D01*
X101065105Y-94919699D01*
X101082656Y-94919173D01*
X101191545Y-94891844D01*
X101271844Y-94833101D01*
X101303146Y-94756901D01*
X101297581Y-94722506D01*
X101243978Y-94657772D01*
X101144875Y-94619098D01*
X101014328Y-94608362D01*
X100866389Y-94627447D01*
X100715115Y-94678231D01*
X100618597Y-94715276D01*
X100548337Y-94715336D01*
X100513975Y-94662120D01*
X100504499Y-94548865D01*
X100511451Y-94477765D01*
X100547748Y-94431798D01*
X100632899Y-94396080D01*
X100718457Y-94373353D01*
X100913108Y-94352161D01*
X101115764Y-94363266D01*
G37*
G36*
X108409667Y-94404673D02*
G01*
X108593051Y-94463692D01*
X108730301Y-94556614D01*
X108732264Y-94558583D01*
X108810999Y-94656840D01*
X108845476Y-94761706D01*
X108845395Y-94902326D01*
X108822744Y-94969029D01*
X108736510Y-95062358D01*
X108593253Y-95150325D01*
X108400205Y-95227644D01*
X108344311Y-95246073D01*
X108237767Y-95285107D01*
X108178820Y-95318278D01*
X108153613Y-95355415D01*
X108148290Y-95406348D01*
X108148549Y-95420289D01*
X108163138Y-95483702D01*
X108209135Y-95521743D01*
X108299090Y-95540270D01*
X108445551Y-95545144D01*
X108579857Y-95534324D01*
X108789416Y-95469097D01*
X108846116Y-95443162D01*
X108924627Y-95413913D01*
X108962489Y-95409594D01*
X108966866Y-95417135D01*
X108983933Y-95475948D01*
X109001807Y-95568557D01*
X109008660Y-95613701D01*
X109010372Y-95683658D01*
X108981060Y-95720150D01*
X108907844Y-95747737D01*
X108907765Y-95747762D01*
X108799836Y-95777994D01*
X108704240Y-95799077D01*
X108643582Y-95807506D01*
X108423844Y-95811661D01*
X108212808Y-95778581D01*
X108029231Y-95712458D01*
X107891871Y-95617484D01*
X107837720Y-95557104D01*
X107794362Y-95470148D01*
X107783447Y-95354333D01*
X107792698Y-95250183D01*
X107828631Y-95165838D01*
X107901606Y-95096573D01*
X108021966Y-95032710D01*
X108200060Y-94964568D01*
X108272318Y-94937977D01*
X108412874Y-94872315D01*
X108486635Y-94810018D01*
X108495352Y-94749070D01*
X108440776Y-94687454D01*
X108400015Y-94666746D01*
X108284220Y-94644480D01*
X108140902Y-94645108D01*
X107994842Y-94667609D01*
X107870821Y-94710959D01*
X107785686Y-94750546D01*
X107732728Y-94753716D01*
X107702751Y-94707167D01*
X107679126Y-94601394D01*
X107674718Y-94577117D01*
X107669608Y-94517079D01*
X107686885Y-94476815D01*
X107738128Y-94448758D01*
X107834913Y-94425342D01*
X107988818Y-94399002D01*
X108196493Y-94383030D01*
X108409667Y-94404673D01*
G37*
G36*
X110286684Y-95006567D02*
G01*
X110301378Y-95061254D01*
X110333358Y-95193504D01*
X110355264Y-95301916D01*
X110364043Y-95349794D01*
X110390840Y-95474979D01*
X110422527Y-95605951D01*
X110469736Y-95788373D01*
X110298440Y-95788373D01*
X110207863Y-95784225D01*
X110140311Y-95762272D01*
X110096658Y-95709649D01*
X110066790Y-95613513D01*
X110040593Y-95461025D01*
X110030289Y-95404107D01*
X109994091Y-95309480D01*
X109934580Y-95271354D01*
X109842124Y-95280990D01*
X109792438Y-95311900D01*
X109727988Y-95398301D01*
X109652797Y-95545339D01*
X109541572Y-95788373D01*
X109348761Y-95788373D01*
X109268576Y-95786388D01*
X109187396Y-95778476D01*
X109155950Y-95766590D01*
X109157632Y-95760166D01*
X109182509Y-95705708D01*
X109230942Y-95611419D01*
X109294938Y-95493024D01*
X109316728Y-95453322D01*
X109376530Y-95341697D01*
X109418250Y-95259728D01*
X109433926Y-95222890D01*
X109431209Y-95217398D01*
X109389838Y-95182667D01*
X109314468Y-95134057D01*
X109217073Y-95058075D01*
X109128909Y-94935235D01*
X109086446Y-94799298D01*
X109087028Y-94789332D01*
X109471046Y-94789332D01*
X109481106Y-94885050D01*
X109532216Y-94966435D01*
X109546942Y-94977153D01*
X109621197Y-95005054D01*
X109718238Y-95021217D01*
X109815494Y-95024435D01*
X109890399Y-95013501D01*
X109920383Y-94987206D01*
X109918847Y-94970904D01*
X109905027Y-94897024D01*
X109881511Y-94796098D01*
X109867982Y-94744809D01*
X109839881Y-94675296D01*
X109797800Y-94647056D01*
X109722865Y-94641724D01*
X109720792Y-94641729D01*
X109617470Y-94652496D01*
X109535882Y-94677694D01*
X109501684Y-94707127D01*
X109471046Y-94789332D01*
X109087028Y-94789332D01*
X109094179Y-94666772D01*
X109156600Y-94554165D01*
X109233019Y-94495737D01*
X109378431Y-94440988D01*
X109580614Y-94408937D01*
X109844381Y-94398496D01*
X110154570Y-94398496D01*
X110196364Y-94615664D01*
X110216089Y-94712149D01*
X110252257Y-94871625D01*
X110281745Y-94987206D01*
X110286684Y-95006567D01*
G37*
G36*
X116537280Y-94561993D02*
G01*
X116546148Y-94609852D01*
X116560294Y-94679443D01*
X116580197Y-94770739D01*
X116607944Y-94892913D01*
X116645626Y-95055140D01*
X116695331Y-95266597D01*
X116759148Y-95536457D01*
X116827055Y-95823119D01*
X116661191Y-95823119D01*
X116495328Y-95823119D01*
X116423428Y-95519084D01*
X116411699Y-95469170D01*
X116376714Y-95316810D01*
X116347208Y-95183476D01*
X116328586Y-95093434D01*
X116326346Y-95081868D01*
X116305401Y-94993254D01*
X116286363Y-94939379D01*
X116269975Y-94931952D01*
X116244518Y-94967643D01*
X116222630Y-95039396D01*
X116211824Y-95128181D01*
X116211391Y-95137336D01*
X116198037Y-95234946D01*
X116173002Y-95345349D01*
X116168948Y-95359746D01*
X116139042Y-95437382D01*
X116093848Y-95469177D01*
X116008147Y-95474961D01*
X115958601Y-95472973D01*
X115895687Y-95455163D01*
X115843828Y-95405933D01*
X115781962Y-95309913D01*
X115745147Y-95249554D01*
X115673901Y-95139891D01*
X115615772Y-95058687D01*
X115547101Y-94971820D01*
X115568371Y-95110808D01*
X115569440Y-95117604D01*
X115589783Y-95225175D01*
X115620855Y-95368378D01*
X115656380Y-95518163D01*
X115664855Y-95552388D01*
X115694513Y-95674804D01*
X115715289Y-95764772D01*
X115723119Y-95804825D01*
X115711801Y-95811328D01*
X115649419Y-95819802D01*
X115550723Y-95823119D01*
X115378328Y-95823119D01*
X115338562Y-95675445D01*
X115314053Y-95577785D01*
X115280603Y-95433060D01*
X115248563Y-95284542D01*
X115221249Y-95155938D01*
X115184251Y-94989327D01*
X115151723Y-94850206D01*
X115134037Y-94775762D01*
X115105008Y-94645884D01*
X115084890Y-94546170D01*
X115064664Y-94433243D01*
X115268661Y-94433243D01*
X115472657Y-94433243D01*
X115693442Y-94763208D01*
X115775393Y-94883570D01*
X115852524Y-94992350D01*
X115908454Y-95066112D01*
X115934737Y-95093304D01*
X115944500Y-95083893D01*
X115962059Y-95036941D01*
X115986253Y-94943859D01*
X116018958Y-94797221D01*
X116062051Y-94589604D01*
X116090309Y-94450616D01*
X116302145Y-94440379D01*
X116513982Y-94430142D01*
X116537280Y-94561993D01*
G37*
G36*
X112300547Y-88571754D02*
G01*
X109520793Y-89943162D01*
X109396439Y-90320555D01*
X109352246Y-90460191D01*
X109316289Y-90585956D01*
X109295925Y-90672852D01*
X109294683Y-90707463D01*
X109298492Y-90706554D01*
X109349998Y-90684167D01*
X109457523Y-90633765D01*
X109616319Y-90557668D01*
X109821634Y-90458198D01*
X110068719Y-90337675D01*
X110352824Y-90198421D01*
X110669200Y-90042757D01*
X111013097Y-89873004D01*
X111379765Y-89691483D01*
X111764454Y-89500516D01*
X111879201Y-89443491D01*
X112259294Y-89254803D01*
X112620053Y-89076021D01*
X112956717Y-88909489D01*
X113264521Y-88757549D01*
X113538703Y-88622545D01*
X113774500Y-88506818D01*
X113967149Y-88412711D01*
X114111886Y-88342569D01*
X114203950Y-88298733D01*
X114238575Y-88283546D01*
X114242063Y-88286905D01*
X114232573Y-88307190D01*
X114201887Y-88350184D01*
X114145950Y-88420851D01*
X114060707Y-88524159D01*
X113942102Y-88665073D01*
X113786082Y-88848560D01*
X113588590Y-89079585D01*
X113424185Y-89271427D01*
X113251609Y-89471514D01*
X113111623Y-89630800D01*
X112997234Y-89756015D01*
X112901451Y-89853886D01*
X112817282Y-89931141D01*
X112737735Y-89994508D01*
X112655818Y-90050715D01*
X112564540Y-90106491D01*
X112456908Y-90168562D01*
X112345260Y-90232417D01*
X112143850Y-90347955D01*
X111942135Y-90464016D01*
X111770468Y-90563154D01*
X111711320Y-90597407D01*
X111516377Y-90710288D01*
X111309871Y-90829847D01*
X111127650Y-90935331D01*
X111120176Y-90939657D01*
X110984593Y-91018289D01*
X110805612Y-91122280D01*
X110598765Y-91242596D01*
X110379587Y-91370201D01*
X110163611Y-91496061D01*
X109930909Y-91631509D01*
X109654602Y-91791946D01*
X109363102Y-91960885D01*
X109079242Y-92125094D01*
X108825855Y-92271341D01*
X108769022Y-92304133D01*
X108541606Y-92436060D01*
X108314281Y-92568937D01*
X108102106Y-92693903D01*
X107920142Y-92802097D01*
X107783447Y-92884659D01*
X107626036Y-92979722D01*
X107453265Y-93077994D01*
X107309861Y-93149060D01*
X107179805Y-93199840D01*
X107047080Y-93237256D01*
X106895667Y-93268226D01*
X106889302Y-93269333D01*
X106773048Y-93282376D01*
X106597248Y-93293577D01*
X106371099Y-93302931D01*
X106103801Y-93310436D01*
X105804551Y-93316087D01*
X105482548Y-93319880D01*
X105146988Y-93321812D01*
X104807071Y-93321879D01*
X104471994Y-93320077D01*
X104150956Y-93316402D01*
X103853154Y-93310850D01*
X103587787Y-93303418D01*
X103364052Y-93294102D01*
X103191148Y-93282899D01*
X103078273Y-93269803D01*
X102965886Y-93247376D01*
X102644355Y-93149059D01*
X102343922Y-93000512D01*
X102053756Y-92795627D01*
X101763025Y-92528295D01*
X101622688Y-92376939D01*
X101309315Y-91971555D01*
X101029556Y-91508689D01*
X100784568Y-90991316D01*
X100575505Y-90422413D01*
X100403520Y-89804954D01*
X100269768Y-89141915D01*
X100175404Y-88436271D01*
X100138701Y-87954405D01*
X100131402Y-87450915D01*
X105438310Y-87450915D01*
X105438771Y-87540250D01*
X105461859Y-88108237D01*
X105518619Y-88649904D01*
X105607448Y-89158771D01*
X105726742Y-89628359D01*
X105874899Y-90052187D01*
X106050314Y-90423776D01*
X106251383Y-90736646D01*
X106402660Y-90915540D01*
X106597074Y-91086009D01*
X106790227Y-91188953D01*
X106797109Y-91191360D01*
X106913675Y-91221660D01*
X107021494Y-91235001D01*
X107054714Y-91234167D01*
X107094963Y-91223088D01*
X107132278Y-91190916D01*
X107174711Y-91127166D01*
X107230310Y-91021354D01*
X107307126Y-90862996D01*
X107349883Y-90772544D01*
X107505886Y-90413838D01*
X107630722Y-90068607D01*
X107733565Y-89709226D01*
X107823592Y-89308072D01*
X107830856Y-89268792D01*
X107855831Y-89073036D01*
X107874289Y-88826449D01*
X107886242Y-88543715D01*
X107891700Y-88239518D01*
X107890672Y-87928543D01*
X107883169Y-87625472D01*
X107869201Y-87344992D01*
X107848779Y-87101784D01*
X107821913Y-86910534D01*
X107810426Y-86850244D01*
X107683262Y-86284342D01*
X107533003Y-85781198D01*
X107359962Y-85341615D01*
X107164449Y-84966397D01*
X106946778Y-84656346D01*
X106855186Y-84552150D01*
X106700556Y-84403971D01*
X106550486Y-84291432D01*
X106413844Y-84219825D01*
X106299498Y-84194439D01*
X106216318Y-84220567D01*
X106199317Y-84239524D01*
X106148732Y-84315321D01*
X106083162Y-84428742D01*
X106012457Y-84563229D01*
X105986394Y-84616158D01*
X105791226Y-85089810D01*
X105637937Y-85614618D01*
X105527424Y-86186075D01*
X105460583Y-86799676D01*
X105438310Y-87450915D01*
X100131402Y-87450915D01*
X100128375Y-87242114D01*
X100168169Y-86530253D01*
X100256587Y-85829715D01*
X100392131Y-85151387D01*
X100573302Y-84506161D01*
X100798604Y-83904925D01*
X100836457Y-83818271D01*
X101085961Y-83317328D01*
X101361629Y-82876470D01*
X101662356Y-82496950D01*
X101987041Y-82180024D01*
X102334579Y-81926946D01*
X102703867Y-81738969D01*
X102736821Y-81725996D01*
X102777563Y-81712404D01*
X102824604Y-81700935D01*
X102883688Y-81691369D01*
X102960561Y-81683486D01*
X103060967Y-81677065D01*
X103190652Y-81671886D01*
X103355360Y-81667730D01*
X103560837Y-81664375D01*
X103812827Y-81661602D01*
X104117075Y-81659190D01*
X104479327Y-81656919D01*
X104905327Y-81654569D01*
X105292822Y-81652541D01*
X105661016Y-81650850D01*
X105970850Y-81649899D01*
X106228175Y-81649851D01*
X106438842Y-81650868D01*
X106608700Y-81653115D01*
X106743600Y-81656752D01*
X106849393Y-81661943D01*
X106931928Y-81668851D01*
X106997057Y-81677638D01*
X107050628Y-81688467D01*
X107098494Y-81701501D01*
X107146503Y-81716902D01*
X107199431Y-81735487D01*
X107505917Y-81879365D01*
X107812619Y-82081387D01*
X108109077Y-82332859D01*
X108384833Y-82625089D01*
X108629429Y-82949385D01*
X108828948Y-83275275D01*
X109076138Y-83767656D01*
X109296164Y-84315974D01*
X109486609Y-84914682D01*
X109512194Y-85004803D01*
X109548550Y-85129388D01*
X109575329Y-85216740D01*
X109588059Y-85251987D01*
X109612905Y-85245379D01*
X109693832Y-85218826D01*
X109820836Y-85175484D01*
X109983556Y-85119023D01*
X110171628Y-85053116D01*
X110374692Y-84981434D01*
X110582386Y-84907647D01*
X110784347Y-84835428D01*
X110970214Y-84768447D01*
X111129625Y-84710376D01*
X111252219Y-84664885D01*
X111327633Y-84635647D01*
X111345884Y-84628440D01*
X111429684Y-84597114D01*
X111551742Y-84552741D01*
X111692476Y-84502468D01*
X111828649Y-84454066D01*
X112018767Y-84386191D01*
X112225198Y-84312259D01*
X112422161Y-84241489D01*
X112439642Y-84235197D01*
X112647369Y-84160574D01*
X112889141Y-84073930D01*
X113136335Y-83985514D01*
X113360328Y-83905573D01*
X113425024Y-83882488D01*
X113622231Y-83811781D01*
X113809754Y-83744093D01*
X113968988Y-83686157D01*
X114081327Y-83644705D01*
X114082633Y-83644216D01*
X114191418Y-83606005D01*
X114268941Y-83583505D01*
X114298495Y-83581574D01*
X114298308Y-83582507D01*
X114271158Y-83618193D01*
X114203496Y-83694228D01*
X114103207Y-83802482D01*
X113978180Y-83934826D01*
X113836300Y-84083130D01*
X113685455Y-84239264D01*
X113533531Y-84395099D01*
X113388414Y-84542504D01*
X113257993Y-84673352D01*
X113150152Y-84779511D01*
X113072781Y-84852853D01*
X113033764Y-84885247D01*
X113003437Y-84899186D01*
X112910792Y-84936012D01*
X112781123Y-84983967D01*
X112632483Y-85036257D01*
X112474883Y-85090833D01*
X112270617Y-85162377D01*
X112053043Y-85239213D01*
X111848837Y-85311954D01*
X111702781Y-85364177D01*
X111443434Y-85456623D01*
X111148151Y-85561621D01*
X110834604Y-85672900D01*
X110520463Y-85784192D01*
X110223401Y-85889226D01*
X109961088Y-85981733D01*
X109706445Y-86071376D01*
X109731166Y-86195606D01*
X109736968Y-86230086D01*
X109751024Y-86344363D01*
X109765255Y-86494003D01*
X109777327Y-86655742D01*
X109783650Y-86744361D01*
X109795856Y-86876035D01*
X109808311Y-86970628D01*
X109819119Y-87011979D01*
X109824070Y-87013248D01*
X109878955Y-87003345D01*
X109982926Y-86974121D01*
X110123501Y-86929285D01*
X110288202Y-86872547D01*
X110321834Y-86860581D01*
X110494589Y-86799352D01*
X110649252Y-86744902D01*
X110770042Y-86702770D01*
X110841176Y-86678494D01*
X110930273Y-86647369D01*
X111014911Y-86614518D01*
X111016779Y-86613730D01*
X111078884Y-86590058D01*
X111190513Y-86549576D01*
X111336422Y-86497752D01*
X111501368Y-86440053D01*
X111513785Y-86435741D01*
X111727427Y-86361381D01*
X111929145Y-86290776D01*
X112134401Y-86218460D01*
X112358654Y-86138972D01*
X112617364Y-86046847D01*
X112925991Y-85936623D01*
X112956162Y-85925846D01*
X113134438Y-85862499D01*
X113298703Y-85804648D01*
X113431829Y-85758298D01*
X113516689Y-85729457D01*
X113526959Y-85726050D01*
X113621178Y-85693735D01*
X113760728Y-85644824D01*
X113928500Y-85585345D01*
X114107387Y-85521327D01*
X114192508Y-85490754D01*
X114497691Y-85381643D01*
X114860375Y-85252645D01*
X115282598Y-85103037D01*
X115766399Y-84932098D01*
X116313816Y-84739103D01*
X116463463Y-84686268D01*
X116647018Y-84621109D01*
X116804273Y-84564896D01*
X116922136Y-84522313D01*
X116987514Y-84498045D01*
X116989868Y-84497133D01*
X117063616Y-84474562D01*
X117102618Y-84473663D01*
X117102685Y-84474379D01*
X117080802Y-84510270D01*
X117021432Y-84595605D01*
X116928519Y-84724999D01*
X116806006Y-84893066D01*
X116657837Y-85094421D01*
X116487954Y-85323681D01*
X116300302Y-85575459D01*
X116098825Y-85844370D01*
X115080301Y-87200346D01*
X112973968Y-88239518D01*
X112300547Y-88571754D01*
G37*
D13*
X203800000Y-77000000D02*
X203200000Y-77000000D01*
X203800000Y-74000000D02*
X203800000Y-77000000D01*
X203200000Y-74000000D02*
X203800000Y-74000000D01*
X195800000Y-77000000D02*
X195200000Y-77000000D01*
X195200000Y-77000000D02*
X195200000Y-74000000D01*
X195200000Y-74000000D02*
X195800000Y-74000000D01*
X215600000Y-90700000D02*
X215600000Y-91300000D01*
X212600000Y-90700000D02*
X215600000Y-90700000D01*
X212600000Y-91300000D02*
X212600000Y-90700000D01*
X215600000Y-98700000D02*
X215600000Y-99300000D01*
X215600000Y-99300000D02*
X212600000Y-99300000D01*
X212600000Y-99300000D02*
X212600000Y-98700000D01*
X150200000Y-89500000D02*
X150800000Y-89500000D01*
X150200000Y-92500000D02*
X150200000Y-89500000D01*
X150800000Y-92500000D02*
X150200000Y-92500000D01*
X160200000Y-89500000D02*
X160800000Y-89500000D01*
X160800000Y-89500000D02*
X160800000Y-92500000D01*
X160800000Y-92500000D02*
X160200000Y-92500000D01*
X160800000Y-85500000D02*
X160200000Y-85500000D01*
X160800000Y-82500000D02*
X160800000Y-85500000D01*
X160200000Y-82500000D02*
X160800000Y-82500000D01*
X150800000Y-85500000D02*
X150200000Y-85500000D01*
X150200000Y-85500000D02*
X150200000Y-82500000D01*
X150200000Y-82500000D02*
X150800000Y-82500000D01*
%LPC*%
D14*
X97500000Y-72000000D03*
D15*
X189850000Y-73055000D03*
D16*
X189850000Y-74325000D03*
D14*
X97500000Y-104000000D03*
X215000000Y-72000000D03*
D17*
X164400000Y-71200000D03*
X157600000Y-71200000D03*
D15*
X189850000Y-79050000D03*
D16*
X189850000Y-80320000D03*
D18*
X177750000Y-101517500D03*
X184550000Y-101517500D03*
D14*
X215000000Y-104000000D03*
D19*
X141210000Y-103970000D03*
D20*
X143750000Y-103970000D03*
D19*
X146290000Y-103970000D03*
X141210000Y-100795000D03*
X146290000Y-100795000D03*
D20*
X142734000Y-98890000D03*
X144766000Y-98890000D03*
D21*
X152725000Y-70000000D03*
X146125000Y-70000000D03*
D22*
X202300000Y-77040000D03*
X201900000Y-77040000D03*
X201500000Y-77040000D03*
X201100000Y-77040000D03*
X200700000Y-77040000D03*
X200300000Y-77040000D03*
X199900000Y-77040000D03*
X199500000Y-77040000D03*
X199100000Y-77040000D03*
X198700000Y-77040000D03*
X198300000Y-77040000D03*
X197900000Y-77040000D03*
X197500000Y-77040000D03*
X197100000Y-77040000D03*
X196700000Y-77040000D03*
X202300000Y-73960000D03*
X201900000Y-73960000D03*
X201500000Y-73960000D03*
X201100000Y-73960000D03*
X200700000Y-73960000D03*
X200300000Y-73960000D03*
X199900000Y-73960000D03*
X199500000Y-73960000D03*
X199100000Y-73960000D03*
X198700000Y-73960000D03*
X198300000Y-73960000D03*
X197900000Y-73960000D03*
X197500000Y-73960000D03*
X197100000Y-73960000D03*
X196700000Y-73960000D03*
D23*
X215640000Y-92200000D03*
X215640000Y-92600000D03*
X215640000Y-93000000D03*
X215640000Y-93400000D03*
X215640000Y-93800000D03*
X215640000Y-94200000D03*
X215640000Y-94600000D03*
X215640000Y-95000000D03*
X215640000Y-95400000D03*
X215640000Y-95800000D03*
X215640000Y-96200000D03*
X215640000Y-96600000D03*
X215640000Y-97000000D03*
X215640000Y-97400000D03*
X215640000Y-97800000D03*
X212560000Y-92200000D03*
X212560000Y-92600000D03*
X212560000Y-93000000D03*
X212560000Y-93400000D03*
X212560000Y-93800000D03*
X212560000Y-94200000D03*
X212560000Y-94600000D03*
X212560000Y-95000000D03*
X212560000Y-95400000D03*
X212560000Y-95800000D03*
X212560000Y-96200000D03*
X212560000Y-96600000D03*
X212560000Y-97000000D03*
X212560000Y-97400000D03*
X212560000Y-97800000D03*
D22*
X151700000Y-89460000D03*
X152100000Y-89460000D03*
X152500000Y-89460000D03*
X152900000Y-89460000D03*
X153300000Y-89460000D03*
X153700000Y-89460000D03*
X154100000Y-89460000D03*
X154500000Y-89460000D03*
X154900000Y-89460000D03*
X155300000Y-89460000D03*
X155700000Y-89460000D03*
X156100000Y-89460000D03*
X156500000Y-89460000D03*
X156900000Y-89460000D03*
X157300000Y-89460000D03*
X157700000Y-89460000D03*
X158100000Y-89460000D03*
X158500000Y-89460000D03*
X158900000Y-89460000D03*
X159300000Y-89460000D03*
X151700000Y-92540000D03*
X152100000Y-92540000D03*
X152500000Y-92540000D03*
X152900000Y-92540000D03*
X153300000Y-92540000D03*
X153700000Y-92540000D03*
X154100000Y-92540000D03*
X154500000Y-92540000D03*
X154900000Y-92540000D03*
X155300000Y-92540000D03*
X155700000Y-92540000D03*
X156100000Y-92540000D03*
X156500000Y-92540000D03*
X156900000Y-92540000D03*
X157300000Y-92540000D03*
X157700000Y-92540000D03*
X158100000Y-92540000D03*
X158500000Y-92540000D03*
X158900000Y-92540000D03*
X159300000Y-92540000D03*
X159300000Y-85540000D03*
X158900000Y-85540000D03*
X158500000Y-85540000D03*
X158100000Y-85540000D03*
X157700000Y-85540000D03*
X157300000Y-85540000D03*
X156900000Y-85540000D03*
X156500000Y-85540000D03*
X156100000Y-85540000D03*
X155700000Y-85540000D03*
X155300000Y-85540000D03*
X154900000Y-85540000D03*
X154500000Y-85540000D03*
X154100000Y-85540000D03*
X153700000Y-85540000D03*
X153300000Y-85540000D03*
X152900000Y-85540000D03*
X152500000Y-85540000D03*
X152100000Y-85540000D03*
X151700000Y-85540000D03*
X159300000Y-82460000D03*
X158900000Y-82460000D03*
X158500000Y-82460000D03*
X158100000Y-82460000D03*
X157700000Y-82460000D03*
X157300000Y-82460000D03*
X156900000Y-82460000D03*
X156500000Y-82460000D03*
X156100000Y-82460000D03*
X155700000Y-82460000D03*
X155300000Y-82460000D03*
X154900000Y-82460000D03*
X154500000Y-82460000D03*
X154100000Y-82460000D03*
X153700000Y-82460000D03*
X153300000Y-82460000D03*
X152900000Y-82460000D03*
X152500000Y-82460000D03*
X152100000Y-82460000D03*
X151700000Y-82460000D03*
%LPD*%
M02*
