G04 #@! TF.GenerationSoftware,KiCad,Pcbnew,7.0.10-7.0.10~ubuntu22.04.1*
G04 #@! TF.CreationDate,2024-02-08T17:20:11-05:00*
G04 #@! TF.ProjectId,daughterBoard,64617567-6874-4657-9242-6f6172642e6b,rev?*
G04 #@! TF.SameCoordinates,Original*
G04 #@! TF.FileFunction,Paste,Top*
G04 #@! TF.FilePolarity,Positive*
%FSLAX46Y46*%
G04 Gerber Fmt 4.6, Leading zero omitted, Abs format (unit mm)*
G04 Created by KiCad (PCBNEW 7.0.10-7.0.10~ubuntu22.04.1) date 2024-02-08 17:20:11*
%MOMM*%
%LPD*%
G01*
G04 APERTURE LIST*
G04 Aperture macros list*
%AMRoundRect*
0 Rectangle with rounded corners*
0 $1 Rounding radius*
0 $2 $3 $4 $5 $6 $7 $8 $9 X,Y pos of 4 corners*
0 Add a 4 corners polygon primitive as box body*
4,1,4,$2,$3,$4,$5,$6,$7,$8,$9,$2,$3,0*
0 Add four circle primitives for the rounded corners*
1,1,$1+$1,$2,$3*
1,1,$1+$1,$4,$5*
1,1,$1+$1,$6,$7*
1,1,$1+$1,$8,$9*
0 Add four rect primitives between the rounded corners*
20,1,$1+$1,$2,$3,$4,$5,0*
20,1,$1+$1,$4,$5,$6,$7,0*
20,1,$1+$1,$6,$7,$8,$9,0*
20,1,$1+$1,$8,$9,$2,$3,0*%
G04 Aperture macros list end*
%ADD10R,0.200000X0.600000*%
%ADD11R,0.200000X0.500000*%
%ADD12R,0.500000X0.200000*%
%ADD13RoundRect,0.140000X0.140000X0.170000X-0.140000X0.170000X-0.140000X-0.170000X0.140000X-0.170000X0*%
%ADD14RoundRect,0.135000X-0.135000X-0.185000X0.135000X-0.185000X0.135000X0.185000X-0.135000X0.185000X0*%
%ADD15RoundRect,0.079500X-0.079500X-0.100500X0.079500X-0.100500X0.079500X0.100500X-0.079500X0.100500X0*%
%ADD16RoundRect,0.079500X0.079500X0.100500X-0.079500X0.100500X-0.079500X-0.100500X0.079500X-0.100500X0*%
%ADD17RoundRect,0.135000X0.185000X-0.135000X0.185000X0.135000X-0.185000X0.135000X-0.185000X-0.135000X0*%
%ADD18R,0.700000X0.450000*%
%ADD19RoundRect,0.200000X-0.275000X0.200000X-0.275000X-0.200000X0.275000X-0.200000X0.275000X0.200000X0*%
%ADD20RoundRect,0.135000X-0.185000X0.135000X-0.185000X-0.135000X0.185000X-0.135000X0.185000X0.135000X0*%
%ADD21RoundRect,0.140000X0.170000X-0.140000X0.170000X0.140000X-0.170000X0.140000X-0.170000X-0.140000X0*%
%ADD22RoundRect,0.150000X0.150000X-0.825000X0.150000X0.825000X-0.150000X0.825000X-0.150000X-0.825000X0*%
%ADD23R,1.400000X2.600000*%
%ADD24RoundRect,0.135000X0.135000X0.185000X-0.135000X0.185000X-0.135000X-0.185000X0.135000X-0.185000X0*%
%ADD25RoundRect,0.079500X-0.100500X0.079500X-0.100500X-0.079500X0.100500X-0.079500X0.100500X0.079500X0*%
%ADD26R,1.000000X1.800000*%
%ADD27R,1.000000X1.600000*%
%ADD28RoundRect,0.225000X0.225000X0.250000X-0.225000X0.250000X-0.225000X-0.250000X0.225000X-0.250000X0*%
%ADD29RoundRect,0.140000X-0.170000X0.140000X-0.170000X-0.140000X0.170000X-0.140000X0.170000X0.140000X0*%
%ADD30RoundRect,0.079500X0.100500X-0.079500X0.100500X0.079500X-0.100500X0.079500X-0.100500X-0.079500X0*%
%ADD31R,0.620000X1.400000*%
%ADD32R,1.100000X2.400000*%
%ADD33R,1.000000X1.150000*%
%ADD34R,1.550000X4.900000*%
%ADD35RoundRect,0.218750X0.218750X0.256250X-0.218750X0.256250X-0.218750X-0.256250X0.218750X-0.256250X0*%
%ADD36R,0.700000X0.340000*%
%ADD37R,0.800000X0.900000*%
%ADD38RoundRect,0.150000X0.512500X0.150000X-0.512500X0.150000X-0.512500X-0.150000X0.512500X-0.150000X0*%
%ADD39R,4.200000X3.200000*%
%ADD40RoundRect,0.140000X-0.140000X-0.170000X0.140000X-0.170000X0.140000X0.170000X-0.140000X0.170000X0*%
%ADD41RoundRect,0.150000X-0.825000X-0.150000X0.825000X-0.150000X0.825000X0.150000X-0.825000X0.150000X0*%
%ADD42RoundRect,0.100000X0.100000X-0.637500X0.100000X0.637500X-0.100000X0.637500X-0.100000X-0.637500X0*%
%ADD43RoundRect,0.100000X0.100000X0.575000X-0.100000X0.575000X-0.100000X-0.575000X0.100000X-0.575000X0*%
%ADD44O,0.900000X1.600000*%
%ADD45RoundRect,0.250000X0.550000X0.450000X-0.550000X0.450000X-0.550000X-0.450000X0.550000X-0.450000X0*%
%ADD46RoundRect,0.250000X0.700000X0.700000X-0.700000X0.700000X-0.700000X-0.700000X0.700000X-0.700000X0*%
%ADD47RoundRect,0.075000X0.075000X-0.725000X0.075000X0.725000X-0.075000X0.725000X-0.075000X-0.725000X0*%
%ADD48RoundRect,0.075000X0.725000X-0.075000X0.725000X0.075000X-0.725000X0.075000X-0.725000X-0.075000X0*%
%ADD49R,1.000000X0.700000*%
G04 APERTURE END LIST*
D10*
X114835000Y-75925000D03*
D11*
X114435000Y-75875000D03*
X114035000Y-75875000D03*
X113635000Y-75875000D03*
D12*
X113110000Y-76000000D03*
X113110000Y-76400000D03*
X113110000Y-76800000D03*
X113110000Y-77200000D03*
D11*
X113635000Y-77325000D03*
X114035000Y-77325000D03*
X114435000Y-77325000D03*
X114835000Y-77325000D03*
D12*
X115360000Y-77200000D03*
X115360000Y-76800000D03*
X115360000Y-76400000D03*
X115360000Y-76000000D03*
D13*
X179905000Y-87350000D03*
X178945000Y-87350000D03*
D14*
X163540000Y-105125000D03*
X164560000Y-105125000D03*
D15*
X198155000Y-96700000D03*
X198845000Y-96700000D03*
D16*
X161395000Y-96825000D03*
X160705000Y-96825000D03*
D17*
X194750000Y-94575000D03*
X194750000Y-93555000D03*
D18*
X181525000Y-79055000D03*
X181525000Y-80355000D03*
X183525000Y-79705000D03*
D19*
X181725000Y-85925000D03*
X181725000Y-87575000D03*
D20*
X119035000Y-79590000D03*
X119035000Y-80610000D03*
D21*
X179825000Y-73035000D03*
X179825000Y-72075000D03*
D20*
X103725000Y-79580000D03*
X103725000Y-80600000D03*
D22*
X196745000Y-88125000D03*
X198015000Y-88125000D03*
X199285000Y-88125000D03*
X200555000Y-88125000D03*
X200555000Y-83175000D03*
X199285000Y-83175000D03*
X198015000Y-83175000D03*
X196745000Y-83175000D03*
D15*
X154905000Y-78050000D03*
X155595000Y-78050000D03*
D21*
X158900000Y-103500000D03*
X158900000Y-102540000D03*
D10*
X102725000Y-75975000D03*
D11*
X102325000Y-75925000D03*
X101925000Y-75925000D03*
X101525000Y-75925000D03*
D12*
X101000000Y-76050000D03*
X101000000Y-76450000D03*
X101000000Y-76850000D03*
X101000000Y-77250000D03*
D11*
X101525000Y-77375000D03*
X101925000Y-77375000D03*
X102325000Y-77375000D03*
X102725000Y-77375000D03*
D12*
X103250000Y-77250000D03*
X103250000Y-76850000D03*
X103250000Y-76450000D03*
X103250000Y-76050000D03*
D20*
X102125000Y-79590000D03*
X102125000Y-80610000D03*
D23*
X98335000Y-99050000D03*
X100235000Y-99050000D03*
X102135000Y-99050000D03*
X104035000Y-99050000D03*
X105935000Y-99050000D03*
X105935000Y-83650000D03*
X104035000Y-83650000D03*
X102135000Y-83650000D03*
X100235000Y-83650000D03*
X98335000Y-83650000D03*
D20*
X112635000Y-79590000D03*
X112635000Y-80610000D03*
D15*
X169255000Y-104550000D03*
X169945000Y-104550000D03*
D17*
X161650000Y-105185000D03*
X161650000Y-104165000D03*
D20*
X106925000Y-79580000D03*
X106925000Y-80600000D03*
D13*
X161710000Y-97850000D03*
X160750000Y-97850000D03*
D24*
X160970000Y-75250000D03*
X159950000Y-75250000D03*
D25*
X164950000Y-88405000D03*
X164950000Y-89095000D03*
X164950000Y-81905000D03*
X164950000Y-82595000D03*
D26*
X151350000Y-101400000D03*
X153850000Y-101400000D03*
D15*
X198280000Y-81175000D03*
X198970000Y-81175000D03*
D20*
X118355000Y-70695000D03*
X118355000Y-71715000D03*
D27*
X163500000Y-72400000D03*
X163500000Y-70000000D03*
X161000000Y-72400000D03*
X161000000Y-70000000D03*
X158500000Y-72400000D03*
X158500000Y-70000000D03*
D17*
X161650000Y-102535000D03*
X161650000Y-101515000D03*
D28*
X207000000Y-100825000D03*
X205450000Y-100825000D03*
D29*
X167050000Y-87320000D03*
X167050000Y-88280000D03*
D19*
X186825000Y-85925000D03*
X186825000Y-87575000D03*
D30*
X170875000Y-74050000D03*
X170875000Y-73360000D03*
D31*
X183730000Y-90097500D03*
X182630000Y-90097500D03*
X181530000Y-90097500D03*
X180430000Y-90097500D03*
X179330000Y-90097500D03*
X178230000Y-90097500D03*
X177130000Y-90097500D03*
X176030000Y-90097500D03*
D32*
X173550000Y-92097500D03*
X173550000Y-101097500D03*
X189700000Y-92097500D03*
X189700000Y-101097500D03*
D31*
X174930000Y-90097500D03*
D20*
X115835000Y-79580000D03*
X115835000Y-80600000D03*
D15*
X114790000Y-74500000D03*
X115480000Y-74500000D03*
D33*
X156000000Y-101325000D03*
X156000000Y-103075000D03*
X157400000Y-103075000D03*
X157400000Y-101325000D03*
D23*
X110335000Y-99050000D03*
X112235000Y-99050000D03*
X114135000Y-99050000D03*
X116035000Y-99050000D03*
X117935000Y-99050000D03*
X117935000Y-83650000D03*
X116035000Y-83650000D03*
X114135000Y-83650000D03*
X112235000Y-83650000D03*
X110335000Y-83650000D03*
D34*
X203350000Y-94400000D03*
X207800000Y-94400000D03*
D20*
X100525000Y-79590000D03*
X100525000Y-80610000D03*
D35*
X195937500Y-102450000D03*
X194362500Y-102450000D03*
D18*
X181525000Y-73055000D03*
X181525000Y-74355000D03*
X183525000Y-73705000D03*
D15*
X108080000Y-70925000D03*
X108770000Y-70925000D03*
D36*
X109175000Y-73125000D03*
X109175000Y-72625000D03*
X109175000Y-72125000D03*
X107675000Y-72125000D03*
X107675000Y-72625000D03*
X107675000Y-73125000D03*
D24*
X170710000Y-87350000D03*
X169690000Y-87350000D03*
D37*
X164300000Y-101775000D03*
X163100000Y-101775000D03*
X163100000Y-103575000D03*
X164300000Y-103575000D03*
D20*
X97325000Y-79580000D03*
X97325000Y-80600000D03*
D30*
X170875000Y-80050000D03*
X170875000Y-79360000D03*
D20*
X105325000Y-79580000D03*
X105325000Y-80600000D03*
D25*
X165850000Y-87655000D03*
X165850000Y-88345000D03*
D38*
X201050000Y-95350000D03*
X201050000Y-94400000D03*
X201050000Y-93450000D03*
X198775000Y-93450000D03*
X198775000Y-94400000D03*
X198775000Y-95350000D03*
D28*
X200675000Y-91600000D03*
X199125000Y-91600000D03*
D39*
X132500000Y-102150000D03*
X132500000Y-72850000D03*
D16*
X150895000Y-74840000D03*
X150205000Y-74840000D03*
D40*
X155620000Y-99750000D03*
X156580000Y-99750000D03*
D19*
X175350000Y-85925000D03*
X175350000Y-87575000D03*
D20*
X109435000Y-79590000D03*
X109435000Y-80610000D03*
D24*
X101385000Y-74450000D03*
X100365000Y-74450000D03*
D15*
X102680000Y-74550000D03*
X103370000Y-74550000D03*
D24*
X195672500Y-104000000D03*
X194652500Y-104000000D03*
X113495000Y-74400000D03*
X112475000Y-74400000D03*
D19*
X177125000Y-85925000D03*
X177125000Y-87575000D03*
D25*
X168625000Y-87455000D03*
X168625000Y-88145000D03*
D19*
X196100000Y-93575000D03*
X196100000Y-95225000D03*
D17*
X104675000Y-75660000D03*
X104675000Y-74640000D03*
D41*
X172750000Y-77800000D03*
X172750000Y-79070000D03*
X172750000Y-80340000D03*
X172750000Y-81610000D03*
X177700000Y-81610000D03*
X177700000Y-80340000D03*
X177700000Y-79070000D03*
X177700000Y-77800000D03*
D42*
X167625000Y-102912500D03*
X168275000Y-102912500D03*
X168925000Y-102912500D03*
X169575000Y-102912500D03*
X169575000Y-97187500D03*
X168925000Y-97187500D03*
X168275000Y-97187500D03*
X167625000Y-97187500D03*
D30*
X146050000Y-93615000D03*
X146050000Y-92925000D03*
D29*
X179825000Y-74375000D03*
X179825000Y-75335000D03*
D16*
X179765000Y-88325000D03*
X179075000Y-88325000D03*
D20*
X98925000Y-79580000D03*
X98925000Y-80600000D03*
X117050000Y-70690000D03*
X117050000Y-71710000D03*
D40*
X153270000Y-99500000D03*
X154230000Y-99500000D03*
D15*
X148640000Y-74840000D03*
X149330000Y-74840000D03*
D20*
X114235000Y-79590000D03*
X114235000Y-80610000D03*
D19*
X185125000Y-85925000D03*
X185125000Y-87575000D03*
D43*
X150725000Y-72675000D03*
X150075000Y-72675000D03*
X149425000Y-72675000D03*
X148775000Y-72675000D03*
X148125000Y-72675000D03*
D44*
X152725000Y-70000000D03*
D45*
X152625000Y-72450000D03*
D46*
X150625000Y-70000000D03*
X148225000Y-70000000D03*
D45*
X146225000Y-72450000D03*
D44*
X146125000Y-70000000D03*
D40*
X151000000Y-99500000D03*
X151960000Y-99500000D03*
D17*
X116785000Y-75610000D03*
X116785000Y-74590000D03*
D15*
X149280000Y-78050000D03*
X149970000Y-78050000D03*
D28*
X207000000Y-99025000D03*
X205450000Y-99025000D03*
D29*
X179825000Y-80375000D03*
X179825000Y-81335000D03*
D20*
X117435000Y-79590000D03*
X117435000Y-80610000D03*
D19*
X183425000Y-85925000D03*
X183425000Y-87575000D03*
D21*
X179825000Y-79035000D03*
X179825000Y-78075000D03*
D47*
X149500000Y-95175000D03*
X150000000Y-95175000D03*
X150500000Y-95175000D03*
X151000000Y-95175000D03*
X151500000Y-95175000D03*
X152000000Y-95175000D03*
X152500000Y-95175000D03*
X153000000Y-95175000D03*
X153500000Y-95175000D03*
X154000000Y-95175000D03*
X154500000Y-95175000D03*
X155000000Y-95175000D03*
X155500000Y-95175000D03*
X156000000Y-95175000D03*
X156500000Y-95175000D03*
X157000000Y-95175000D03*
X157500000Y-95175000D03*
X158000000Y-95175000D03*
X158500000Y-95175000D03*
X159000000Y-95175000D03*
X159500000Y-95175000D03*
X160000000Y-95175000D03*
X160500000Y-95175000D03*
X161000000Y-95175000D03*
X161500000Y-95175000D03*
D48*
X163175000Y-93500000D03*
X163175000Y-93000000D03*
X163175000Y-92500000D03*
X163175000Y-92000000D03*
X163175000Y-91500000D03*
X163175000Y-91000000D03*
X163175000Y-90500000D03*
X163175000Y-90000000D03*
X163175000Y-89500000D03*
X163175000Y-89000000D03*
X163175000Y-88500000D03*
X163175000Y-88000000D03*
X163175000Y-87500000D03*
X163175000Y-87000000D03*
X163175000Y-86500000D03*
X163175000Y-86000000D03*
X163175000Y-85500000D03*
X163175000Y-85000000D03*
X163175000Y-84500000D03*
X163175000Y-84000000D03*
X163175000Y-83500000D03*
X163175000Y-83000000D03*
X163175000Y-82500000D03*
X163175000Y-82000000D03*
X163175000Y-81500000D03*
D47*
X161500000Y-79825000D03*
X161000000Y-79825000D03*
X160500000Y-79825000D03*
X160000000Y-79825000D03*
X159500000Y-79825000D03*
X159000000Y-79825000D03*
X158500000Y-79825000D03*
X158000000Y-79825000D03*
X157500000Y-79825000D03*
X157000000Y-79825000D03*
X156500000Y-79825000D03*
X156000000Y-79825000D03*
X155500000Y-79825000D03*
X155000000Y-79825000D03*
X154500000Y-79825000D03*
X154000000Y-79825000D03*
X153500000Y-79825000D03*
X153000000Y-79825000D03*
X152500000Y-79825000D03*
X152000000Y-79825000D03*
X151500000Y-79825000D03*
X151000000Y-79825000D03*
X150500000Y-79825000D03*
X150000000Y-79825000D03*
X149500000Y-79825000D03*
D48*
X147825000Y-81500000D03*
X147825000Y-82000000D03*
X147825000Y-82500000D03*
X147825000Y-83000000D03*
X147825000Y-83500000D03*
X147825000Y-84000000D03*
X147825000Y-84500000D03*
X147825000Y-85000000D03*
X147825000Y-85500000D03*
X147825000Y-86000000D03*
X147825000Y-86500000D03*
X147825000Y-87000000D03*
X147825000Y-87500000D03*
X147825000Y-88000000D03*
X147825000Y-88500000D03*
X147825000Y-89000000D03*
X147825000Y-89500000D03*
X147825000Y-90000000D03*
X147825000Y-90500000D03*
X147825000Y-91000000D03*
X147825000Y-91500000D03*
X147825000Y-92000000D03*
X147825000Y-92500000D03*
X147825000Y-93000000D03*
X147825000Y-93500000D03*
D20*
X111035000Y-79590000D03*
X111035000Y-80610000D03*
D49*
X164550000Y-76575000D03*
X169050000Y-76575000D03*
X164550000Y-78725000D03*
X169050000Y-78725000D03*
D40*
X165920000Y-89400000D03*
X166880000Y-89400000D03*
D41*
X172750000Y-71800000D03*
X172750000Y-73070000D03*
X172750000Y-74340000D03*
X172750000Y-75610000D03*
X177700000Y-75610000D03*
X177700000Y-74340000D03*
X177700000Y-73070000D03*
X177700000Y-71800000D03*
M02*
