G04 #@! TF.GenerationSoftware,KiCad,Pcbnew,7.0.10-7.0.10~ubuntu22.04.1*
G04 #@! TF.CreationDate,2024-02-08T17:20:11-05:00*
G04 #@! TF.ProjectId,daughterBoard,64617567-6874-4657-9242-6f6172642e6b,rev?*
G04 #@! TF.SameCoordinates,Original*
G04 #@! TF.FileFunction,Paste,Bot*
G04 #@! TF.FilePolarity,Positive*
%FSLAX46Y46*%
G04 Gerber Fmt 4.6, Leading zero omitted, Abs format (unit mm)*
G04 Created by KiCad (PCBNEW 7.0.10-7.0.10~ubuntu22.04.1) date 2024-02-08 17:20:11*
%MOMM*%
%LPD*%
G01*
G04 APERTURE LIST*
%ADD10R,0.200000X0.700000*%
%ADD11R,0.700000X0.200000*%
G04 APERTURE END LIST*
D10*
X202300000Y-77040000D03*
X201900000Y-77040000D03*
X201500000Y-77040000D03*
X201100000Y-77040000D03*
X200700000Y-77040000D03*
X200300000Y-77040000D03*
X199900000Y-77040000D03*
X199500000Y-77040000D03*
X199100000Y-77040000D03*
X198700000Y-77040000D03*
X198300000Y-77040000D03*
X197900000Y-77040000D03*
X197500000Y-77040000D03*
X197100000Y-77040000D03*
X196700000Y-77040000D03*
X202300000Y-73960000D03*
X201900000Y-73960000D03*
X201500000Y-73960000D03*
X201100000Y-73960000D03*
X200700000Y-73960000D03*
X200300000Y-73960000D03*
X199900000Y-73960000D03*
X199500000Y-73960000D03*
X199100000Y-73960000D03*
X198700000Y-73960000D03*
X198300000Y-73960000D03*
X197900000Y-73960000D03*
X197500000Y-73960000D03*
X197100000Y-73960000D03*
X196700000Y-73960000D03*
D11*
X215640000Y-92200000D03*
X215640000Y-92600000D03*
X215640000Y-93000000D03*
X215640000Y-93400000D03*
X215640000Y-93800000D03*
X215640000Y-94200000D03*
X215640000Y-94600000D03*
X215640000Y-95000000D03*
X215640000Y-95400000D03*
X215640000Y-95800000D03*
X215640000Y-96200000D03*
X215640000Y-96600000D03*
X215640000Y-97000000D03*
X215640000Y-97400000D03*
X215640000Y-97800000D03*
X212560000Y-92200000D03*
X212560000Y-92600000D03*
X212560000Y-93000000D03*
X212560000Y-93400000D03*
X212560000Y-93800000D03*
X212560000Y-94200000D03*
X212560000Y-94600000D03*
X212560000Y-95000000D03*
X212560000Y-95400000D03*
X212560000Y-95800000D03*
X212560000Y-96200000D03*
X212560000Y-96600000D03*
X212560000Y-97000000D03*
X212560000Y-97400000D03*
X212560000Y-97800000D03*
D10*
X151700000Y-89460000D03*
X152100000Y-89460000D03*
X152500000Y-89460000D03*
X152900000Y-89460000D03*
X153300000Y-89460000D03*
X153700000Y-89460000D03*
X154100000Y-89460000D03*
X154500000Y-89460000D03*
X154900000Y-89460000D03*
X155300000Y-89460000D03*
X155700000Y-89460000D03*
X156100000Y-89460000D03*
X156500000Y-89460000D03*
X156900000Y-89460000D03*
X157300000Y-89460000D03*
X157700000Y-89460000D03*
X158100000Y-89460000D03*
X158500000Y-89460000D03*
X158900000Y-89460000D03*
X159300000Y-89460000D03*
X151700000Y-92540000D03*
X152100000Y-92540000D03*
X152500000Y-92540000D03*
X152900000Y-92540000D03*
X153300000Y-92540000D03*
X153700000Y-92540000D03*
X154100000Y-92540000D03*
X154500000Y-92540000D03*
X154900000Y-92540000D03*
X155300000Y-92540000D03*
X155700000Y-92540000D03*
X156100000Y-92540000D03*
X156500000Y-92540000D03*
X156900000Y-92540000D03*
X157300000Y-92540000D03*
X157700000Y-92540000D03*
X158100000Y-92540000D03*
X158500000Y-92540000D03*
X158900000Y-92540000D03*
X159300000Y-92540000D03*
X159300000Y-85540000D03*
X158900000Y-85540000D03*
X158500000Y-85540000D03*
X158100000Y-85540000D03*
X157700000Y-85540000D03*
X157300000Y-85540000D03*
X156900000Y-85540000D03*
X156500000Y-85540000D03*
X156100000Y-85540000D03*
X155700000Y-85540000D03*
X155300000Y-85540000D03*
X154900000Y-85540000D03*
X154500000Y-85540000D03*
X154100000Y-85540000D03*
X153700000Y-85540000D03*
X153300000Y-85540000D03*
X152900000Y-85540000D03*
X152500000Y-85540000D03*
X152100000Y-85540000D03*
X151700000Y-85540000D03*
X159300000Y-82460000D03*
X158900000Y-82460000D03*
X158500000Y-82460000D03*
X158100000Y-82460000D03*
X157700000Y-82460000D03*
X157300000Y-82460000D03*
X156900000Y-82460000D03*
X156500000Y-82460000D03*
X156100000Y-82460000D03*
X155700000Y-82460000D03*
X155300000Y-82460000D03*
X154900000Y-82460000D03*
X154500000Y-82460000D03*
X154100000Y-82460000D03*
X153700000Y-82460000D03*
X153300000Y-82460000D03*
X152900000Y-82460000D03*
X152500000Y-82460000D03*
X152100000Y-82460000D03*
X151700000Y-82460000D03*
M02*
