G04 #@! TF.GenerationSoftware,KiCad,Pcbnew,7.0.10-7.0.10~ubuntu22.04.1*
G04 #@! TF.CreationDate,2024-02-08T17:20:11-05:00*
G04 #@! TF.ProjectId,daughterBoard,64617567-6874-4657-9242-6f6172642e6b,rev?*
G04 #@! TF.SameCoordinates,Original*
G04 #@! TF.FileFunction,Legend,Top*
G04 #@! TF.FilePolarity,Positive*
%FSLAX46Y46*%
G04 Gerber Fmt 4.6, Leading zero omitted, Abs format (unit mm)*
G04 Created by KiCad (PCBNEW 7.0.10-7.0.10~ubuntu22.04.1) date 2024-02-08 17:20:11*
%MOMM*%
%LPD*%
G01*
G04 APERTURE LIST*
G04 Aperture macros list*
%AMRoundRect*
0 Rectangle with rounded corners*
0 $1 Rounding radius*
0 $2 $3 $4 $5 $6 $7 $8 $9 X,Y pos of 4 corners*
0 Add a 4 corners polygon primitive as box body*
4,1,4,$2,$3,$4,$5,$6,$7,$8,$9,$2,$3,0*
0 Add four circle primitives for the rounded corners*
1,1,$1+$1,$2,$3*
1,1,$1+$1,$4,$5*
1,1,$1+$1,$6,$7*
1,1,$1+$1,$8,$9*
0 Add four rect primitives between the rounded corners*
20,1,$1+$1,$2,$3,$4,$5,0*
20,1,$1+$1,$4,$5,$6,$7,0*
20,1,$1+$1,$6,$7,$8,$9,0*
20,1,$1+$1,$8,$9,$2,$3,0*%
G04 Aperture macros list end*
%ADD10C,0.150000*%
%ADD11C,0.300000*%
%ADD12C,0.160000*%
%ADD13C,0.120000*%
%ADD14C,0.200000*%
%ADD15C,0.240000*%
%ADD16C,0.100000*%
%ADD17C,0.342843*%
%ADD18R,0.200000X0.600000*%
%ADD19R,0.200000X0.500000*%
%ADD20R,0.500000X0.200000*%
%ADD21RoundRect,0.140000X0.140000X0.170000X-0.140000X0.170000X-0.140000X-0.170000X0.140000X-0.170000X0*%
%ADD22RoundRect,0.135000X-0.135000X-0.185000X0.135000X-0.185000X0.135000X0.185000X-0.135000X0.185000X0*%
%ADD23RoundRect,0.100000X-0.130000X-0.100000X0.130000X-0.100000X0.130000X0.100000X-0.130000X0.100000X0*%
%ADD24RoundRect,0.100000X0.130000X0.100000X-0.130000X0.100000X-0.130000X-0.100000X0.130000X-0.100000X0*%
%ADD25RoundRect,0.135000X0.185000X-0.135000X0.185000X0.135000X-0.185000X0.135000X-0.185000X-0.135000X0*%
%ADD26R,0.700000X0.450000*%
%ADD27RoundRect,0.200000X-0.275000X0.200000X-0.275000X-0.200000X0.275000X-0.200000X0.275000X0.200000X0*%
%ADD28C,3.500000*%
%ADD29RoundRect,0.135000X-0.185000X0.135000X-0.185000X-0.135000X0.185000X-0.135000X0.185000X0.135000X0*%
%ADD30RoundRect,0.140000X0.170000X-0.140000X0.170000X0.140000X-0.170000X0.140000X-0.170000X-0.140000X0*%
%ADD31RoundRect,0.150000X0.150000X-0.825000X0.150000X0.825000X-0.150000X0.825000X-0.150000X-0.825000X0*%
%ADD32R,1.000000X1.000000*%
%ADD33O,1.000000X1.000000*%
%ADD34R,1.400000X2.600000*%
%ADD35C,1.500000*%
%ADD36RoundRect,0.135000X0.135000X0.185000X-0.135000X0.185000X-0.135000X-0.185000X0.135000X-0.185000X0*%
%ADD37RoundRect,0.100000X-0.100000X0.130000X-0.100000X-0.130000X0.100000X-0.130000X0.100000X0.130000X0*%
%ADD38R,1.000000X1.800000*%
%ADD39C,0.900000*%
%ADD40R,1.000000X1.600000*%
%ADD41RoundRect,0.225000X0.225000X0.250000X-0.225000X0.250000X-0.225000X-0.250000X0.225000X-0.250000X0*%
%ADD42RoundRect,0.140000X-0.170000X0.140000X-0.170000X-0.140000X0.170000X-0.140000X0.170000X0.140000X0*%
%ADD43R,4.000000X4.000000*%
%ADD44RoundRect,0.100000X0.100000X-0.130000X0.100000X0.130000X-0.100000X0.130000X-0.100000X-0.130000X0*%
%ADD45C,0.950000*%
%ADD46RoundRect,0.102000X-0.310000X-0.700000X0.310000X-0.700000X0.310000X0.700000X-0.310000X0.700000X0*%
%ADD47RoundRect,0.102000X-0.550000X-1.200000X0.550000X-1.200000X0.550000X1.200000X-0.550000X1.200000X0*%
%ADD48R,1.000000X1.150000*%
%ADD49R,1.550000X4.900000*%
%ADD50RoundRect,0.218750X0.218750X0.256250X-0.218750X0.256250X-0.218750X-0.256250X0.218750X-0.256250X0*%
%ADD51R,0.700000X0.340000*%
%ADD52R,0.800000X0.900000*%
%ADD53C,2.374900*%
%ADD54C,0.990600*%
%ADD55C,0.787400*%
%ADD56RoundRect,0.150000X0.512500X0.150000X-0.512500X0.150000X-0.512500X-0.150000X0.512500X-0.150000X0*%
%ADD57R,4.200000X3.200000*%
%ADD58RoundRect,0.140000X-0.140000X-0.170000X0.140000X-0.170000X0.140000X0.170000X-0.140000X0.170000X0*%
%ADD59RoundRect,0.150000X-0.825000X-0.150000X0.825000X-0.150000X0.825000X0.150000X-0.825000X0.150000X0*%
%ADD60RoundRect,0.100000X0.100000X-0.637500X0.100000X0.637500X-0.100000X0.637500X-0.100000X-0.637500X0*%
%ADD61RoundRect,0.100000X0.100000X0.575000X-0.100000X0.575000X-0.100000X-0.575000X0.100000X-0.575000X0*%
%ADD62O,0.900000X1.600000*%
%ADD63RoundRect,0.250000X0.550000X0.450000X-0.550000X0.450000X-0.550000X-0.450000X0.550000X-0.450000X0*%
%ADD64RoundRect,0.250000X0.700000X0.700000X-0.700000X0.700000X-0.700000X-0.700000X0.700000X-0.700000X0*%
%ADD65RoundRect,0.075000X0.075000X-0.725000X0.075000X0.725000X-0.075000X0.725000X-0.075000X-0.725000X0*%
%ADD66RoundRect,0.075000X0.725000X-0.075000X0.725000X0.075000X-0.725000X0.075000X-0.725000X-0.075000X0*%
%ADD67R,1.000000X0.700000*%
G04 APERTURE END LIST*
D10*
X128700000Y-98500000D02*
X136300000Y-98500000D01*
D11*
X106054510Y-104600828D02*
X106054510Y-103100828D01*
X106054510Y-103100828D02*
X106911653Y-104600828D01*
X106911653Y-104600828D02*
X106911653Y-103100828D01*
X107911654Y-103886542D02*
X107911654Y-104600828D01*
X107411654Y-103100828D02*
X107911654Y-103886542D01*
X107911654Y-103886542D02*
X108411654Y-103100828D01*
X108911653Y-103100828D02*
X108911653Y-104315114D01*
X108911653Y-104315114D02*
X108983082Y-104457971D01*
X108983082Y-104457971D02*
X109054511Y-104529400D01*
X109054511Y-104529400D02*
X109197368Y-104600828D01*
X109197368Y-104600828D02*
X109483082Y-104600828D01*
X109483082Y-104600828D02*
X109625939Y-104529400D01*
X109625939Y-104529400D02*
X109697368Y-104457971D01*
X109697368Y-104457971D02*
X109768796Y-104315114D01*
X109768796Y-104315114D02*
X109768796Y-103100828D01*
X112125939Y-103815114D02*
X111625939Y-103815114D01*
X111625939Y-104600828D02*
X111625939Y-103100828D01*
X111625939Y-103100828D02*
X112340225Y-103100828D01*
X112840225Y-104529400D02*
X113054511Y-104600828D01*
X113054511Y-104600828D02*
X113411653Y-104600828D01*
X113411653Y-104600828D02*
X113554511Y-104529400D01*
X113554511Y-104529400D02*
X113625939Y-104457971D01*
X113625939Y-104457971D02*
X113697368Y-104315114D01*
X113697368Y-104315114D02*
X113697368Y-104172257D01*
X113697368Y-104172257D02*
X113625939Y-104029400D01*
X113625939Y-104029400D02*
X113554511Y-103957971D01*
X113554511Y-103957971D02*
X113411653Y-103886542D01*
X113411653Y-103886542D02*
X113125939Y-103815114D01*
X113125939Y-103815114D02*
X112983082Y-103743685D01*
X112983082Y-103743685D02*
X112911653Y-103672257D01*
X112911653Y-103672257D02*
X112840225Y-103529400D01*
X112840225Y-103529400D02*
X112840225Y-103386542D01*
X112840225Y-103386542D02*
X112911653Y-103243685D01*
X112911653Y-103243685D02*
X112983082Y-103172257D01*
X112983082Y-103172257D02*
X113125939Y-103100828D01*
X113125939Y-103100828D02*
X113483082Y-103100828D01*
X113483082Y-103100828D02*
X113697368Y-103172257D01*
X114268796Y-104172257D02*
X114983082Y-104172257D01*
X114125939Y-104600828D02*
X114625939Y-103100828D01*
X114625939Y-103100828D02*
X115125939Y-104600828D01*
X115625938Y-103815114D02*
X116125938Y-103815114D01*
X116340224Y-104600828D02*
X115625938Y-104600828D01*
X115625938Y-104600828D02*
X115625938Y-103100828D01*
X115625938Y-103100828D02*
X116340224Y-103100828D01*
X118125938Y-103815114D02*
X118625938Y-103815114D01*
X118840224Y-104600828D02*
X118125938Y-104600828D01*
X118125938Y-104600828D02*
X118125938Y-103100828D01*
X118125938Y-103100828D02*
X118840224Y-103100828D01*
X119483081Y-104600828D02*
X119483081Y-103600828D01*
X119483081Y-103743685D02*
X119554510Y-103672257D01*
X119554510Y-103672257D02*
X119697367Y-103600828D01*
X119697367Y-103600828D02*
X119911653Y-103600828D01*
X119911653Y-103600828D02*
X120054510Y-103672257D01*
X120054510Y-103672257D02*
X120125939Y-103815114D01*
X120125939Y-103815114D02*
X120125939Y-104600828D01*
X120125939Y-103815114D02*
X120197367Y-103672257D01*
X120197367Y-103672257D02*
X120340224Y-103600828D01*
X120340224Y-103600828D02*
X120554510Y-103600828D01*
X120554510Y-103600828D02*
X120697367Y-103672257D01*
X120697367Y-103672257D02*
X120768796Y-103815114D01*
X120768796Y-103815114D02*
X120768796Y-104600828D01*
X121483081Y-104600828D02*
X121483081Y-103100828D01*
X121483081Y-103672257D02*
X121625939Y-103600828D01*
X121625939Y-103600828D02*
X121911653Y-103600828D01*
X121911653Y-103600828D02*
X122054510Y-103672257D01*
X122054510Y-103672257D02*
X122125939Y-103743685D01*
X122125939Y-103743685D02*
X122197367Y-103886542D01*
X122197367Y-103886542D02*
X122197367Y-104315114D01*
X122197367Y-104315114D02*
X122125939Y-104457971D01*
X122125939Y-104457971D02*
X122054510Y-104529400D01*
X122054510Y-104529400D02*
X121911653Y-104600828D01*
X121911653Y-104600828D02*
X121625939Y-104600828D01*
X121625939Y-104600828D02*
X121483081Y-104529400D01*
X123411653Y-104529400D02*
X123268796Y-104600828D01*
X123268796Y-104600828D02*
X122983082Y-104600828D01*
X122983082Y-104600828D02*
X122840224Y-104529400D01*
X122840224Y-104529400D02*
X122768796Y-104386542D01*
X122768796Y-104386542D02*
X122768796Y-103815114D01*
X122768796Y-103815114D02*
X122840224Y-103672257D01*
X122840224Y-103672257D02*
X122983082Y-103600828D01*
X122983082Y-103600828D02*
X123268796Y-103600828D01*
X123268796Y-103600828D02*
X123411653Y-103672257D01*
X123411653Y-103672257D02*
X123483082Y-103815114D01*
X123483082Y-103815114D02*
X123483082Y-103957971D01*
X123483082Y-103957971D02*
X122768796Y-104100828D01*
X124768796Y-104600828D02*
X124768796Y-103100828D01*
X124768796Y-104529400D02*
X124625938Y-104600828D01*
X124625938Y-104600828D02*
X124340224Y-104600828D01*
X124340224Y-104600828D02*
X124197367Y-104529400D01*
X124197367Y-104529400D02*
X124125938Y-104457971D01*
X124125938Y-104457971D02*
X124054510Y-104315114D01*
X124054510Y-104315114D02*
X124054510Y-103886542D01*
X124054510Y-103886542D02*
X124125938Y-103743685D01*
X124125938Y-103743685D02*
X124197367Y-103672257D01*
X124197367Y-103672257D02*
X124340224Y-103600828D01*
X124340224Y-103600828D02*
X124625938Y-103600828D01*
X124625938Y-103600828D02*
X124768796Y-103672257D01*
X126125939Y-104600828D02*
X126125939Y-103100828D01*
X126125939Y-104529400D02*
X125983081Y-104600828D01*
X125983081Y-104600828D02*
X125697367Y-104600828D01*
X125697367Y-104600828D02*
X125554510Y-104529400D01*
X125554510Y-104529400D02*
X125483081Y-104457971D01*
X125483081Y-104457971D02*
X125411653Y-104315114D01*
X125411653Y-104315114D02*
X125411653Y-103886542D01*
X125411653Y-103886542D02*
X125483081Y-103743685D01*
X125483081Y-103743685D02*
X125554510Y-103672257D01*
X125554510Y-103672257D02*
X125697367Y-103600828D01*
X125697367Y-103600828D02*
X125983081Y-103600828D01*
X125983081Y-103600828D02*
X126125939Y-103672257D01*
X127411653Y-104529400D02*
X127268796Y-104600828D01*
X127268796Y-104600828D02*
X126983082Y-104600828D01*
X126983082Y-104600828D02*
X126840224Y-104529400D01*
X126840224Y-104529400D02*
X126768796Y-104386542D01*
X126768796Y-104386542D02*
X126768796Y-103815114D01*
X126768796Y-103815114D02*
X126840224Y-103672257D01*
X126840224Y-103672257D02*
X126983082Y-103600828D01*
X126983082Y-103600828D02*
X127268796Y-103600828D01*
X127268796Y-103600828D02*
X127411653Y-103672257D01*
X127411653Y-103672257D02*
X127483082Y-103815114D01*
X127483082Y-103815114D02*
X127483082Y-103957971D01*
X127483082Y-103957971D02*
X126768796Y-104100828D01*
X128768796Y-104600828D02*
X128768796Y-103100828D01*
X128768796Y-104529400D02*
X128625938Y-104600828D01*
X128625938Y-104600828D02*
X128340224Y-104600828D01*
X128340224Y-104600828D02*
X128197367Y-104529400D01*
X128197367Y-104529400D02*
X128125938Y-104457971D01*
X128125938Y-104457971D02*
X128054510Y-104315114D01*
X128054510Y-104315114D02*
X128054510Y-103886542D01*
X128054510Y-103886542D02*
X128125938Y-103743685D01*
X128125938Y-103743685D02*
X128197367Y-103672257D01*
X128197367Y-103672257D02*
X128340224Y-103600828D01*
X128340224Y-103600828D02*
X128625938Y-103600828D01*
X128625938Y-103600828D02*
X128768796Y-103672257D01*
D12*
X191643358Y-72988346D02*
X192405263Y-72988346D01*
X192024310Y-73369299D02*
X192024310Y-72607394D01*
X191643358Y-78988346D02*
X192405263Y-78988346D01*
X192024310Y-79369299D02*
X192024310Y-78607394D01*
D11*
X150143648Y-91703360D02*
X150901262Y-92460974D01*
X150901262Y-92460974D02*
X151002278Y-92663005D01*
X151002278Y-92663005D02*
X151002278Y-92865035D01*
X151002278Y-92865035D02*
X150901262Y-93067066D01*
X150901262Y-93067066D02*
X150800247Y-93168081D01*
X152214461Y-91753867D02*
X151709384Y-92258944D01*
X151709384Y-92258944D02*
X150648724Y-91198284D01*
X153073090Y-90693207D02*
X153073090Y-90794222D01*
X153073090Y-90794222D02*
X152972075Y-90996253D01*
X152972075Y-90996253D02*
X152871060Y-91097268D01*
X152871060Y-91097268D02*
X152669029Y-91198283D01*
X152669029Y-91198283D02*
X152466999Y-91198283D01*
X152466999Y-91198283D02*
X152315476Y-91147776D01*
X152315476Y-91147776D02*
X152062938Y-90996253D01*
X152062938Y-90996253D02*
X151911415Y-90844730D01*
X151911415Y-90844730D02*
X151759892Y-90592192D01*
X151759892Y-90592192D02*
X151709385Y-90440669D01*
X151709385Y-90440669D02*
X151709385Y-90238638D01*
X151709385Y-90238638D02*
X151810400Y-90036608D01*
X151810400Y-90036608D02*
X151911415Y-89935593D01*
X151911415Y-89935593D02*
X152113446Y-89834577D01*
X152113446Y-89834577D02*
X152214461Y-89834577D01*
X152871060Y-88975948D02*
X153628674Y-89733562D01*
X153628674Y-89733562D02*
X153729690Y-89935593D01*
X153729690Y-89935593D02*
X153729690Y-90137623D01*
X153729690Y-90137623D02*
X153628674Y-90339654D01*
X153628674Y-90339654D02*
X153527659Y-90440669D01*
X154941873Y-89026455D02*
X154436796Y-89531532D01*
X154436796Y-89531532D02*
X153376136Y-88470872D01*
X155800502Y-87965795D02*
X155800502Y-88066810D01*
X155800502Y-88066810D02*
X155699487Y-88268841D01*
X155699487Y-88268841D02*
X155598472Y-88369856D01*
X155598472Y-88369856D02*
X155396441Y-88470871D01*
X155396441Y-88470871D02*
X155194411Y-88470871D01*
X155194411Y-88470871D02*
X155042888Y-88420364D01*
X155042888Y-88420364D02*
X154790350Y-88268841D01*
X154790350Y-88268841D02*
X154638827Y-88117318D01*
X154638827Y-88117318D02*
X154487304Y-87864780D01*
X154487304Y-87864780D02*
X154436797Y-87713257D01*
X154436797Y-87713257D02*
X154436797Y-87511226D01*
X154436797Y-87511226D02*
X154537812Y-87309196D01*
X154537812Y-87309196D02*
X154638827Y-87208181D01*
X154638827Y-87208181D02*
X154840858Y-87107165D01*
X154840858Y-87107165D02*
X154941873Y-87107165D01*
X155598472Y-86248536D02*
X156356086Y-87006150D01*
X156356086Y-87006150D02*
X156457102Y-87208181D01*
X156457102Y-87208181D02*
X156457102Y-87410211D01*
X156457102Y-87410211D02*
X156356086Y-87612242D01*
X156356086Y-87612242D02*
X156255071Y-87713257D01*
X157669285Y-86299043D02*
X157164208Y-86804120D01*
X157164208Y-86804120D02*
X156103548Y-85743460D01*
X158527914Y-85238383D02*
X158527914Y-85339398D01*
X158527914Y-85339398D02*
X158426899Y-85541429D01*
X158426899Y-85541429D02*
X158325884Y-85642444D01*
X158325884Y-85642444D02*
X158123853Y-85743459D01*
X158123853Y-85743459D02*
X157921823Y-85743459D01*
X157921823Y-85743459D02*
X157770300Y-85692952D01*
X157770300Y-85692952D02*
X157517762Y-85541429D01*
X157517762Y-85541429D02*
X157366239Y-85389906D01*
X157366239Y-85389906D02*
X157214716Y-85137368D01*
X157214716Y-85137368D02*
X157164208Y-84985845D01*
X157164208Y-84985845D02*
X157164208Y-84783814D01*
X157164208Y-84783814D02*
X157265224Y-84581784D01*
X157265224Y-84581784D02*
X157366239Y-84480769D01*
X157366239Y-84480769D02*
X157568270Y-84379753D01*
X157568270Y-84379753D02*
X157669285Y-84379753D01*
X158325884Y-83521124D02*
X159083498Y-84278738D01*
X159083498Y-84278738D02*
X159184514Y-84480769D01*
X159184514Y-84480769D02*
X159184514Y-84682799D01*
X159184514Y-84682799D02*
X159083498Y-84884830D01*
X159083498Y-84884830D02*
X158982483Y-84985845D01*
X160396697Y-83571632D02*
X159891620Y-84076708D01*
X159891620Y-84076708D02*
X158830960Y-83016048D01*
X161255326Y-82510971D02*
X161255326Y-82611986D01*
X161255326Y-82611986D02*
X161154311Y-82814017D01*
X161154311Y-82814017D02*
X161053296Y-82915032D01*
X161053296Y-82915032D02*
X160851265Y-83016047D01*
X160851265Y-83016047D02*
X160649235Y-83016047D01*
X160649235Y-83016047D02*
X160497712Y-82965540D01*
X160497712Y-82965540D02*
X160245174Y-82814017D01*
X160245174Y-82814017D02*
X160093651Y-82662494D01*
X160093651Y-82662494D02*
X159942128Y-82409956D01*
X159942128Y-82409956D02*
X159891620Y-82258433D01*
X159891620Y-82258433D02*
X159891620Y-82056403D01*
X159891620Y-82056403D02*
X159992636Y-81854372D01*
X159992636Y-81854372D02*
X160093651Y-81753357D01*
X160093651Y-81753357D02*
X160295681Y-81652341D01*
X160295681Y-81652341D02*
X160396697Y-81652341D01*
D12*
X193743358Y-106269299D02*
X193743358Y-105269299D01*
X193743358Y-105269299D02*
X194124310Y-105269299D01*
X194124310Y-105269299D02*
X194219548Y-105316918D01*
X194219548Y-105316918D02*
X194267167Y-105364537D01*
X194267167Y-105364537D02*
X194314786Y-105459775D01*
X194314786Y-105459775D02*
X194314786Y-105602632D01*
X194314786Y-105602632D02*
X194267167Y-105697870D01*
X194267167Y-105697870D02*
X194219548Y-105745489D01*
X194219548Y-105745489D02*
X194124310Y-105793108D01*
X194124310Y-105793108D02*
X193743358Y-105793108D01*
X194648120Y-105269299D02*
X194886215Y-106269299D01*
X194886215Y-106269299D02*
X195076691Y-105555013D01*
X195076691Y-105555013D02*
X195267167Y-106269299D01*
X195267167Y-106269299D02*
X195505263Y-105269299D01*
X196457643Y-106269299D02*
X196124310Y-105793108D01*
X195886215Y-106269299D02*
X195886215Y-105269299D01*
X195886215Y-105269299D02*
X196267167Y-105269299D01*
X196267167Y-105269299D02*
X196362405Y-105316918D01*
X196362405Y-105316918D02*
X196410024Y-105364537D01*
X196410024Y-105364537D02*
X196457643Y-105459775D01*
X196457643Y-105459775D02*
X196457643Y-105602632D01*
X196457643Y-105602632D02*
X196410024Y-105697870D01*
X196410024Y-105697870D02*
X196362405Y-105745489D01*
X196362405Y-105745489D02*
X196267167Y-105793108D01*
X196267167Y-105793108D02*
X195886215Y-105793108D01*
X189516666Y-70654299D02*
X189516666Y-71368584D01*
X189516666Y-71368584D02*
X189469047Y-71511441D01*
X189469047Y-71511441D02*
X189373809Y-71606680D01*
X189373809Y-71606680D02*
X189230952Y-71654299D01*
X189230952Y-71654299D02*
X189135714Y-71654299D01*
X190469047Y-70654299D02*
X189992857Y-70654299D01*
X189992857Y-70654299D02*
X189945238Y-71130489D01*
X189945238Y-71130489D02*
X189992857Y-71082870D01*
X189992857Y-71082870D02*
X190088095Y-71035251D01*
X190088095Y-71035251D02*
X190326190Y-71035251D01*
X190326190Y-71035251D02*
X190421428Y-71082870D01*
X190421428Y-71082870D02*
X190469047Y-71130489D01*
X190469047Y-71130489D02*
X190516666Y-71225727D01*
X190516666Y-71225727D02*
X190516666Y-71463822D01*
X190516666Y-71463822D02*
X190469047Y-71559060D01*
X190469047Y-71559060D02*
X190421428Y-71606680D01*
X190421428Y-71606680D02*
X190326190Y-71654299D01*
X190326190Y-71654299D02*
X190088095Y-71654299D01*
X190088095Y-71654299D02*
X189992857Y-71606680D01*
X189992857Y-71606680D02*
X189945238Y-71559060D01*
X167838095Y-90654299D02*
X168409523Y-90654299D01*
X168123809Y-91654299D02*
X168123809Y-90654299D01*
X168742857Y-91654299D02*
X168742857Y-90654299D01*
X168742857Y-90654299D02*
X169123809Y-90654299D01*
X169123809Y-90654299D02*
X169219047Y-90701918D01*
X169219047Y-90701918D02*
X169266666Y-90749537D01*
X169266666Y-90749537D02*
X169314285Y-90844775D01*
X169314285Y-90844775D02*
X169314285Y-90987632D01*
X169314285Y-90987632D02*
X169266666Y-91082870D01*
X169266666Y-91082870D02*
X169219047Y-91130489D01*
X169219047Y-91130489D02*
X169123809Y-91178108D01*
X169123809Y-91178108D02*
X168742857Y-91178108D01*
X170171428Y-90654299D02*
X169980952Y-90654299D01*
X169980952Y-90654299D02*
X169885714Y-90701918D01*
X169885714Y-90701918D02*
X169838095Y-90749537D01*
X169838095Y-90749537D02*
X169742857Y-90892394D01*
X169742857Y-90892394D02*
X169695238Y-91082870D01*
X169695238Y-91082870D02*
X169695238Y-91463822D01*
X169695238Y-91463822D02*
X169742857Y-91559060D01*
X169742857Y-91559060D02*
X169790476Y-91606680D01*
X169790476Y-91606680D02*
X169885714Y-91654299D01*
X169885714Y-91654299D02*
X170076190Y-91654299D01*
X170076190Y-91654299D02*
X170171428Y-91606680D01*
X170171428Y-91606680D02*
X170219047Y-91559060D01*
X170219047Y-91559060D02*
X170266666Y-91463822D01*
X170266666Y-91463822D02*
X170266666Y-91225727D01*
X170266666Y-91225727D02*
X170219047Y-91130489D01*
X170219047Y-91130489D02*
X170171428Y-91082870D01*
X170171428Y-91082870D02*
X170076190Y-91035251D01*
X170076190Y-91035251D02*
X169885714Y-91035251D01*
X169885714Y-91035251D02*
X169790476Y-91082870D01*
X169790476Y-91082870D02*
X169742857Y-91130489D01*
X169742857Y-91130489D02*
X169695238Y-91225727D01*
X155866667Y-75306680D02*
X156009524Y-75354299D01*
X156009524Y-75354299D02*
X156247619Y-75354299D01*
X156247619Y-75354299D02*
X156342857Y-75306680D01*
X156342857Y-75306680D02*
X156390476Y-75259060D01*
X156390476Y-75259060D02*
X156438095Y-75163822D01*
X156438095Y-75163822D02*
X156438095Y-75068584D01*
X156438095Y-75068584D02*
X156390476Y-74973346D01*
X156390476Y-74973346D02*
X156342857Y-74925727D01*
X156342857Y-74925727D02*
X156247619Y-74878108D01*
X156247619Y-74878108D02*
X156057143Y-74830489D01*
X156057143Y-74830489D02*
X155961905Y-74782870D01*
X155961905Y-74782870D02*
X155914286Y-74735251D01*
X155914286Y-74735251D02*
X155866667Y-74640013D01*
X155866667Y-74640013D02*
X155866667Y-74544775D01*
X155866667Y-74544775D02*
X155914286Y-74449537D01*
X155914286Y-74449537D02*
X155961905Y-74401918D01*
X155961905Y-74401918D02*
X156057143Y-74354299D01*
X156057143Y-74354299D02*
X156295238Y-74354299D01*
X156295238Y-74354299D02*
X156438095Y-74401918D01*
X156771429Y-74354299D02*
X157009524Y-75354299D01*
X157009524Y-75354299D02*
X157200000Y-74640013D01*
X157200000Y-74640013D02*
X157390476Y-75354299D01*
X157390476Y-75354299D02*
X157628572Y-74354299D01*
X157961905Y-74449537D02*
X158009524Y-74401918D01*
X158009524Y-74401918D02*
X158104762Y-74354299D01*
X158104762Y-74354299D02*
X158342857Y-74354299D01*
X158342857Y-74354299D02*
X158438095Y-74401918D01*
X158438095Y-74401918D02*
X158485714Y-74449537D01*
X158485714Y-74449537D02*
X158533333Y-74544775D01*
X158533333Y-74544775D02*
X158533333Y-74640013D01*
X158533333Y-74640013D02*
X158485714Y-74782870D01*
X158485714Y-74782870D02*
X157914286Y-75354299D01*
X157914286Y-75354299D02*
X158533333Y-75354299D01*
X189466666Y-76654299D02*
X189466666Y-77368584D01*
X189466666Y-77368584D02*
X189419047Y-77511441D01*
X189419047Y-77511441D02*
X189323809Y-77606680D01*
X189323809Y-77606680D02*
X189180952Y-77654299D01*
X189180952Y-77654299D02*
X189085714Y-77654299D01*
X190371428Y-76987632D02*
X190371428Y-77654299D01*
X190133333Y-76606680D02*
X189895238Y-77320965D01*
X189895238Y-77320965D02*
X190514285Y-77320965D01*
X190938095Y-83454299D02*
X191509523Y-83454299D01*
X191223809Y-84454299D02*
X191223809Y-83454299D01*
X191842857Y-84454299D02*
X191842857Y-83454299D01*
X191842857Y-83454299D02*
X192223809Y-83454299D01*
X192223809Y-83454299D02*
X192319047Y-83501918D01*
X192319047Y-83501918D02*
X192366666Y-83549537D01*
X192366666Y-83549537D02*
X192414285Y-83644775D01*
X192414285Y-83644775D02*
X192414285Y-83787632D01*
X192414285Y-83787632D02*
X192366666Y-83882870D01*
X192366666Y-83882870D02*
X192319047Y-83930489D01*
X192319047Y-83930489D02*
X192223809Y-83978108D01*
X192223809Y-83978108D02*
X191842857Y-83978108D01*
X192747619Y-83454299D02*
X193366666Y-83454299D01*
X193366666Y-83454299D02*
X193033333Y-83835251D01*
X193033333Y-83835251D02*
X193176190Y-83835251D01*
X193176190Y-83835251D02*
X193271428Y-83882870D01*
X193271428Y-83882870D02*
X193319047Y-83930489D01*
X193319047Y-83930489D02*
X193366666Y-84025727D01*
X193366666Y-84025727D02*
X193366666Y-84263822D01*
X193366666Y-84263822D02*
X193319047Y-84359060D01*
X193319047Y-84359060D02*
X193271428Y-84406680D01*
X193271428Y-84406680D02*
X193176190Y-84454299D01*
X193176190Y-84454299D02*
X192890476Y-84454299D01*
X192890476Y-84454299D02*
X192795238Y-84406680D01*
X192795238Y-84406680D02*
X192747619Y-84359060D01*
X214138095Y-75154299D02*
X214709523Y-75154299D01*
X214423809Y-76154299D02*
X214423809Y-75154299D01*
X215042857Y-76154299D02*
X215042857Y-75154299D01*
X215042857Y-75154299D02*
X215423809Y-75154299D01*
X215423809Y-75154299D02*
X215519047Y-75201918D01*
X215519047Y-75201918D02*
X215566666Y-75249537D01*
X215566666Y-75249537D02*
X215614285Y-75344775D01*
X215614285Y-75344775D02*
X215614285Y-75487632D01*
X215614285Y-75487632D02*
X215566666Y-75582870D01*
X215566666Y-75582870D02*
X215519047Y-75630489D01*
X215519047Y-75630489D02*
X215423809Y-75678108D01*
X215423809Y-75678108D02*
X215042857Y-75678108D01*
X216566666Y-76154299D02*
X215995238Y-76154299D01*
X216280952Y-76154299D02*
X216280952Y-75154299D01*
X216280952Y-75154299D02*
X216185714Y-75297156D01*
X216185714Y-75297156D02*
X216090476Y-75392394D01*
X216090476Y-75392394D02*
X215995238Y-75440013D01*
X203538095Y-85954299D02*
X204109523Y-85954299D01*
X203823809Y-86954299D02*
X203823809Y-85954299D01*
X204442857Y-86954299D02*
X204442857Y-85954299D01*
X204442857Y-85954299D02*
X204823809Y-85954299D01*
X204823809Y-85954299D02*
X204919047Y-86001918D01*
X204919047Y-86001918D02*
X204966666Y-86049537D01*
X204966666Y-86049537D02*
X205014285Y-86144775D01*
X205014285Y-86144775D02*
X205014285Y-86287632D01*
X205014285Y-86287632D02*
X204966666Y-86382870D01*
X204966666Y-86382870D02*
X204919047Y-86430489D01*
X204919047Y-86430489D02*
X204823809Y-86478108D01*
X204823809Y-86478108D02*
X204442857Y-86478108D01*
X205871428Y-86287632D02*
X205871428Y-86954299D01*
X205633333Y-85906680D02*
X205395238Y-86620965D01*
X205395238Y-86620965D02*
X206014285Y-86620965D01*
X153538095Y-105354299D02*
X154109523Y-105354299D01*
X153823809Y-106354299D02*
X153823809Y-105354299D01*
X154442857Y-106354299D02*
X154442857Y-105354299D01*
X154442857Y-105354299D02*
X154823809Y-105354299D01*
X154823809Y-105354299D02*
X154919047Y-105401918D01*
X154919047Y-105401918D02*
X154966666Y-105449537D01*
X154966666Y-105449537D02*
X155014285Y-105544775D01*
X155014285Y-105544775D02*
X155014285Y-105687632D01*
X155014285Y-105687632D02*
X154966666Y-105782870D01*
X154966666Y-105782870D02*
X154919047Y-105830489D01*
X154919047Y-105830489D02*
X154823809Y-105878108D01*
X154823809Y-105878108D02*
X154442857Y-105878108D01*
X155395238Y-105449537D02*
X155442857Y-105401918D01*
X155442857Y-105401918D02*
X155538095Y-105354299D01*
X155538095Y-105354299D02*
X155776190Y-105354299D01*
X155776190Y-105354299D02*
X155871428Y-105401918D01*
X155871428Y-105401918D02*
X155919047Y-105449537D01*
X155919047Y-105449537D02*
X155966666Y-105544775D01*
X155966666Y-105544775D02*
X155966666Y-105640013D01*
X155966666Y-105640013D02*
X155919047Y-105782870D01*
X155919047Y-105782870D02*
X155347619Y-106354299D01*
X155347619Y-106354299D02*
X155966666Y-106354299D01*
X105038095Y-70154299D02*
X105038095Y-70963822D01*
X105038095Y-70963822D02*
X105085714Y-71059060D01*
X105085714Y-71059060D02*
X105133333Y-71106680D01*
X105133333Y-71106680D02*
X105228571Y-71154299D01*
X105228571Y-71154299D02*
X105419047Y-71154299D01*
X105419047Y-71154299D02*
X105514285Y-71106680D01*
X105514285Y-71106680D02*
X105561904Y-71059060D01*
X105561904Y-71059060D02*
X105609523Y-70963822D01*
X105609523Y-70963822D02*
X105609523Y-70154299D01*
X106561904Y-70154299D02*
X106085714Y-70154299D01*
X106085714Y-70154299D02*
X106038095Y-70630489D01*
X106038095Y-70630489D02*
X106085714Y-70582870D01*
X106085714Y-70582870D02*
X106180952Y-70535251D01*
X106180952Y-70535251D02*
X106419047Y-70535251D01*
X106419047Y-70535251D02*
X106514285Y-70582870D01*
X106514285Y-70582870D02*
X106561904Y-70630489D01*
X106561904Y-70630489D02*
X106609523Y-70725727D01*
X106609523Y-70725727D02*
X106609523Y-70963822D01*
X106609523Y-70963822D02*
X106561904Y-71059060D01*
X106561904Y-71059060D02*
X106514285Y-71106680D01*
X106514285Y-71106680D02*
X106419047Y-71154299D01*
X106419047Y-71154299D02*
X106180952Y-71154299D01*
X106180952Y-71154299D02*
X106085714Y-71106680D01*
X106085714Y-71106680D02*
X106038095Y-71059060D01*
X207638095Y-105454299D02*
X208209523Y-105454299D01*
X207923809Y-106454299D02*
X207923809Y-105454299D01*
X208542857Y-106454299D02*
X208542857Y-105454299D01*
X208542857Y-105454299D02*
X208923809Y-105454299D01*
X208923809Y-105454299D02*
X209019047Y-105501918D01*
X209019047Y-105501918D02*
X209066666Y-105549537D01*
X209066666Y-105549537D02*
X209114285Y-105644775D01*
X209114285Y-105644775D02*
X209114285Y-105787632D01*
X209114285Y-105787632D02*
X209066666Y-105882870D01*
X209066666Y-105882870D02*
X209019047Y-105930489D01*
X209019047Y-105930489D02*
X208923809Y-105978108D01*
X208923809Y-105978108D02*
X208542857Y-105978108D01*
X210019047Y-105454299D02*
X209542857Y-105454299D01*
X209542857Y-105454299D02*
X209495238Y-105930489D01*
X209495238Y-105930489D02*
X209542857Y-105882870D01*
X209542857Y-105882870D02*
X209638095Y-105835251D01*
X209638095Y-105835251D02*
X209876190Y-105835251D01*
X209876190Y-105835251D02*
X209971428Y-105882870D01*
X209971428Y-105882870D02*
X210019047Y-105930489D01*
X210019047Y-105930489D02*
X210066666Y-106025727D01*
X210066666Y-106025727D02*
X210066666Y-106263822D01*
X210066666Y-106263822D02*
X210019047Y-106359060D01*
X210019047Y-106359060D02*
X209971428Y-106406680D01*
X209971428Y-106406680D02*
X209876190Y-106454299D01*
X209876190Y-106454299D02*
X209638095Y-106454299D01*
X209638095Y-106454299D02*
X209542857Y-106406680D01*
X209542857Y-106406680D02*
X209495238Y-106359060D01*
X166666667Y-75106680D02*
X166809524Y-75154299D01*
X166809524Y-75154299D02*
X167047619Y-75154299D01*
X167047619Y-75154299D02*
X167142857Y-75106680D01*
X167142857Y-75106680D02*
X167190476Y-75059060D01*
X167190476Y-75059060D02*
X167238095Y-74963822D01*
X167238095Y-74963822D02*
X167238095Y-74868584D01*
X167238095Y-74868584D02*
X167190476Y-74773346D01*
X167190476Y-74773346D02*
X167142857Y-74725727D01*
X167142857Y-74725727D02*
X167047619Y-74678108D01*
X167047619Y-74678108D02*
X166857143Y-74630489D01*
X166857143Y-74630489D02*
X166761905Y-74582870D01*
X166761905Y-74582870D02*
X166714286Y-74535251D01*
X166714286Y-74535251D02*
X166666667Y-74440013D01*
X166666667Y-74440013D02*
X166666667Y-74344775D01*
X166666667Y-74344775D02*
X166714286Y-74249537D01*
X166714286Y-74249537D02*
X166761905Y-74201918D01*
X166761905Y-74201918D02*
X166857143Y-74154299D01*
X166857143Y-74154299D02*
X167095238Y-74154299D01*
X167095238Y-74154299D02*
X167238095Y-74201918D01*
X167571429Y-74154299D02*
X167809524Y-75154299D01*
X167809524Y-75154299D02*
X168000000Y-74440013D01*
X168000000Y-74440013D02*
X168190476Y-75154299D01*
X168190476Y-75154299D02*
X168428572Y-74154299D01*
X169333333Y-75154299D02*
X168761905Y-75154299D01*
X169047619Y-75154299D02*
X169047619Y-74154299D01*
X169047619Y-74154299D02*
X168952381Y-74297156D01*
X168952381Y-74297156D02*
X168857143Y-74392394D01*
X168857143Y-74392394D02*
X168761905Y-74440013D01*
D13*
X112860000Y-75625000D02*
X113285000Y-75625000D01*
X115535000Y-75700000D02*
X115535000Y-75700000D01*
X112860000Y-75750000D02*
X112860000Y-75625000D01*
X115610000Y-77450000D02*
X115610000Y-77575000D01*
X112860000Y-77450000D02*
X112860000Y-77575000D01*
X115610000Y-77575000D02*
X115185000Y-77575000D01*
X112860000Y-77575000D02*
X113285000Y-77575000D01*
X179532836Y-87710000D02*
X179317164Y-87710000D01*
X179532836Y-86990000D02*
X179317164Y-86990000D01*
X163896359Y-104745000D02*
X164203641Y-104745000D01*
X163896359Y-105505000D02*
X164203641Y-105505000D01*
X194370000Y-94218641D02*
X194370000Y-93911359D01*
X195130000Y-94218641D02*
X195130000Y-93911359D01*
X181845000Y-80865000D02*
X183255000Y-80865000D01*
X183255000Y-78545000D02*
X181225000Y-78545000D01*
X183255000Y-78545000D02*
X183255000Y-79205000D01*
X183255000Y-80205000D02*
X183255000Y-80865000D01*
X182247500Y-86512742D02*
X182247500Y-86987258D01*
X181202500Y-86512742D02*
X181202500Y-86987258D01*
X119415000Y-79946359D02*
X119415000Y-80253641D01*
X118655000Y-79946359D02*
X118655000Y-80253641D01*
X179465000Y-72662836D02*
X179465000Y-72447164D01*
X180185000Y-72662836D02*
X180185000Y-72447164D01*
X104105000Y-79936359D02*
X104105000Y-80243641D01*
X103345000Y-79936359D02*
X103345000Y-80243641D01*
X196090000Y-85650000D02*
X196090000Y-89100000D01*
X196090000Y-85650000D02*
X196090000Y-83700000D01*
X201210000Y-85650000D02*
X201210000Y-87600000D01*
X201210000Y-85650000D02*
X201210000Y-83700000D01*
X188740000Y-72295000D02*
X189850000Y-72295000D01*
X188740000Y-73055000D02*
X188740000Y-72295000D01*
X188740000Y-73815000D02*
X188740000Y-75020000D01*
X188740000Y-73815000D02*
X189286529Y-73815000D01*
X188740000Y-75020000D02*
X189542470Y-75020000D01*
X190157530Y-75020000D02*
X190960000Y-75020000D01*
X190413471Y-73815000D02*
X190960000Y-73815000D01*
X190960000Y-73815000D02*
X190960000Y-75020000D01*
X158540000Y-103127836D02*
X158540000Y-102912164D01*
X159260000Y-103127836D02*
X159260000Y-102912164D01*
X100750000Y-75675000D02*
X101175000Y-75675000D01*
X103425000Y-75750000D02*
X103425000Y-75750000D01*
X100750000Y-75800000D02*
X100750000Y-75675000D01*
X103500000Y-77500000D02*
X103500000Y-77625000D01*
X100750000Y-77500000D02*
X100750000Y-77625000D01*
X103500000Y-77625000D02*
X103075000Y-77625000D01*
X100750000Y-77625000D02*
X101175000Y-77625000D01*
X102505000Y-79946359D02*
X102505000Y-80253641D01*
X101745000Y-79946359D02*
X101745000Y-80253641D01*
X96935000Y-83550000D02*
X97435000Y-83550000D01*
X96935000Y-99250000D02*
X96935000Y-97750000D01*
X97435000Y-99250000D02*
X96935000Y-99250000D01*
X100335000Y-88050000D02*
X100335000Y-91050000D01*
X100335000Y-91650000D02*
X100335000Y-94650000D01*
X100635000Y-87750000D02*
X103635000Y-87750000D01*
X103635000Y-91350000D02*
X100635000Y-91350000D01*
X103635000Y-94950000D02*
X100635000Y-94950000D01*
X103935000Y-91050000D02*
X103935000Y-88050000D01*
X103935000Y-94650000D02*
X103935000Y-91650000D01*
X104735000Y-94350000D02*
X104735000Y-94850000D01*
X104735000Y-94850000D02*
X105235000Y-94850000D01*
X105235000Y-94350000D02*
X104735000Y-94350000D01*
X105235000Y-94850000D02*
X105235000Y-94350000D01*
X106935000Y-83550000D02*
X107435000Y-83550000D01*
X106935000Y-99250000D02*
X107435000Y-99250000D01*
X107435000Y-83550000D02*
X107435000Y-85050000D01*
X107435000Y-99250000D02*
X107435000Y-97750000D01*
X113015000Y-79946359D02*
X113015000Y-80253641D01*
X112255000Y-79946359D02*
X112255000Y-80253641D01*
X161270000Y-104828641D02*
X161270000Y-104521359D01*
X162030000Y-104828641D02*
X162030000Y-104521359D01*
X171100000Y-89200000D02*
G75*
G03*
X169200000Y-89200000I-950000J0D01*
G01*
X169200000Y-89200000D02*
G75*
G03*
X171100000Y-89200000I950000J0D01*
G01*
X107305000Y-79936359D02*
X107305000Y-80243641D01*
X106545000Y-79936359D02*
X106545000Y-80243641D01*
X161337836Y-98210000D02*
X161122164Y-98210000D01*
X161337836Y-97490000D02*
X161122164Y-97490000D01*
X160613641Y-75630000D02*
X160306359Y-75630000D01*
X160613641Y-74870000D02*
X160306359Y-74870000D01*
X153275000Y-102275000D02*
X151925000Y-102275000D01*
X153275000Y-100525000D02*
X151925000Y-100525000D01*
X118735000Y-71051359D02*
X118735000Y-71358641D01*
X117975000Y-71051359D02*
X117975000Y-71358641D01*
X165700000Y-73200000D02*
X165000000Y-73200000D01*
X165700000Y-72600000D02*
X165700000Y-73200000D01*
X165700000Y-69900000D02*
X165700000Y-69200000D01*
X165700000Y-69200000D02*
X165000000Y-69200000D01*
X156300000Y-73200000D02*
X157000000Y-73200000D01*
X156300000Y-73200000D02*
X156300000Y-72600000D01*
X156300000Y-69200000D02*
X157000000Y-69200000D01*
X156300000Y-69200000D02*
X156300000Y-69900000D01*
X161270000Y-102178641D02*
X161270000Y-101871359D01*
X162030000Y-102178641D02*
X162030000Y-101871359D01*
X206365580Y-101335000D02*
X206084420Y-101335000D01*
X206365580Y-100315000D02*
X206084420Y-100315000D01*
G36*
X101404332Y-105752777D02*
G01*
X101397377Y-105776804D01*
X101386969Y-105790785D01*
X101367507Y-105797885D01*
X101333389Y-105801274D01*
X101316973Y-105802167D01*
X101250613Y-105805555D01*
X101241632Y-105855555D01*
X101234595Y-105891201D01*
X101224370Y-105938823D01*
X101213029Y-105988804D01*
X101211706Y-105994444D01*
X101200748Y-106042439D01*
X101191023Y-106087651D01*
X101184397Y-106121354D01*
X101183766Y-106125000D01*
X101176770Y-106166666D01*
X101120742Y-106166666D01*
X101064713Y-106166666D01*
X101072213Y-106119444D01*
X101078681Y-106085122D01*
X101088721Y-106038779D01*
X101100271Y-105989889D01*
X101101403Y-105985330D01*
X101112753Y-105937415D01*
X101122527Y-105891797D01*
X101128795Y-105857554D01*
X101129201Y-105854774D01*
X101135308Y-105811111D01*
X101073209Y-105811111D01*
X101035066Y-105809463D01*
X101015426Y-105801709D01*
X101010653Y-105783629D01*
X101017109Y-105751005D01*
X101018114Y-105747222D01*
X101021173Y-105738210D01*
X101026908Y-105731674D01*
X101038502Y-105727218D01*
X101059138Y-105724442D01*
X101092000Y-105722949D01*
X101140272Y-105722342D01*
X101207136Y-105722222D01*
X101218174Y-105722222D01*
X101411534Y-105722222D01*
X101404332Y-105752777D01*
G37*
G36*
X101733204Y-105722191D02*
G01*
X101788013Y-105740852D01*
X101825993Y-105768538D01*
X101852010Y-105809470D01*
X101861016Y-105833048D01*
X101870650Y-105865543D01*
X101873708Y-105891526D01*
X101870232Y-105920573D01*
X101861541Y-105957279D01*
X101832154Y-106033093D01*
X101787942Y-106094428D01*
X101731404Y-106139712D01*
X101665034Y-106167373D01*
X101591330Y-106175842D01*
X101527545Y-106167453D01*
X101472559Y-106144496D01*
X101432851Y-106107070D01*
X101409079Y-106057438D01*
X101401899Y-105997868D01*
X101402964Y-105990757D01*
X101522284Y-105990757D01*
X101525460Y-106033633D01*
X101537197Y-106060996D01*
X101560566Y-106078869D01*
X101569267Y-106082848D01*
X101617203Y-106091955D01*
X101662854Y-106079617D01*
X101687166Y-106062472D01*
X101724085Y-106016338D01*
X101744161Y-105958734D01*
X101748851Y-105909731D01*
X101744788Y-105857465D01*
X101729326Y-105823106D01*
X101700944Y-105804660D01*
X101665331Y-105800000D01*
X101617553Y-105810313D01*
X101577029Y-105839150D01*
X101546124Y-105883356D01*
X101527202Y-105939776D01*
X101522284Y-105990757D01*
X101402964Y-105990757D01*
X101411971Y-105930623D01*
X101438536Y-105860836D01*
X101479169Y-105801772D01*
X101534234Y-105756459D01*
X101599231Y-105727014D01*
X101669658Y-105715557D01*
X101733204Y-105722191D01*
G37*
G36*
X103610982Y-105722191D02*
G01*
X103665791Y-105740852D01*
X103703770Y-105768538D01*
X103729787Y-105809470D01*
X103738794Y-105833048D01*
X103748427Y-105865543D01*
X103751486Y-105891526D01*
X103748009Y-105920573D01*
X103739319Y-105957279D01*
X103709932Y-106033093D01*
X103665720Y-106094428D01*
X103609181Y-106139712D01*
X103542812Y-106167373D01*
X103469108Y-106175842D01*
X103405323Y-106167453D01*
X103350337Y-106144496D01*
X103310629Y-106107070D01*
X103286856Y-106057438D01*
X103279677Y-105997868D01*
X103281647Y-105984717D01*
X103400000Y-105984717D01*
X103404387Y-106031601D01*
X103419339Y-106063294D01*
X103447546Y-106085386D01*
X103448707Y-106086002D01*
X103479943Y-106091743D01*
X103518865Y-106084751D01*
X103556726Y-106067250D01*
X103573643Y-106054220D01*
X103592215Y-106028919D01*
X103610040Y-105992092D01*
X103618158Y-105968735D01*
X103629222Y-105908623D01*
X103625159Y-105859768D01*
X103606824Y-105824204D01*
X103575074Y-105803969D01*
X103547214Y-105800000D01*
X103496489Y-105810203D01*
X103454138Y-105838849D01*
X103422510Y-105882990D01*
X103403954Y-105939679D01*
X103400000Y-105984717D01*
X103281647Y-105984717D01*
X103289749Y-105930623D01*
X103316314Y-105860836D01*
X103356946Y-105801772D01*
X103412012Y-105756459D01*
X103477009Y-105727014D01*
X103547435Y-105715557D01*
X103610982Y-105722191D01*
G37*
G36*
X100960996Y-104927428D02*
G01*
X100988289Y-104930755D01*
X101019374Y-104932507D01*
X101055415Y-104933333D01*
X100969146Y-105036111D01*
X100919960Y-105095067D01*
X100883047Y-105140703D01*
X100856186Y-105176544D01*
X100837158Y-105206117D01*
X100823741Y-105232946D01*
X100813717Y-105260558D01*
X100804864Y-105292477D01*
X100802961Y-105300000D01*
X100782050Y-105383333D01*
X100724358Y-105386691D01*
X100691988Y-105387031D01*
X100670991Y-105384289D01*
X100666524Y-105381136D01*
X100668828Y-105366600D01*
X100675027Y-105336689D01*
X100683823Y-105297636D01*
X100684628Y-105294186D01*
X100702874Y-105216151D01*
X100658058Y-105094186D01*
X100635174Y-105031773D01*
X100619748Y-104987300D01*
X100611824Y-104957756D01*
X100611446Y-104940132D01*
X100618660Y-104931418D01*
X100633509Y-104928604D01*
X100656037Y-104928681D01*
X100660498Y-104928763D01*
X100688250Y-104929673D01*
X100707138Y-104933903D01*
X100720822Y-104945361D01*
X100732964Y-104967957D01*
X100747224Y-105005601D01*
X100756165Y-105030926D01*
X100769555Y-105067766D01*
X100778837Y-105086935D01*
X100787139Y-105091775D01*
X100797590Y-105085627D01*
X100802975Y-105080926D01*
X100821042Y-105061746D01*
X100846164Y-105031351D01*
X100870149Y-105000000D01*
X100898867Y-104962015D01*
X100919100Y-104939163D01*
X100934886Y-104928219D01*
X100950263Y-104925956D01*
X100960996Y-104927428D01*
G37*
G36*
X103044004Y-105724645D02*
G01*
X103112493Y-105728826D01*
X103162501Y-105735797D01*
X103197728Y-105746953D01*
X103221870Y-105763691D01*
X103238628Y-105787405D01*
X103244592Y-105800356D01*
X103252879Y-105848026D01*
X103241716Y-105898601D01*
X103212331Y-105946842D01*
X103209548Y-105950082D01*
X103178569Y-105977570D01*
X103138462Y-105997586D01*
X103084719Y-106011843D01*
X103023131Y-106020920D01*
X102962930Y-106027777D01*
X102945344Y-106094444D01*
X102927759Y-106161111D01*
X102869866Y-106164454D01*
X102811972Y-106167798D01*
X102827437Y-106114454D01*
X102838433Y-106071779D01*
X102847401Y-106028956D01*
X102849433Y-106016666D01*
X102856648Y-105978136D01*
X102867136Y-105933372D01*
X102868528Y-105928183D01*
X102985647Y-105928183D01*
X102986548Y-105938400D01*
X103007492Y-105945678D01*
X103039106Y-105942859D01*
X103073200Y-105931595D01*
X103099147Y-105915678D01*
X103125118Y-105883705D01*
X103130912Y-105852132D01*
X103118278Y-105824983D01*
X103088963Y-105806283D01*
X103048895Y-105800000D01*
X103029257Y-105801353D01*
X103016896Y-105808776D01*
X103007866Y-105827317D01*
X102998225Y-105862022D01*
X102997175Y-105866178D01*
X102989324Y-105901855D01*
X102985647Y-105928183D01*
X102868528Y-105928183D01*
X102871619Y-105916666D01*
X102882604Y-105873887D01*
X102894221Y-105822900D01*
X102900923Y-105790212D01*
X102914574Y-105719314D01*
X103044004Y-105724645D01*
G37*
G36*
X104588650Y-105711260D02*
G01*
X104639310Y-105711908D01*
X104673630Y-105713361D01*
X104694552Y-105715920D01*
X104705017Y-105719890D01*
X104707967Y-105725574D01*
X104707185Y-105730555D01*
X104696625Y-105767383D01*
X104686814Y-105788076D01*
X104671608Y-105797624D01*
X104644860Y-105801017D01*
X104618868Y-105802262D01*
X104550017Y-105805555D01*
X104540360Y-105855555D01*
X104533137Y-105889237D01*
X104522155Y-105936191D01*
X104509353Y-105988211D01*
X104504240Y-106008283D01*
X104492653Y-106055524D01*
X104483644Y-106096564D01*
X104478499Y-106125322D01*
X104477777Y-106133283D01*
X104474920Y-106146548D01*
X104462728Y-106153220D01*
X104435773Y-106155436D01*
X104421234Y-106155555D01*
X104364691Y-106155555D01*
X104370798Y-106111892D01*
X104376542Y-106079526D01*
X104386014Y-106034749D01*
X104397281Y-105986637D01*
X104398596Y-105981336D01*
X104410182Y-105932705D01*
X104420461Y-105885695D01*
X104427369Y-105849781D01*
X104427786Y-105847222D01*
X104435286Y-105800000D01*
X104373198Y-105800000D01*
X104335059Y-105798351D01*
X104315423Y-105790594D01*
X104310654Y-105772509D01*
X104317113Y-105739877D01*
X104318114Y-105736111D01*
X104321168Y-105727109D01*
X104326892Y-105720578D01*
X104338464Y-105716121D01*
X104359064Y-105713342D01*
X104391870Y-105711845D01*
X104440061Y-105711233D01*
X104506815Y-105711111D01*
X104518711Y-105711111D01*
X104588650Y-105711260D01*
G37*
G36*
X100801986Y-105723697D02*
G01*
X100858651Y-105747956D01*
X100889704Y-105773063D01*
X100910940Y-105797720D01*
X100922926Y-105821841D01*
X100928993Y-105854144D01*
X100931213Y-105881607D01*
X100925779Y-105957471D01*
X100901297Y-106026404D01*
X100860472Y-106085600D01*
X100806009Y-106132256D01*
X100740614Y-106163568D01*
X100666991Y-106176733D01*
X100646374Y-106176822D01*
X100611724Y-106172646D01*
X100586875Y-106166876D01*
X100532866Y-106140230D01*
X100494016Y-106098740D01*
X100471193Y-106044580D01*
X100466156Y-105989622D01*
X100577777Y-105989622D01*
X100586961Y-106036051D01*
X100611593Y-106070176D01*
X100647298Y-106089729D01*
X100689696Y-106092443D01*
X100734411Y-106076051D01*
X100739037Y-106073146D01*
X100770567Y-106042743D01*
X100794262Y-106001129D01*
X100809361Y-105953511D01*
X100815103Y-105905100D01*
X100810727Y-105861104D01*
X100795474Y-105826733D01*
X100777339Y-105810876D01*
X100738750Y-105800718D01*
X100694698Y-105803810D01*
X100656742Y-105819124D01*
X100652838Y-105821974D01*
X100623442Y-105855419D01*
X100598526Y-105902111D01*
X100582105Y-105953079D01*
X100577777Y-105989622D01*
X100466156Y-105989622D01*
X100465268Y-105979928D01*
X100477110Y-105906957D01*
X100479561Y-105898427D01*
X100499757Y-105855073D01*
X100532113Y-105809909D01*
X100569986Y-105771098D01*
X100600559Y-105749710D01*
X100668412Y-105724208D01*
X100737063Y-105715659D01*
X100801986Y-105723697D01*
G37*
G36*
X101174061Y-104928536D02*
G01*
X101204855Y-104931174D01*
X101223663Y-104936403D01*
X101226517Y-104939941D01*
X101223525Y-104955099D01*
X101216839Y-104985517D01*
X101207862Y-105024824D01*
X101207177Y-105027777D01*
X101189360Y-105104618D01*
X101176043Y-105162599D01*
X101166620Y-105204488D01*
X101160485Y-105233054D01*
X101157033Y-105251065D01*
X101155659Y-105261289D01*
X101155555Y-105263805D01*
X101165390Y-105285987D01*
X101190588Y-105302186D01*
X101224692Y-105310617D01*
X101261243Y-105309497D01*
X101288095Y-105300424D01*
X101307331Y-105279339D01*
X101327091Y-105236806D01*
X101347114Y-105173586D01*
X101367141Y-105090440D01*
X101377603Y-105038888D01*
X101385315Y-105000130D01*
X101392079Y-104968459D01*
X101395575Y-104953985D01*
X101409812Y-104939700D01*
X101437932Y-104930592D01*
X101471857Y-104928433D01*
X101495213Y-104932138D01*
X101508064Y-104936970D01*
X101513671Y-104945733D01*
X101512689Y-104963980D01*
X101505774Y-104997259D01*
X101503886Y-105005555D01*
X101481785Y-105100575D01*
X101462968Y-105176343D01*
X101446401Y-105235405D01*
X101431050Y-105280306D01*
X101415880Y-105313593D01*
X101399857Y-105337812D01*
X101381947Y-105355509D01*
X101361116Y-105369230D01*
X101354769Y-105372628D01*
X101321119Y-105383706D01*
X101273887Y-105391628D01*
X101221578Y-105395695D01*
X101172697Y-105395208D01*
X101138888Y-105390358D01*
X101088393Y-105370571D01*
X101055776Y-105341255D01*
X101040059Y-105300363D01*
X101040261Y-105245851D01*
X101048581Y-105201659D01*
X101060528Y-105150144D01*
X101073630Y-105091138D01*
X101083147Y-105046489D01*
X101094593Y-104994148D01*
X101104882Y-104959910D01*
X101116900Y-104940026D01*
X101133538Y-104930749D01*
X101157684Y-104928330D01*
X101174061Y-104928536D01*
G37*
G36*
X100163461Y-104929091D02*
G01*
X100196079Y-104931012D01*
X100221056Y-104932377D01*
X100223424Y-104932492D01*
X100236406Y-104943077D01*
X100254956Y-104974111D01*
X100279277Y-105025961D01*
X100294206Y-105061111D01*
X100320869Y-105122996D01*
X100341118Y-105164181D01*
X100355280Y-105185139D01*
X100363683Y-105186344D01*
X100366653Y-105168272D01*
X100366666Y-105166264D01*
X100369265Y-105144776D01*
X100376083Y-105109765D01*
X100385657Y-105067207D01*
X100396519Y-105023080D01*
X100407205Y-104983358D01*
X100416250Y-104954020D01*
X100421803Y-104941401D01*
X100437180Y-104935450D01*
X100464355Y-104931834D01*
X100493285Y-104931137D01*
X100513932Y-104933943D01*
X100517321Y-104935840D01*
X100518725Y-104940120D01*
X100518274Y-104950110D01*
X100515494Y-104968053D01*
X100509912Y-104996196D01*
X100501055Y-105036782D01*
X100488448Y-105092058D01*
X100471620Y-105164267D01*
X100450097Y-105255655D01*
X100448152Y-105263888D01*
X100418615Y-105388888D01*
X100367640Y-105388857D01*
X100316666Y-105388826D01*
X100255555Y-105239015D01*
X100233468Y-105186042D01*
X100213890Y-105141273D01*
X100198483Y-105108344D01*
X100188908Y-105090889D01*
X100187012Y-105089047D01*
X100181888Y-105099169D01*
X100172939Y-105127064D01*
X100161291Y-105168840D01*
X100148071Y-105220604D01*
X100143634Y-105238888D01*
X100107688Y-105388888D01*
X100055278Y-105388888D01*
X100002869Y-105388888D01*
X100012128Y-105339323D01*
X100020421Y-105299325D01*
X100031427Y-105251638D01*
X100037938Y-105225434D01*
X100048383Y-105182554D01*
X100057339Y-105141881D01*
X100061111Y-105122222D01*
X100069499Y-105079909D01*
X100080390Y-105034272D01*
X100092092Y-104991464D01*
X100102915Y-104957635D01*
X100111168Y-104938935D01*
X100111677Y-104938265D01*
X100128250Y-104931234D01*
X100156814Y-104928835D01*
X100163461Y-104929091D01*
G37*
G36*
X104060709Y-105714644D02*
G01*
X104128502Y-105725587D01*
X104177409Y-105744453D01*
X104208552Y-105771755D01*
X104223049Y-105808006D01*
X104224444Y-105826400D01*
X104214370Y-105872338D01*
X104187387Y-105915304D01*
X104148351Y-105947849D01*
X104143568Y-105950452D01*
X104121401Y-105963727D01*
X104111188Y-105973416D01*
X104111111Y-105973917D01*
X104116132Y-105986088D01*
X104129493Y-106012620D01*
X104148642Y-106048506D01*
X104155555Y-106061111D01*
X104176019Y-106098970D01*
X104191507Y-106129121D01*
X104199462Y-106146535D01*
X104200000Y-106148590D01*
X104189950Y-106152409D01*
X104164032Y-106154939D01*
X104139028Y-106155555D01*
X104078057Y-106155555D01*
X104038888Y-106077777D01*
X104018578Y-106038673D01*
X104003675Y-106015489D01*
X103990030Y-106004085D01*
X103973493Y-106000317D01*
X103960971Y-106000000D01*
X103934080Y-106002604D01*
X103923326Y-106012511D01*
X103922222Y-106021374D01*
X103919783Y-106044358D01*
X103913573Y-106078970D01*
X103909202Y-106099152D01*
X103896183Y-106155555D01*
X103838143Y-106155555D01*
X103780104Y-106155555D01*
X103795359Y-106091666D01*
X103821076Y-105983394D01*
X103841553Y-105895900D01*
X103845522Y-105878520D01*
X103958099Y-105878520D01*
X103958305Y-105899481D01*
X103970874Y-105908744D01*
X103998654Y-105911060D01*
X104009389Y-105911111D01*
X104050620Y-105907463D01*
X104076725Y-105895345D01*
X104082444Y-105889871D01*
X104096757Y-105860111D01*
X104098055Y-105837093D01*
X104094226Y-105818504D01*
X104084266Y-105808626D01*
X104062194Y-105804057D01*
X104036787Y-105802220D01*
X103979130Y-105798885D01*
X103967404Y-105841109D01*
X103958099Y-105878520D01*
X103845522Y-105878520D01*
X103856966Y-105828413D01*
X103867493Y-105780158D01*
X103872892Y-105752777D01*
X103880250Y-105711111D01*
X103972911Y-105711111D01*
X104060709Y-105714644D01*
G37*
G36*
X105020300Y-105714182D02*
G01*
X105047659Y-105721449D01*
X105074888Y-105732871D01*
X105086495Y-105747570D01*
X105088718Y-105770306D01*
X105085688Y-105806521D01*
X105074700Y-105823539D01*
X105052233Y-105823520D01*
X105021369Y-105811673D01*
X104972996Y-105795434D01*
X104925689Y-105789331D01*
X104883943Y-105792764D01*
X104852253Y-105805131D01*
X104835112Y-105825831D01*
X104833333Y-105836830D01*
X104843342Y-105861197D01*
X104869020Y-105879981D01*
X104903839Y-105888720D01*
X104909452Y-105888888D01*
X104941339Y-105895777D01*
X104979614Y-105913381D01*
X105016732Y-105937102D01*
X105045153Y-105962346D01*
X105055634Y-105977968D01*
X105062444Y-106021440D01*
X105050352Y-106066026D01*
X105021794Y-106106629D01*
X104979205Y-106138150D01*
X104979085Y-106138212D01*
X104945826Y-106148962D01*
X104897882Y-106156599D01*
X104842640Y-106160585D01*
X104787488Y-106160388D01*
X104740148Y-106155530D01*
X104706343Y-106147824D01*
X104681596Y-106139142D01*
X104675102Y-106135102D01*
X104671155Y-106120534D01*
X104670962Y-106094636D01*
X104673724Y-106065846D01*
X104678642Y-106042602D01*
X104684752Y-106033333D01*
X104696794Y-106037938D01*
X104721386Y-106049570D01*
X104734535Y-106056169D01*
X104784242Y-106075765D01*
X104833268Y-106085191D01*
X104877612Y-106084950D01*
X104913271Y-106075550D01*
X104936242Y-106057495D01*
X104942523Y-106031292D01*
X104942347Y-106029911D01*
X104936498Y-106016403D01*
X104920595Y-106003729D01*
X104890820Y-105989642D01*
X104844444Y-105972280D01*
X104797632Y-105954847D01*
X104767135Y-105940500D01*
X104747939Y-105926090D01*
X104735027Y-105908468D01*
X104731159Y-105901148D01*
X104718338Y-105854012D01*
X104724218Y-105807208D01*
X104743191Y-105773386D01*
X104779849Y-105744965D01*
X104831859Y-105723816D01*
X104893252Y-105710956D01*
X104958056Y-105707405D01*
X105020300Y-105714182D01*
G37*
G36*
X102695438Y-105722384D02*
G01*
X102744653Y-105730807D01*
X102775602Y-105738294D01*
X102791988Y-105747266D01*
X102797513Y-105760141D01*
X102795879Y-105779340D01*
X102794470Y-105787103D01*
X102786915Y-105820926D01*
X102777329Y-105835811D01*
X102760395Y-105834798D01*
X102733171Y-105822139D01*
X102693512Y-105808277D01*
X102646806Y-105801082D01*
X102600977Y-105800881D01*
X102563949Y-105808001D01*
X102550915Y-105814623D01*
X102533463Y-105834326D01*
X102536250Y-105853815D01*
X102559837Y-105873736D01*
X102604783Y-105894733D01*
X102627889Y-105903236D01*
X102684839Y-105925026D01*
X102723327Y-105945448D01*
X102746662Y-105967597D01*
X102758152Y-105994568D01*
X102761111Y-106027872D01*
X102757620Y-106064907D01*
X102743755Y-106092713D01*
X102726440Y-106112021D01*
X102682515Y-106142391D01*
X102623813Y-106163535D01*
X102556329Y-106174113D01*
X102486063Y-106172785D01*
X102466666Y-106170089D01*
X102436097Y-106163347D01*
X102401585Y-106153680D01*
X102401559Y-106153672D01*
X102378147Y-106144850D01*
X102368774Y-106133181D01*
X102369321Y-106110811D01*
X102371512Y-106096375D01*
X102377228Y-106066761D01*
X102382686Y-106047955D01*
X102384085Y-106045543D01*
X102396193Y-106046924D01*
X102421298Y-106056277D01*
X102439429Y-106064571D01*
X102506441Y-106085428D01*
X102549388Y-106088888D01*
X102596222Y-106087330D01*
X102624987Y-106081405D01*
X102639696Y-106069241D01*
X102644361Y-106048963D01*
X102644444Y-106044505D01*
X102642742Y-106028218D01*
X102634681Y-106016343D01*
X102615832Y-106005736D01*
X102581762Y-105993254D01*
X102563888Y-105987361D01*
X102502157Y-105962636D01*
X102456347Y-105934507D01*
X102428772Y-105904663D01*
X102421529Y-105883333D01*
X102421503Y-105838367D01*
X102432528Y-105804833D01*
X102457705Y-105773413D01*
X102458333Y-105772784D01*
X102502222Y-105743070D01*
X102560863Y-105724197D01*
X102629030Y-105717276D01*
X102695438Y-105722384D01*
G37*
G36*
X102186426Y-105725561D02*
G01*
X102251079Y-105735810D01*
X102297577Y-105753317D01*
X102322014Y-105772000D01*
X102341975Y-105808009D01*
X102344447Y-105850387D01*
X102330869Y-105893856D01*
X102302676Y-105933137D01*
X102271532Y-105957434D01*
X102247431Y-105972978D01*
X102234202Y-105984084D01*
X102233333Y-105985840D01*
X102238346Y-105997620D01*
X102251686Y-106023832D01*
X102270809Y-106059526D01*
X102277777Y-106072222D01*
X102298242Y-106110081D01*
X102313729Y-106140232D01*
X102321684Y-106157646D01*
X102322222Y-106159701D01*
X102312166Y-106163501D01*
X102286207Y-106166031D01*
X102260566Y-106166666D01*
X102198911Y-106166666D01*
X102163344Y-106088951D01*
X102139300Y-106041932D01*
X102118690Y-106014303D01*
X102102802Y-106004419D01*
X102073237Y-106001338D01*
X102054207Y-106013529D01*
X102042632Y-106043789D01*
X102039337Y-106061989D01*
X102030960Y-106110751D01*
X102021409Y-106141492D01*
X102007450Y-106158320D01*
X101985849Y-106165340D01*
X101956885Y-106166666D01*
X101902109Y-106166666D01*
X101917205Y-106108333D01*
X101927338Y-106066451D01*
X101935907Y-106026421D01*
X101938714Y-106011111D01*
X101945719Y-105976444D01*
X101955946Y-105934154D01*
X101960644Y-105916666D01*
X101962224Y-105910475D01*
X102077777Y-105910475D01*
X102087365Y-105918884D01*
X102111318Y-105922380D01*
X102142418Y-105921351D01*
X102173449Y-105916182D01*
X102197193Y-105907261D01*
X102201902Y-105903833D01*
X102218246Y-105877808D01*
X102221463Y-105847200D01*
X102211666Y-105820913D01*
X102200730Y-105811502D01*
X102174640Y-105803444D01*
X102141601Y-105800001D01*
X102140938Y-105800000D01*
X102116976Y-105801705D01*
X102103520Y-105810735D01*
X102094534Y-105832963D01*
X102090207Y-105849364D01*
X102082688Y-105881638D01*
X102078268Y-105905262D01*
X102077777Y-105910475D01*
X101962224Y-105910475D01*
X101971653Y-105873516D01*
X101983218Y-105822519D01*
X101989526Y-105791666D01*
X102002891Y-105722222D01*
X102102080Y-105722222D01*
X102186426Y-105725561D01*
G37*
G36*
X100037065Y-105735615D02*
G01*
X100104804Y-105738888D01*
X100113840Y-105783333D01*
X100127620Y-105849723D01*
X100138079Y-105896614D01*
X100145815Y-105926379D01*
X100151430Y-105941393D01*
X100154552Y-105944402D01*
X100162956Y-105935707D01*
X100180841Y-105912120D01*
X100205506Y-105877335D01*
X100231711Y-105838847D01*
X100302312Y-105733333D01*
X100367545Y-105733333D01*
X100432777Y-105733333D01*
X100426310Y-105769444D01*
X100419876Y-105801330D01*
X100410594Y-105842861D01*
X100404938Y-105866666D01*
X100394537Y-105911153D01*
X100382706Y-105964431D01*
X100373972Y-106005555D01*
X100363726Y-106053047D01*
X100353030Y-106099326D01*
X100345192Y-106130555D01*
X100332476Y-106177777D01*
X100277349Y-106177777D01*
X100245789Y-106176717D01*
X100225841Y-106174007D01*
X100222222Y-106171927D01*
X100224725Y-106159119D01*
X100231369Y-106130350D01*
X100240853Y-106091205D01*
X100243563Y-106080261D01*
X100254923Y-106032363D01*
X100264859Y-105986571D01*
X100271364Y-105952173D01*
X100271706Y-105950000D01*
X100278507Y-105905555D01*
X100256548Y-105933333D01*
X100237960Y-105959300D01*
X100215178Y-105994367D01*
X100203405Y-106013668D01*
X100183622Y-106044372D01*
X100167039Y-106060115D01*
X100146921Y-106065810D01*
X100131077Y-106066446D01*
X100103672Y-106064596D01*
X100089221Y-106054429D01*
X100079658Y-106029603D01*
X100078362Y-106025000D01*
X100070356Y-105989696D01*
X100066086Y-105958483D01*
X100065947Y-105955555D01*
X100062492Y-105927164D01*
X100055493Y-105904219D01*
X100047352Y-105892806D01*
X100042112Y-105895181D01*
X100036024Y-105912409D01*
X100029326Y-105940745D01*
X100028610Y-105944444D01*
X100022655Y-105973237D01*
X100013220Y-106015874D01*
X100002033Y-106064594D01*
X99998282Y-106080555D01*
X99975290Y-106177777D01*
X99922252Y-106177777D01*
X99869213Y-106177777D01*
X99890928Y-106086111D01*
X99911335Y-105999817D01*
X99927229Y-105932199D01*
X99939279Y-105880323D01*
X99948152Y-105841255D01*
X99954516Y-105812061D01*
X99959040Y-105789808D01*
X99961875Y-105774504D01*
X99969325Y-105732341D01*
X100037065Y-105735615D01*
G37*
G36*
X103340729Y-101645571D02*
G01*
X103439806Y-101645875D01*
X103557544Y-101646416D01*
X103681454Y-101647064D01*
X103817677Y-101647816D01*
X103933516Y-101648542D01*
X104030806Y-101649313D01*
X104111385Y-101650200D01*
X104177091Y-101651273D01*
X104229760Y-101652602D01*
X104271230Y-101654258D01*
X104303337Y-101656311D01*
X104327919Y-101658832D01*
X104346812Y-101661891D01*
X104361855Y-101665558D01*
X104374883Y-101669905D01*
X104385421Y-101674053D01*
X104503509Y-101734163D01*
X104614642Y-101815090D01*
X104718467Y-101916434D01*
X104814632Y-102037794D01*
X104902783Y-102178769D01*
X104982567Y-102338957D01*
X104994671Y-102366666D01*
X105066717Y-102558925D01*
X105124650Y-102765251D01*
X105167994Y-102982161D01*
X105196267Y-103206174D01*
X105208992Y-103433807D01*
X105205690Y-103661579D01*
X105193954Y-103815666D01*
X105163779Y-104041312D01*
X105121009Y-104253333D01*
X105066013Y-104450780D01*
X104999160Y-104632699D01*
X104920819Y-104798141D01*
X104831360Y-104946153D01*
X104731152Y-105075783D01*
X104686276Y-105124183D01*
X104593308Y-105209668D01*
X104500521Y-105275185D01*
X104404451Y-105322686D01*
X104301634Y-105354125D01*
X104265696Y-105361297D01*
X104229602Y-105365484D01*
X104174312Y-105369067D01*
X104102767Y-105372046D01*
X104017910Y-105374423D01*
X103922681Y-105376198D01*
X103820022Y-105377373D01*
X103712874Y-105377949D01*
X103604178Y-105377928D01*
X103496875Y-105377310D01*
X103393907Y-105376097D01*
X103298215Y-105374290D01*
X103212741Y-105371890D01*
X103140425Y-105368899D01*
X103084208Y-105365317D01*
X103047033Y-105361147D01*
X103044998Y-105360793D01*
X102996580Y-105350889D01*
X102954139Y-105338925D01*
X102912550Y-105322687D01*
X102866694Y-105299962D01*
X102811446Y-105268537D01*
X102761111Y-105238138D01*
X102717399Y-105211737D01*
X102659212Y-105177140D01*
X102591364Y-105137179D01*
X102518672Y-105094689D01*
X102445951Y-105052502D01*
X102427777Y-105042016D01*
X102346751Y-104995250D01*
X102255980Y-104942741D01*
X102162767Y-104888719D01*
X102074411Y-104837416D01*
X102000000Y-104794103D01*
X101930936Y-104753856D01*
X101860849Y-104713052D01*
X101794705Y-104674578D01*
X101737472Y-104641324D01*
X101694116Y-104616180D01*
X101691726Y-104614797D01*
X101633457Y-104581066D01*
X101567422Y-104542834D01*
X101505085Y-104506738D01*
X101486171Y-104495785D01*
X101431276Y-104464083D01*
X101366774Y-104426970D01*
X101302368Y-104390024D01*
X101266666Y-104369605D01*
X101232248Y-104349756D01*
X101203060Y-104331921D01*
X101176865Y-104313947D01*
X101151428Y-104293684D01*
X101124513Y-104268980D01*
X101093885Y-104237684D01*
X101057306Y-104197644D01*
X101012542Y-104146708D01*
X100957357Y-104082726D01*
X100904785Y-104021380D01*
X100841633Y-103947505D01*
X100791742Y-103888831D01*
X100753815Y-103843770D01*
X100726557Y-103810735D01*
X100708670Y-103788138D01*
X100698857Y-103774390D01*
X100695823Y-103767903D01*
X100696938Y-103766829D01*
X100708010Y-103771685D01*
X100737449Y-103785703D01*
X100783733Y-103808132D01*
X100845336Y-103838225D01*
X100920738Y-103875231D01*
X101008414Y-103918402D01*
X101106841Y-103966988D01*
X101214497Y-104020241D01*
X101329858Y-104077410D01*
X101451401Y-104137747D01*
X101488094Y-104155982D01*
X101611107Y-104217048D01*
X101728357Y-104275094D01*
X101838326Y-104329376D01*
X101939494Y-104379153D01*
X102030343Y-104423683D01*
X102109355Y-104462223D01*
X102175009Y-104494031D01*
X102225787Y-104518364D01*
X102260171Y-104534482D01*
X102276641Y-104541640D01*
X102277859Y-104541931D01*
X102277462Y-104530863D01*
X102270950Y-104503076D01*
X102259452Y-104462860D01*
X102245320Y-104418208D01*
X102205555Y-104297528D01*
X101316666Y-103858990D01*
X101101325Y-103752750D01*
X102726494Y-103752750D01*
X102728239Y-103850024D01*
X102732062Y-103940434D01*
X102737964Y-104019286D01*
X102745951Y-104081883D01*
X102748273Y-104094444D01*
X102777061Y-104222722D01*
X102809948Y-104337642D01*
X102849867Y-104448038D01*
X102899752Y-104562742D01*
X102913425Y-104591666D01*
X102937988Y-104642305D01*
X102955768Y-104676140D01*
X102969336Y-104696526D01*
X102981269Y-104706814D01*
X102994139Y-104710356D01*
X103004762Y-104710623D01*
X103039240Y-104706357D01*
X103076514Y-104696668D01*
X103078715Y-104695898D01*
X103140480Y-104662979D01*
X103202648Y-104608468D01*
X103251022Y-104551263D01*
X103315319Y-104451216D01*
X103371412Y-104332392D01*
X103418788Y-104196863D01*
X103456935Y-104046702D01*
X103485340Y-103883980D01*
X103503491Y-103710770D01*
X103510873Y-103529143D01*
X103511021Y-103500576D01*
X103503899Y-103292328D01*
X103482525Y-103096115D01*
X103447186Y-102913379D01*
X103398168Y-102745560D01*
X103335759Y-102594099D01*
X103327424Y-102577174D01*
X103304815Y-102534169D01*
X103283847Y-102497899D01*
X103267672Y-102473662D01*
X103262235Y-102467600D01*
X103235637Y-102459245D01*
X103199072Y-102467362D01*
X103155378Y-102490261D01*
X103107389Y-102526247D01*
X103057943Y-102573631D01*
X103028654Y-102606950D01*
X102959049Y-102706096D01*
X102896530Y-102826080D01*
X102841196Y-102966647D01*
X102793147Y-103127538D01*
X102752483Y-103308498D01*
X102748810Y-103327777D01*
X102740219Y-103388934D01*
X102733689Y-103466705D01*
X102729222Y-103556395D01*
X102726823Y-103653309D01*
X102726494Y-103752750D01*
X101101325Y-103752750D01*
X100427777Y-103420451D01*
X100102081Y-102986847D01*
X100037654Y-102900857D01*
X99977648Y-102820345D01*
X99923325Y-102747034D01*
X99875944Y-102682646D01*
X99836768Y-102628903D01*
X99807057Y-102587527D01*
X99788072Y-102560239D01*
X99781074Y-102548762D01*
X99781096Y-102548533D01*
X99793567Y-102548820D01*
X99817150Y-102556038D01*
X99817903Y-102556330D01*
X99838809Y-102564090D01*
X99876498Y-102577707D01*
X99926784Y-102595682D01*
X99985480Y-102616518D01*
X100033333Y-102633413D01*
X100208382Y-102695128D01*
X100363088Y-102749789D01*
X100498103Y-102797630D01*
X100614080Y-102838880D01*
X100711669Y-102873771D01*
X100738888Y-102883547D01*
X100796091Y-102904018D01*
X100849740Y-102923038D01*
X100894365Y-102938679D01*
X100924493Y-102949012D01*
X100927777Y-102950101D01*
X100954913Y-102959324D01*
X100997483Y-102974145D01*
X101050011Y-102992645D01*
X101107019Y-103012901D01*
X101116666Y-103016347D01*
X101215357Y-103051594D01*
X101298085Y-103081053D01*
X101369795Y-103106471D01*
X101435430Y-103129596D01*
X101499934Y-103152173D01*
X101568251Y-103175951D01*
X101572222Y-103177330D01*
X101624967Y-103195781D01*
X101671625Y-103212353D01*
X101707321Y-103225298D01*
X101727180Y-103232868D01*
X101727777Y-103233120D01*
X101754842Y-103243625D01*
X101783333Y-103253577D01*
X101806080Y-103261340D01*
X101844705Y-103274813D01*
X101894162Y-103292224D01*
X101949404Y-103311804D01*
X101960159Y-103315630D01*
X102012826Y-103333773D01*
X102057778Y-103348111D01*
X102091025Y-103357456D01*
X102108576Y-103360623D01*
X102110159Y-103360217D01*
X102113615Y-103346994D01*
X102117597Y-103316745D01*
X102121501Y-103274640D01*
X102123522Y-103246302D01*
X102127383Y-103194582D01*
X102131934Y-103146731D01*
X102136428Y-103110189D01*
X102138284Y-103099163D01*
X102146189Y-103059437D01*
X102064761Y-103030772D01*
X101980880Y-103001191D01*
X101885888Y-102967604D01*
X101785435Y-102932016D01*
X101685171Y-102896432D01*
X101590747Y-102862857D01*
X101507815Y-102833295D01*
X101461111Y-102816595D01*
X101395811Y-102793335D01*
X101326237Y-102768765D01*
X101260918Y-102745887D01*
X101210522Y-102728435D01*
X101162991Y-102711714D01*
X101121526Y-102696379D01*
X101091901Y-102684603D01*
X101082204Y-102680146D01*
X101069727Y-102669787D01*
X101044986Y-102646335D01*
X101010501Y-102612388D01*
X100968796Y-102570546D01*
X100922392Y-102523410D01*
X100873811Y-102473578D01*
X100825574Y-102423651D01*
X100780205Y-102376228D01*
X100740225Y-102333908D01*
X100708155Y-102299291D01*
X100686519Y-102274977D01*
X100677837Y-102263566D01*
X100677777Y-102263267D01*
X100687228Y-102263885D01*
X100712017Y-102271080D01*
X100746804Y-102283299D01*
X100747222Y-102283455D01*
X100783144Y-102296710D01*
X100834063Y-102315236D01*
X100894028Y-102336881D01*
X100957089Y-102359491D01*
X100977777Y-102366873D01*
X101049404Y-102392436D01*
X101128450Y-102420709D01*
X101205762Y-102448416D01*
X101272187Y-102472278D01*
X101277777Y-102474290D01*
X101340761Y-102496920D01*
X101406772Y-102520562D01*
X101467566Y-102542266D01*
X101511111Y-102557744D01*
X101556113Y-102573820D01*
X101595144Y-102588009D01*
X101621941Y-102598026D01*
X101627777Y-102600331D01*
X101651893Y-102609680D01*
X101691095Y-102624227D01*
X101742070Y-102642797D01*
X101801505Y-102664215D01*
X101866087Y-102687309D01*
X101932502Y-102710904D01*
X101997436Y-102733826D01*
X102057576Y-102754901D01*
X102109609Y-102772956D01*
X102150222Y-102786816D01*
X102176100Y-102795307D01*
X102184045Y-102797419D01*
X102188116Y-102786149D01*
X102196679Y-102758216D01*
X102208305Y-102718377D01*
X102216486Y-102689559D01*
X102277385Y-102498108D01*
X102347744Y-102322771D01*
X102426788Y-102165321D01*
X102490589Y-102061111D01*
X102568804Y-101957410D01*
X102656983Y-101863963D01*
X102751782Y-101783549D01*
X102849857Y-101718948D01*
X102947863Y-101672939D01*
X102964788Y-101666997D01*
X102980140Y-101662072D01*
X102995446Y-101657904D01*
X103012577Y-101654441D01*
X103033403Y-101651631D01*
X103059795Y-101649422D01*
X103093625Y-101647762D01*
X103136762Y-101646599D01*
X103191078Y-101645881D01*
X103258444Y-101645555D01*
X103340729Y-101645571D01*
G37*
X188740000Y-78290000D02*
X189850000Y-78290000D01*
X188740000Y-79050000D02*
X188740000Y-78290000D01*
X188740000Y-79810000D02*
X188740000Y-81015000D01*
X188740000Y-79810000D02*
X189286529Y-79810000D01*
X188740000Y-81015000D02*
X189542470Y-81015000D01*
X190157530Y-81015000D02*
X190960000Y-81015000D01*
X190413471Y-79810000D02*
X190960000Y-79810000D01*
X190960000Y-79810000D02*
X190960000Y-81015000D01*
X167410000Y-87692164D02*
X167410000Y-87907836D01*
X166690000Y-87692164D02*
X166690000Y-87907836D01*
X194900000Y-85975000D02*
G75*
G03*
X193000000Y-85975000I-950000J0D01*
G01*
X193000000Y-85975000D02*
G75*
G03*
X194900000Y-85975000I950000J0D01*
G01*
X187347500Y-86512742D02*
X187347500Y-86987258D01*
X186302500Y-86512742D02*
X186302500Y-86987258D01*
X213700000Y-81300000D02*
X213700000Y-76900000D01*
X218100000Y-81300000D02*
X213700000Y-81300000D01*
X213700000Y-76900000D02*
X218100000Y-76900000D01*
X218100000Y-76900000D02*
X218100000Y-81300000D01*
D14*
X174100000Y-99517500D02*
X174100000Y-93717500D01*
X174100000Y-105497500D02*
X174100000Y-102717500D01*
X174100000Y-105497500D02*
X187350000Y-105497500D01*
X184350000Y-90747500D02*
X188850000Y-90747500D01*
X187350000Y-105497500D02*
X187350000Y-105747500D01*
X187350000Y-105747500D02*
X188450000Y-105747500D01*
X188450000Y-105497500D02*
X189150000Y-105497500D01*
X188450000Y-105747500D02*
X188450000Y-105497500D01*
X189150000Y-99517500D02*
X189150000Y-93717500D01*
X189150000Y-105497500D02*
X189150000Y-102717500D01*
D15*
X184470000Y-89017500D02*
G75*
G03*
X184230000Y-89017500I-120000J0D01*
G01*
X184230000Y-89017500D02*
G75*
G03*
X184470000Y-89017500I120000J0D01*
G01*
D13*
X204050000Y-88125000D02*
G75*
G03*
X202150000Y-88125000I-950000J0D01*
G01*
X202150000Y-88125000D02*
G75*
G03*
X204050000Y-88125000I950000J0D01*
G01*
X116215000Y-79936359D02*
X116215000Y-80243641D01*
X115455000Y-79936359D02*
X115455000Y-80243641D01*
X152600000Y-104800000D02*
G75*
G03*
X150700000Y-104800000I-950000J0D01*
G01*
X150700000Y-104800000D02*
G75*
G03*
X152600000Y-104800000I950000J0D01*
G01*
X158100000Y-100550000D02*
X155300000Y-100550000D01*
X155300000Y-100550000D02*
X155300000Y-103850000D01*
X108935000Y-83550000D02*
X109435000Y-83550000D01*
X108935000Y-99250000D02*
X108935000Y-97750000D01*
X109435000Y-99250000D02*
X108935000Y-99250000D01*
X112335000Y-88050000D02*
X112335000Y-91050000D01*
X112335000Y-91650000D02*
X112335000Y-94650000D01*
X112635000Y-87750000D02*
X115635000Y-87750000D01*
X115635000Y-91350000D02*
X112635000Y-91350000D01*
X115635000Y-94950000D02*
X112635000Y-94950000D01*
X115935000Y-91050000D02*
X115935000Y-88050000D01*
X115935000Y-94650000D02*
X115935000Y-91650000D01*
X116735000Y-94350000D02*
X116735000Y-94850000D01*
X116735000Y-94850000D02*
X117235000Y-94850000D01*
X117235000Y-94350000D02*
X116735000Y-94350000D01*
X117235000Y-94850000D02*
X117235000Y-94350000D01*
X118935000Y-83550000D02*
X119435000Y-83550000D01*
X118935000Y-99250000D02*
X119435000Y-99250000D01*
X119435000Y-83550000D02*
X119435000Y-85050000D01*
X119435000Y-99250000D02*
X119435000Y-97750000D01*
X204375000Y-97400000D02*
X206875000Y-97400000D01*
X206875000Y-91400000D02*
X204375000Y-91400000D01*
X100905000Y-79946359D02*
X100905000Y-80253641D01*
X100145000Y-79946359D02*
X100145000Y-80253641D01*
X196635000Y-103185000D02*
X196635000Y-101715000D01*
X196635000Y-101715000D02*
X194350000Y-101715000D01*
X194350000Y-103185000D02*
X196635000Y-103185000D01*
X181845000Y-74865000D02*
X183255000Y-74865000D01*
X183255000Y-72545000D02*
X181225000Y-72545000D01*
X183255000Y-72545000D02*
X183255000Y-73205000D01*
X183255000Y-74205000D02*
X183255000Y-74865000D01*
X109325000Y-73525000D02*
X107775000Y-73525000D01*
X107775000Y-71725000D02*
X109075000Y-71725000D01*
X170353641Y-87730000D02*
X170046359Y-87730000D01*
X170353641Y-86970000D02*
X170046359Y-86970000D01*
X164900000Y-101125000D02*
X164240000Y-101125000D01*
X164900000Y-101125000D02*
X164900000Y-104105000D01*
X162500000Y-101225000D02*
X162500000Y-104125000D01*
X97705000Y-79936359D02*
X97705000Y-80243641D01*
X96945000Y-79936359D02*
X96945000Y-80243641D01*
X145020000Y-103335000D02*
X144385000Y-103335000D01*
X145020000Y-102700000D02*
X145020000Y-103335000D01*
X105705000Y-79936359D02*
X105705000Y-80243641D01*
X104945000Y-79936359D02*
X104945000Y-80243641D01*
X199912500Y-95960000D02*
X201712500Y-95960000D01*
X199912500Y-95960000D02*
X199112500Y-95960000D01*
X199912500Y-92840000D02*
X200712500Y-92840000D01*
X199912500Y-92840000D02*
X199112500Y-92840000D01*
X200040580Y-92110000D02*
X199759420Y-92110000D01*
X200040580Y-91090000D02*
X199759420Y-91090000D01*
X128700000Y-98500000D02*
X128700000Y-101500000D01*
X136300000Y-98500000D02*
X136300000Y-101500000D01*
X122100000Y-92500000D02*
X122100000Y-82500000D01*
X142900000Y-92500000D02*
X142900000Y-82500000D01*
X128700000Y-76500000D02*
X128700000Y-73500000D01*
X136300000Y-76500000D02*
X136300000Y-73500000D01*
X129000000Y-93000000D02*
X136000000Y-93000000D01*
X136000000Y-93000000D02*
X136000000Y-82000000D01*
X136000000Y-82000000D02*
X129000000Y-82000000D01*
X129000000Y-82000000D02*
X129000000Y-93000000D01*
D16*
X151460000Y-74840000D02*
G75*
G03*
X151360000Y-74840000I-50000J0D01*
G01*
X151360000Y-74840000D02*
G75*
G03*
X151460000Y-74840000I50000J0D01*
G01*
D13*
X155992164Y-99390000D02*
X156207836Y-99390000D01*
X155992164Y-100110000D02*
X156207836Y-100110000D01*
X175872500Y-86512742D02*
X175872500Y-86987258D01*
X174827500Y-86512742D02*
X174827500Y-86987258D01*
X109815000Y-79946359D02*
X109815000Y-80253641D01*
X109055000Y-79946359D02*
X109055000Y-80253641D01*
X101028641Y-74830000D02*
X100721359Y-74830000D01*
X101028641Y-74070000D02*
X100721359Y-74070000D01*
X195316141Y-104380000D02*
X195008859Y-104380000D01*
X195316141Y-103620000D02*
X195008859Y-103620000D01*
X113138641Y-74780000D02*
X112831359Y-74780000D01*
X113138641Y-74020000D02*
X112831359Y-74020000D01*
X177647500Y-86512742D02*
X177647500Y-86987258D01*
X176602500Y-86512742D02*
X176602500Y-86987258D01*
X196622500Y-94162742D02*
X196622500Y-94637258D01*
X195577500Y-94162742D02*
X195577500Y-94637258D01*
X104295000Y-75303641D02*
X104295000Y-74996359D01*
X105055000Y-75303641D02*
X105055000Y-74996359D01*
X209975000Y-103325000D02*
G75*
G03*
X208075000Y-103325000I-950000J0D01*
G01*
X208075000Y-103325000D02*
G75*
G03*
X209975000Y-103325000I950000J0D01*
G01*
X175225000Y-77145000D02*
X171775000Y-77145000D01*
X175225000Y-77145000D02*
X177175000Y-77145000D01*
X175225000Y-82265000D02*
X173275000Y-82265000D01*
X175225000Y-82265000D02*
X177175000Y-82265000D01*
X166990000Y-100050000D02*
X166990000Y-103650000D01*
X166990000Y-100050000D02*
X166990000Y-97850000D01*
X170210000Y-100050000D02*
X170210000Y-102250000D01*
X170210000Y-100050000D02*
X170210000Y-97850000D01*
X180185000Y-74747164D02*
X180185000Y-74962836D01*
X179465000Y-74747164D02*
X179465000Y-74962836D01*
X99305000Y-79936359D02*
X99305000Y-80243641D01*
X98545000Y-79936359D02*
X98545000Y-80243641D01*
X117430000Y-71046359D02*
X117430000Y-71353641D01*
X116670000Y-71046359D02*
X116670000Y-71353641D01*
X153642164Y-99140000D02*
X153857836Y-99140000D01*
X153642164Y-99860000D02*
X153857836Y-99860000D01*
D16*
X148175000Y-74840000D02*
G75*
G03*
X148075000Y-74840000I-50000J0D01*
G01*
X148075000Y-74840000D02*
G75*
G03*
X148175000Y-74840000I50000J0D01*
G01*
D13*
X114615000Y-79946359D02*
X114615000Y-80253641D01*
X113855000Y-79946359D02*
X113855000Y-80253641D01*
X185647500Y-86512742D02*
X185647500Y-86987258D01*
X184602500Y-86512742D02*
X184602500Y-86987258D01*
X153685000Y-73410000D02*
X153685000Y-69050000D01*
X153685000Y-73410000D02*
X151185000Y-73410000D01*
X151185000Y-73410000D02*
X151185000Y-73610000D01*
X150525000Y-73610000D02*
X151185000Y-73610000D01*
X147665000Y-73410000D02*
X145165000Y-73410000D01*
X145165000Y-73410000D02*
X145165000Y-69050000D01*
X151372164Y-99140000D02*
X151587836Y-99140000D01*
X151372164Y-99860000D02*
X151587836Y-99860000D01*
X116405000Y-75253641D02*
X116405000Y-74946359D01*
X117165000Y-75253641D02*
X117165000Y-74946359D01*
X206365580Y-99535000D02*
X206084420Y-99535000D01*
X206365580Y-98515000D02*
X206084420Y-98515000D01*
X180185000Y-80747164D02*
X180185000Y-80962836D01*
X179465000Y-80747164D02*
X179465000Y-80962836D01*
X117815000Y-79946359D02*
X117815000Y-80253641D01*
X117055000Y-79946359D02*
X117055000Y-80253641D01*
X183947500Y-86512742D02*
X183947500Y-86987258D01*
X182902500Y-86512742D02*
X182902500Y-86987258D01*
X179465000Y-78662836D02*
X179465000Y-78447164D01*
X180185000Y-78662836D02*
X180185000Y-78447164D01*
X148390000Y-94610000D02*
X149090000Y-94610000D01*
X149090000Y-94610000D02*
X149090000Y-95975000D01*
X162610000Y-94610000D02*
X161910000Y-94610000D01*
X148390000Y-93910000D02*
X148390000Y-94610000D01*
X162610000Y-93910000D02*
X162610000Y-94610000D01*
X148390000Y-81090000D02*
X148390000Y-80390000D01*
X162610000Y-81090000D02*
X162610000Y-80390000D01*
X148390000Y-80390000D02*
X149090000Y-80390000D01*
X162610000Y-80390000D02*
X161910000Y-80390000D01*
X111415000Y-79946359D02*
X111415000Y-80253641D01*
X110655000Y-79946359D02*
X110655000Y-80253641D01*
X164300000Y-79350000D02*
X164300000Y-79450000D01*
X164300000Y-79450000D02*
X164700000Y-79450000D01*
X168900000Y-75850000D02*
X169300000Y-75850000D01*
X169300000Y-75850000D02*
X169300000Y-75950000D01*
D17*
X166971421Y-77650000D02*
G75*
G03*
X166628579Y-77650000I-171421J0D01*
G01*
X166628579Y-77650000D02*
G75*
G03*
X166971421Y-77650000I171421J0D01*
G01*
D16*
X167550000Y-77650000D02*
G75*
G03*
X166050000Y-77650000I-750000J0D01*
G01*
X166050000Y-77650000D02*
G75*
G03*
X167550000Y-77650000I750000J0D01*
G01*
D13*
X166292164Y-89040000D02*
X166507836Y-89040000D01*
X166292164Y-89760000D02*
X166507836Y-89760000D01*
X175225000Y-71145000D02*
X171775000Y-71145000D01*
X175225000Y-71145000D02*
X177175000Y-71145000D01*
X175225000Y-76265000D02*
X173275000Y-76265000D01*
X175225000Y-76265000D02*
X177175000Y-76265000D01*
%LPC*%
D18*
X114835000Y-75925000D03*
D19*
X114435000Y-75875000D03*
X114035000Y-75875000D03*
X113635000Y-75875000D03*
D20*
X113110000Y-76000000D03*
X113110000Y-76400000D03*
X113110000Y-76800000D03*
X113110000Y-77200000D03*
D19*
X113635000Y-77325000D03*
X114035000Y-77325000D03*
X114435000Y-77325000D03*
X114835000Y-77325000D03*
D20*
X115360000Y-77200000D03*
X115360000Y-76800000D03*
X115360000Y-76400000D03*
X115360000Y-76000000D03*
D21*
X179905000Y-87350000D03*
X178945000Y-87350000D03*
D22*
X163540000Y-105125000D03*
X164560000Y-105125000D03*
D23*
X198180000Y-96700000D03*
X198820000Y-96700000D03*
D24*
X161370000Y-96825000D03*
X160730000Y-96825000D03*
D25*
X194750000Y-94575000D03*
X194750000Y-93555000D03*
D26*
X181525000Y-79055000D03*
X181525000Y-80355000D03*
X183525000Y-79705000D03*
D27*
X181725000Y-85925000D03*
X181725000Y-87575000D03*
D28*
X97500000Y-72000000D03*
D29*
X119035000Y-79590000D03*
X119035000Y-80610000D03*
D30*
X179825000Y-73035000D03*
X179825000Y-72075000D03*
D29*
X103725000Y-79580000D03*
X103725000Y-80600000D03*
D31*
X196745000Y-88125000D03*
X198015000Y-88125000D03*
X199285000Y-88125000D03*
X200555000Y-88125000D03*
X200555000Y-83175000D03*
X199285000Y-83175000D03*
X198015000Y-83175000D03*
X196745000Y-83175000D03*
D23*
X154930000Y-78050000D03*
X155570000Y-78050000D03*
D32*
X189850000Y-73055000D03*
D33*
X189850000Y-74325000D03*
D30*
X158900000Y-103500000D03*
X158900000Y-102540000D03*
D18*
X102725000Y-75975000D03*
D19*
X102325000Y-75925000D03*
X101925000Y-75925000D03*
X101525000Y-75925000D03*
D20*
X101000000Y-76050000D03*
X101000000Y-76450000D03*
X101000000Y-76850000D03*
X101000000Y-77250000D03*
D19*
X101525000Y-77375000D03*
X101925000Y-77375000D03*
X102325000Y-77375000D03*
X102725000Y-77375000D03*
D20*
X103250000Y-77250000D03*
X103250000Y-76850000D03*
X103250000Y-76450000D03*
X103250000Y-76050000D03*
D29*
X102125000Y-79590000D03*
X102125000Y-80610000D03*
D34*
X98335000Y-99050000D03*
X100235000Y-99050000D03*
X102135000Y-99050000D03*
X104035000Y-99050000D03*
X105935000Y-99050000D03*
X105935000Y-83650000D03*
X104035000Y-83650000D03*
X102135000Y-83650000D03*
X100235000Y-83650000D03*
X98335000Y-83650000D03*
D29*
X112635000Y-79590000D03*
X112635000Y-80610000D03*
D23*
X169280000Y-104550000D03*
X169920000Y-104550000D03*
D28*
X97500000Y-104000000D03*
D25*
X161650000Y-105185000D03*
X161650000Y-104165000D03*
D35*
X170150000Y-89200000D03*
D29*
X106925000Y-79580000D03*
X106925000Y-80600000D03*
D21*
X161710000Y-97850000D03*
X160750000Y-97850000D03*
D36*
X160970000Y-75250000D03*
X159950000Y-75250000D03*
D37*
X164950000Y-88430000D03*
X164950000Y-89070000D03*
X164950000Y-81930000D03*
X164950000Y-82570000D03*
D28*
X215000000Y-72000000D03*
D38*
X151350000Y-101400000D03*
X153850000Y-101400000D03*
D23*
X198305000Y-81175000D03*
X198945000Y-81175000D03*
D29*
X118355000Y-70695000D03*
X118355000Y-71715000D03*
D39*
X164400000Y-71200000D03*
X157600000Y-71200000D03*
D40*
X163500000Y-72400000D03*
X163500000Y-70000000D03*
X161000000Y-72400000D03*
X161000000Y-70000000D03*
X158500000Y-72400000D03*
X158500000Y-70000000D03*
D25*
X161650000Y-102535000D03*
X161650000Y-101515000D03*
D41*
X207000000Y-100825000D03*
X205450000Y-100825000D03*
D32*
X189850000Y-79050000D03*
D33*
X189850000Y-80320000D03*
D42*
X167050000Y-87320000D03*
X167050000Y-88280000D03*
D35*
X193950000Y-85975000D03*
D27*
X186825000Y-85925000D03*
X186825000Y-87575000D03*
D43*
X215900000Y-79100000D03*
D44*
X170875000Y-74025000D03*
X170875000Y-73385000D03*
D45*
X177750000Y-101517500D03*
X184550000Y-101517500D03*
D46*
X183730000Y-90097500D03*
X182630000Y-90097500D03*
X181530000Y-90097500D03*
X180430000Y-90097500D03*
X179330000Y-90097500D03*
X178230000Y-90097500D03*
X177130000Y-90097500D03*
X176030000Y-90097500D03*
D47*
X173550000Y-92097500D03*
X173550000Y-101097500D03*
X189700000Y-92097500D03*
X189700000Y-101097500D03*
D46*
X174930000Y-90097500D03*
D35*
X203100000Y-88125000D03*
D29*
X115835000Y-79580000D03*
X115835000Y-80600000D03*
D23*
X114815000Y-74500000D03*
X115455000Y-74500000D03*
D28*
X215000000Y-104000000D03*
D35*
X151650000Y-104800000D03*
D48*
X156000000Y-101325000D03*
X156000000Y-103075000D03*
X157400000Y-103075000D03*
X157400000Y-101325000D03*
D34*
X110335000Y-99050000D03*
X112235000Y-99050000D03*
X114135000Y-99050000D03*
X116035000Y-99050000D03*
X117935000Y-99050000D03*
X117935000Y-83650000D03*
X116035000Y-83650000D03*
X114135000Y-83650000D03*
X112235000Y-83650000D03*
X110335000Y-83650000D03*
D49*
X203350000Y-94400000D03*
X207800000Y-94400000D03*
D29*
X100525000Y-79590000D03*
X100525000Y-80610000D03*
D50*
X195937500Y-102450000D03*
X194362500Y-102450000D03*
D26*
X181525000Y-73055000D03*
X181525000Y-74355000D03*
X183525000Y-73705000D03*
D23*
X108105000Y-70925000D03*
X108745000Y-70925000D03*
D51*
X109175000Y-73125000D03*
X109175000Y-72625000D03*
X109175000Y-72125000D03*
X107675000Y-72125000D03*
X107675000Y-72625000D03*
X107675000Y-73125000D03*
D36*
X170710000Y-87350000D03*
X169690000Y-87350000D03*
D52*
X164300000Y-101775000D03*
X163100000Y-101775000D03*
X163100000Y-103575000D03*
X164300000Y-103575000D03*
D29*
X97325000Y-79580000D03*
X97325000Y-80600000D03*
D53*
X141210000Y-103970000D03*
D54*
X143750000Y-103970000D03*
D53*
X146290000Y-103970000D03*
X141210000Y-100795000D03*
X146290000Y-100795000D03*
D54*
X142734000Y-98890000D03*
X144766000Y-98890000D03*
D55*
X144385000Y-102700000D03*
X143115000Y-102700000D03*
X144385000Y-101430000D03*
X143115000Y-101430000D03*
X144385000Y-100160000D03*
X143115000Y-100160000D03*
D44*
X170875000Y-80025000D03*
X170875000Y-79385000D03*
D29*
X105325000Y-79580000D03*
X105325000Y-80600000D03*
D37*
X165850000Y-87680000D03*
X165850000Y-88320000D03*
D56*
X201050000Y-95350000D03*
X201050000Y-94400000D03*
X201050000Y-93450000D03*
X198775000Y-93450000D03*
X198775000Y-94400000D03*
X198775000Y-95350000D03*
D41*
X200675000Y-91600000D03*
X199125000Y-91600000D03*
D57*
X132500000Y-102150000D03*
X132500000Y-72850000D03*
D24*
X150870000Y-74840000D03*
X150230000Y-74840000D03*
D58*
X155620000Y-99750000D03*
X156580000Y-99750000D03*
D27*
X175350000Y-85925000D03*
X175350000Y-87575000D03*
D29*
X109435000Y-79590000D03*
X109435000Y-80610000D03*
D36*
X101385000Y-74450000D03*
X100365000Y-74450000D03*
D23*
X102705000Y-74550000D03*
X103345000Y-74550000D03*
D36*
X195672500Y-104000000D03*
X194652500Y-104000000D03*
X113495000Y-74400000D03*
X112475000Y-74400000D03*
D27*
X177125000Y-85925000D03*
X177125000Y-87575000D03*
D37*
X168625000Y-87480000D03*
X168625000Y-88120000D03*
D27*
X196100000Y-93575000D03*
X196100000Y-95225000D03*
D25*
X104675000Y-75660000D03*
X104675000Y-74640000D03*
D35*
X209025000Y-103325000D03*
D59*
X172750000Y-77800000D03*
X172750000Y-79070000D03*
X172750000Y-80340000D03*
X172750000Y-81610000D03*
X177700000Y-81610000D03*
X177700000Y-80340000D03*
X177700000Y-79070000D03*
X177700000Y-77800000D03*
D60*
X167625000Y-102912500D03*
X168275000Y-102912500D03*
X168925000Y-102912500D03*
X169575000Y-102912500D03*
X169575000Y-97187500D03*
X168925000Y-97187500D03*
X168275000Y-97187500D03*
X167625000Y-97187500D03*
D44*
X146050000Y-93590000D03*
X146050000Y-92950000D03*
D42*
X179825000Y-74375000D03*
X179825000Y-75335000D03*
D24*
X179740000Y-88325000D03*
X179100000Y-88325000D03*
D29*
X98925000Y-79580000D03*
X98925000Y-80600000D03*
X117050000Y-70690000D03*
X117050000Y-71710000D03*
D58*
X153270000Y-99500000D03*
X154230000Y-99500000D03*
D23*
X148665000Y-74840000D03*
X149305000Y-74840000D03*
D29*
X114235000Y-79590000D03*
X114235000Y-80610000D03*
D27*
X185125000Y-85925000D03*
X185125000Y-87575000D03*
D61*
X150725000Y-72675000D03*
X150075000Y-72675000D03*
X149425000Y-72675000D03*
X148775000Y-72675000D03*
X148125000Y-72675000D03*
D62*
X152725000Y-70000000D03*
D63*
X152625000Y-72450000D03*
D64*
X150625000Y-70000000D03*
X148225000Y-70000000D03*
D63*
X146225000Y-72450000D03*
D62*
X146125000Y-70000000D03*
D58*
X151000000Y-99500000D03*
X151960000Y-99500000D03*
D25*
X116785000Y-75610000D03*
X116785000Y-74590000D03*
D23*
X149305000Y-78050000D03*
X149945000Y-78050000D03*
D41*
X207000000Y-99025000D03*
X205450000Y-99025000D03*
D42*
X179825000Y-80375000D03*
X179825000Y-81335000D03*
D29*
X117435000Y-79590000D03*
X117435000Y-80610000D03*
D27*
X183425000Y-85925000D03*
X183425000Y-87575000D03*
D30*
X179825000Y-79035000D03*
X179825000Y-78075000D03*
D65*
X149500000Y-95175000D03*
X150000000Y-95175000D03*
X150500000Y-95175000D03*
X151000000Y-95175000D03*
X151500000Y-95175000D03*
X152000000Y-95175000D03*
X152500000Y-95175000D03*
X153000000Y-95175000D03*
X153500000Y-95175000D03*
X154000000Y-95175000D03*
X154500000Y-95175000D03*
X155000000Y-95175000D03*
X155500000Y-95175000D03*
X156000000Y-95175000D03*
X156500000Y-95175000D03*
X157000000Y-95175000D03*
X157500000Y-95175000D03*
X158000000Y-95175000D03*
X158500000Y-95175000D03*
X159000000Y-95175000D03*
X159500000Y-95175000D03*
X160000000Y-95175000D03*
X160500000Y-95175000D03*
X161000000Y-95175000D03*
X161500000Y-95175000D03*
D66*
X163175000Y-93500000D03*
X163175000Y-93000000D03*
X163175000Y-92500000D03*
X163175000Y-92000000D03*
X163175000Y-91500000D03*
X163175000Y-91000000D03*
X163175000Y-90500000D03*
X163175000Y-90000000D03*
X163175000Y-89500000D03*
X163175000Y-89000000D03*
X163175000Y-88500000D03*
X163175000Y-88000000D03*
X163175000Y-87500000D03*
X163175000Y-87000000D03*
X163175000Y-86500000D03*
X163175000Y-86000000D03*
X163175000Y-85500000D03*
X163175000Y-85000000D03*
X163175000Y-84500000D03*
X163175000Y-84000000D03*
X163175000Y-83500000D03*
X163175000Y-83000000D03*
X163175000Y-82500000D03*
X163175000Y-82000000D03*
X163175000Y-81500000D03*
D65*
X161500000Y-79825000D03*
X161000000Y-79825000D03*
X160500000Y-79825000D03*
X160000000Y-79825000D03*
X159500000Y-79825000D03*
X159000000Y-79825000D03*
X158500000Y-79825000D03*
X158000000Y-79825000D03*
X157500000Y-79825000D03*
X157000000Y-79825000D03*
X156500000Y-79825000D03*
X156000000Y-79825000D03*
X155500000Y-79825000D03*
X155000000Y-79825000D03*
X154500000Y-79825000D03*
X154000000Y-79825000D03*
X153500000Y-79825000D03*
X153000000Y-79825000D03*
X152500000Y-79825000D03*
X152000000Y-79825000D03*
X151500000Y-79825000D03*
X151000000Y-79825000D03*
X150500000Y-79825000D03*
X150000000Y-79825000D03*
X149500000Y-79825000D03*
D66*
X147825000Y-81500000D03*
X147825000Y-82000000D03*
X147825000Y-82500000D03*
X147825000Y-83000000D03*
X147825000Y-83500000D03*
X147825000Y-84000000D03*
X147825000Y-84500000D03*
X147825000Y-85000000D03*
X147825000Y-85500000D03*
X147825000Y-86000000D03*
X147825000Y-86500000D03*
X147825000Y-87000000D03*
X147825000Y-87500000D03*
X147825000Y-88000000D03*
X147825000Y-88500000D03*
X147825000Y-89000000D03*
X147825000Y-89500000D03*
X147825000Y-90000000D03*
X147825000Y-90500000D03*
X147825000Y-91000000D03*
X147825000Y-91500000D03*
X147825000Y-92000000D03*
X147825000Y-92500000D03*
X147825000Y-93000000D03*
X147825000Y-93500000D03*
D29*
X111035000Y-79590000D03*
X111035000Y-80610000D03*
D67*
X164550000Y-76575000D03*
X169050000Y-76575000D03*
X164550000Y-78725000D03*
X169050000Y-78725000D03*
D58*
X165920000Y-89400000D03*
X166880000Y-89400000D03*
D59*
X172750000Y-71800000D03*
X172750000Y-73070000D03*
X172750000Y-74340000D03*
X172750000Y-75610000D03*
X177700000Y-75610000D03*
X177700000Y-74340000D03*
X177700000Y-73070000D03*
X177700000Y-71800000D03*
%LPD*%
M02*
