M48
; DRILL file {KiCad 7.0.10-7.0.10~ubuntu22.04.1} date Thu 08 Feb 2024 05:20:16 PM EST
; FORMAT={-:-/ absolute / metric / decimal}
; #@! TF.CreationDate,2024-02-08T17:20:16-05:00
; #@! TF.GenerationSoftware,Kicad,Pcbnew,7.0.10-7.0.10~ubuntu22.04.1
; #@! TF.FileFunction,Plated,1,4,PTH
FMAT,2
METRIC
; #@! TA.AperFunction,Plated,PTH,ViaDrill
T1C0.200
; #@! TA.AperFunction,Plated,PTH,ViaDrill
T2C0.250
; #@! TA.AperFunction,Plated,PTH,ViaDrill
T3C0.300
; #@! TA.AperFunction,Plated,PTH,ComponentDrill
T4C0.500
; #@! TA.AperFunction,Plated,PTH,ComponentDrill
T5C0.650
; #@! TA.AperFunction,Plated,PTH,ComponentDrill
T6C2.200
%
G90
G05
T1
X99.925Y-75.65
X100.375Y-75.126
X100.475Y-78.95
X100.525Y-76.0
X101.575Y-79.05
X101.775Y-77.95
X101.95Y-74.45
X102.1Y-82.05
X102.1Y-85.25
X102.15Y-97.4
X102.15Y-100.7
X102.2Y-76.7
X102.3Y-78.575
X102.304Y-77.951
X102.7Y-74.0
X103.35Y-74.0
X103.85Y-76.375
X104.175Y-78.45
X104.55Y-76.25
X105.325Y-78.874
X107.65Y-71.65
X108.1Y-70.4
X108.425Y-72.625
X108.75Y-70.4
X110.35Y-72.625
X112.185Y-77.9
X112.235Y-75.4
X112.525Y-74.975
X112.585Y-75.85
X113.55Y-73.75
X113.885Y-77.95
X113.885Y-79.05
X114.1Y-82.05
X114.1Y-85.25
X114.15Y-97.45
X114.15Y-100.65
X114.309Y-76.65
X114.41Y-77.9
X114.535Y-78.5
X114.85Y-74.0
X115.45Y-74.0
X115.95Y-76.35
X115.985Y-78.5
X116.7Y-76.2
X117.05Y-70.1
X117.435Y-78.924
X117.462Y-72.687
X117.875Y-73.475
X118.35Y-70.1
X118.95Y-73.5
X130.05Y-72.85
X132.5Y-74.8
X135.0Y-72.85
X142.375Y-90.5
X142.5Y-82.5
X144.1Y-99.55
X144.5Y-103.3
X144.6Y-90.5
X144.902Y-99.852
X144.906Y-103.01
X145.05Y-90.95
X145.6Y-92.95
X145.6Y-93.6
X146.3Y-82.5
X148.1Y-74.15
X148.15Y-74.85
X148.95Y-83.0
X148.95Y-83.5
X148.95Y-84.0
X148.95Y-84.5
X148.95Y-85.0
X148.95Y-85.5
X148.95Y-86.0
X148.95Y-86.5
X148.95Y-87.0
X148.95Y-87.5
X148.95Y-88.0
X148.95Y-89.0
X148.95Y-89.5
X148.95Y-90.0
X148.95Y-91.5
X148.95Y-92.0
X148.95Y-92.5
X149.2Y-102.3
X149.3Y-77.55
X149.5Y-94.05
X149.95Y-77.55
X150.0Y-94.05
X150.5Y-94.05
X151.0Y-94.05
X151.0Y-98.9
X151.4Y-74.85
X151.5Y-94.05
X151.5Y-80.9
X152.0Y-76.7
X152.0Y-80.9
X152.5Y-80.9
X153.0Y-80.9
X153.5Y-80.9
X154.0Y-80.9
X154.0Y-94.05
X154.1Y-90.5
X154.3Y-98.9
X154.5Y-80.9
X154.5Y-88.75
X154.5Y-94.05
X154.95Y-77.55
X155.6Y-77.55
X155.65Y-99.15
X155.95Y-103.95
X156.0Y-80.9
X156.5Y-80.9
X156.5Y-94.1
X156.53Y-97.495
X157.0Y-80.9
X157.0Y-94.1
X157.5Y-80.9
X157.5Y-94.1
X158.0Y-94.1
X158.0Y-80.9
X158.15Y-101.35
X158.5Y-80.9
X158.5Y-94.1
X158.9Y-102.0
X159.0Y-80.9
X159.5Y-80.9
X160.0Y-80.9
X160.5Y-80.9
X160.75Y-98.45
X161.0Y-80.9
X161.5Y-80.9
X161.5Y-94.1
X161.7Y-98.45
X162.0Y-81.5
X162.0Y-83.0
X162.0Y-84.0
X162.0Y-84.5
X162.0Y-85.0
X162.0Y-85.5
X162.0Y-86.0
X162.0Y-86.5
X162.0Y-87.0
X162.0Y-87.5
X162.05Y-89.5
X162.05Y-90.0
X162.05Y-90.5
X162.05Y-91.0
X162.05Y-91.5
X162.05Y-92.001
X162.05Y-92.5
X162.05Y-93.0
X162.05Y-93.5
X162.6Y-79.5
X162.6Y-80.2
X163.45Y-78.75
X164.3Y-101.05
X165.05Y-101.8
X165.1Y-92.5
X165.4Y-76.6
X165.45Y-81.95
X165.45Y-82.55
X165.75Y-93.0
X166.55Y-92.5
X167.6Y-98.2
X167.9Y-93.025
X168.25Y-76.6
X168.3Y-98.2
X169.25Y-105.0
X169.95Y-105.0
X170.45Y-73.35
X170.45Y-74.05
X170.9Y-78.9
X170.9Y-80.5
X171.4Y-87.179
X171.75Y-87.55
X172.25Y-93.05
X172.3Y-92.0
X172.3Y-92.5
X173.55Y-93.8
X173.55Y-102.75
X174.6Y-92.0
X174.85Y-93.05
X175.4Y-85.25
X175.75Y-91.6
X177.15Y-85.25
X178.35Y-92.0
X178.95Y-86.75
X179.375Y-88.9
X179.8Y-71.5
X179.8Y-75.85
X179.85Y-77.55
X179.85Y-81.95
X179.9Y-86.75
X179.95Y-92.0
X180.825Y-88.525
X181.75Y-85.25
X182.85Y-73.7
X182.9Y-79.75
X183.45Y-85.25
X185.15Y-85.25
X186.85Y-85.25
X189.7Y-81.85
X189.7Y-82.5
X189.7Y-93.65
X189.7Y-102.65
X192.8Y-87.6
X192.8Y-88.2
X192.8Y-88.8
X193.4Y-87.6
X193.4Y-88.2
X193.4Y-88.8
X193.7Y-102.45
X194.0Y-87.6
X194.0Y-88.2
X194.0Y-88.8
X194.1Y-104.0
X194.6Y-87.6
X194.6Y-88.2
X194.6Y-88.8
X195.2Y-87.6
X195.2Y-88.2
X195.2Y-88.8
X195.8Y-87.6
X195.8Y-88.2
X195.8Y-88.8
X196.8Y-73.0
X196.8Y-78.0
X196.9Y-91.1
X196.9Y-91.6
X196.9Y-92.1
X197.4Y-73.0
X197.4Y-78.0
X197.4Y-91.1
X197.4Y-91.6
X197.4Y-92.1
X197.9Y-91.1
X197.9Y-91.6
X197.9Y-92.1
X198.0Y-73.0
X198.0Y-78.0
X198.6Y-73.0
X198.6Y-78.0
X198.95Y-80.55
X199.2Y-73.0
X199.2Y-78.0
X199.8Y-73.0
X199.8Y-78.0
X200.4Y-73.0
X200.4Y-78.0
X201.0Y-73.0
X201.0Y-78.0
X201.6Y-73.0
X201.6Y-78.0
X202.2Y-73.0
X202.2Y-78.0
X202.6Y-99.0
X202.6Y-99.6
X202.6Y-100.2
X202.6Y-100.8
X203.2Y-99.0
X203.2Y-99.6
X203.2Y-100.2
X203.2Y-100.8
X203.8Y-99.0
X203.8Y-99.6
X203.8Y-100.2
X203.8Y-100.8
X204.4Y-99.0
X204.4Y-99.6
X204.4Y-100.2
X204.4Y-100.8
X205.0Y-102.3
X205.0Y-102.9
X205.0Y-103.5
X205.0Y-104.1
X205.6Y-102.3
X205.6Y-102.9
X205.6Y-103.5
X205.6Y-104.1
X206.2Y-102.3
X206.2Y-102.9
X206.2Y-103.5
X206.2Y-104.1
X206.8Y-102.3
X206.8Y-102.9
X206.8Y-103.5
X206.8Y-104.1
X207.4Y-102.3
X207.4Y-102.9
X207.4Y-103.5
X207.4Y-104.1
X211.6Y-92.2
X211.6Y-92.8
X211.6Y-93.4
X211.6Y-94.0
X211.6Y-94.6
X211.6Y-95.4
X211.6Y-96.0
X211.6Y-96.6
X211.6Y-97.2
X211.6Y-97.8
X213.55Y-79.1
X215.9Y-76.65
X215.9Y-81.65
X216.6Y-92.2
X216.6Y-92.8
X216.6Y-93.4
X216.6Y-94.0
X216.6Y-94.6
X216.6Y-95.4
X216.6Y-96.0
X216.6Y-96.6
X216.6Y-97.2
X216.6Y-97.8
T2
X103.75Y-75.65
X115.95Y-75.7
X158.5Y-73.6
X163.5Y-73.6
X197.775Y-94.4
X200.775Y-92.625
T3
X164.95Y-89.65
X167.6Y-89.45
X199.45Y-96.7
X202.1Y-94.4
T5
X189.85Y-73.055
X189.85Y-74.325
X189.85Y-79.05
X189.85Y-80.32
T6
X97.5Y-72.0
X97.5Y-104.0
X215.0Y-72.0
X215.0Y-104.0
T4
X146.125Y-69.65G85X146.125Y-70.35
G05
X152.725Y-69.65G85X152.725Y-70.35
G05
M30
